NotoSerifBengali-CondensedThin.ufo
<glyph name="exclam" format="2">
  <advance width="236.1"/>
  <unicode hex="0021"/>
  <outline>
    <contour>
      <point x="110.0" y="167.0" type="line"/>
      <point x="132.79999999999998" y="167.0" type="line"/>
      <point x="135.1" y="714.0" type="line"/>
      <point x="107.10000000000001" y="714.0" type="line"/>
    </contour>
    <contour>
      <point x="120.1" y="-5.0" type="curve" smooth="yes"/>
      <point x="134.7" y="-5.0"/>
      <point x="148.39999999999998" y="4.699999999999999"/>
      <point x="148.39999999999998" y="34.300000000000004" type="curve" smooth="yes"/>
      <point x="148.39999999999998" y="64.3"/>
      <point x="134.7" y="73.69999999999999"/>
      <point x="120.1" y="73.69999999999999" type="curve" smooth="yes"/>
      <point x="103.7" y="73.69999999999999"/>
      <point x="90.39999999999999" y="64.3"/>
      <point x="90.39999999999999" y="34.300000000000004" type="curve" smooth="yes"/>
      <point x="90.39999999999999" y="4.699999999999999"/>
      <point x="103.7" y="-5.0"/>
    </contour>
  </outline>
</glyph>
<glyph name="quotedbl" format="2">
  <advance width="248.5"/>
  <unicode hex="0022"/>
  <outline>
    <contour>
      <point x="179.1" y="507.99999999999994" type="line"/>
      <point x="198.4" y="507.99999999999994" type="line"/>
      <point x="209.8" y="714.0" type="line"/>
      <point x="167.1" y="714.0" type="line"/>
    </contour>
    <contour>
      <point x="50.699999999999996" y="507.99999999999994" type="line"/>
      <point x="70.0" y="507.99999999999994" type="line"/>
      <point x="81.4" y="714.0" type="line"/>
      <point x="38.699999999999996" y="714.0" type="line"/>
    </contour>
  </outline>
</glyph>
<glyph name="percent" format="2">
  <advance width="735.6"/>
  <unicode hex="0025"/>
  <outline>
    <contour>
      <point x="190.5" y="0.0" type="line"/>
      <point x="221.1" y="0.0" type="line"/>
      <point x="541.1" y="714.0" type="line"/>
      <point x="510.5" y="714.0" type="line"/>
    </contour>
    <contour>
      <point x="169.4" y="280.0" type="curve" smooth="yes"/>
      <point x="255.5" y="280.0"/>
      <point x="292.4" y="362.6"/>
      <point x="292.4" y="503.0" type="curve"/>
      <point x="292.4" y="646.0"/>
      <point x="254.1" y="724.0"/>
      <point x="170.4" y="724.0" type="curve" smooth="yes"/>
      <point x="85.2" y="724.0"/>
      <point x="47.8" y="644.0"/>
      <point x="47.8" y="503.0" type="curve" smooth="yes"/>
      <point x="47.8" y="357.3"/>
      <point x="85.6" y="280.0"/>
    </contour>
    <contour>
      <point x="168.79999999999998" y="305.0" type="curve" smooth="yes"/>
      <point x="100.30000000000001" y="305.0"/>
      <point x="75.8" y="376.0"/>
      <point x="75.8" y="503.0" type="curve"/>
      <point x="75.8" y="623.9"/>
      <point x="98.8" y="699.0"/>
      <point x="169.10000000000002" y="699.0" type="curve" smooth="yes"/>
      <point x="240.0" y="699.0"/>
      <point x="264.40000000000003" y="629.9"/>
      <point x="264.40000000000003" y="503.0" type="curve" smooth="yes"/>
      <point x="264.40000000000003" y="379.9"/>
      <point x="242.10000000000002" y="305.0"/>
    </contour>
    <contour>
      <point x="565.5" y="-10.0" type="curve" smooth="yes"/>
      <point x="651.5999999999999" y="-10.0"/>
      <point x="688.5" y="72.6"/>
      <point x="688.5" y="213.0" type="curve" smooth="yes"/>
      <point x="688.5" y="356.0"/>
      <point x="650.2" y="434.0"/>
      <point x="566.5" y="434.0" type="curve" smooth="yes"/>
      <point x="481.3" y="434.0"/>
      <point x="443.9" y="354.0"/>
      <point x="443.9" y="213.0" type="curve" smooth="yes"/>
      <point x="443.9" y="67.3"/>
      <point x="481.7" y="-10.0"/>
    </contour>
    <contour>
      <point x="564.9" y="15.0" type="curve" smooth="yes"/>
      <point x="496.4" y="15.0"/>
      <point x="471.90000000000003" y="86.0"/>
      <point x="471.90000000000003" y="213.0" type="curve" smooth="yes"/>
      <point x="471.90000000000003" y="333.9"/>
      <point x="494.90000000000003" y="409.0"/>
      <point x="565.1999999999999" y="409.0" type="curve" smooth="yes"/>
      <point x="636.0999999999999" y="409.0"/>
      <point x="660.5" y="339.90000000000003"/>
      <point x="660.5" y="213.0" type="curve" smooth="yes"/>
      <point x="660.5" y="89.9"/>
      <point x="638.1999999999999" y="15.0"/>
    </contour>
  </outline>
</glyph>
<glyph name="quotesingle" format="2">
  <advance width="120.1"/>
  <unicode hex="0027"/>
  <outline>
    <contour>
      <point x="50.699999999999996" y="526.1999999999999" type="line"/>
      <point x="70.0" y="526.1999999999999" type="line"/>
      <point x="81.4" y="714.0" type="line"/>
      <point x="38.699999999999996" y="714.0" type="line"/>
    </contour>
  </outline>
</glyph>
<glyph name="parenleft" format="2">
  <advance width="246.5"/>
  <unicode hex="0028"/>
  <outline>
    <contour>
      <point x="206.29999999999998" y="-114.7" type="curve"/>
      <point x="206.29999999999998" y="-87.9" type="line"/>
      <point x="113.0" y="-43.4"/>
      <point x="69.8" y="114.0"/>
      <point x="69.8" y="315.0" type="curve" smooth="yes"/>
      <point x="69.8" y="516.0"/>
      <point x="112.1" y="675.8"/>
      <point x="206.29999999999998" y="717.6" type="curve"/>
      <point x="206.29999999999998" y="744.7" type="line"/>
      <point x="103.1" y="699.3"/>
      <point x="41.800000000000004" y="571.6"/>
      <point x="41.800000000000004" y="315.0" type="curve" smooth="yes"/>
      <point x="41.800000000000004" y="56.6"/>
      <point x="103.1" y="-68.69999999999999"/>
    </contour>
  </outline>
</glyph>
<glyph name="parenright" format="2">
  <advance width="264.20000000000005"/>
  <unicode hex="0029"/>
  <outline>
    <contour>
      <point x="57.20000000000001" y="-114.7" type="line"/>
      <point x="160.40000000000003" y="-68.69999999999999"/>
      <point x="221.70000000000002" y="56.6"/>
      <point x="221.70000000000002" y="315.0" type="curve" smooth="yes"/>
      <point x="221.70000000000002" y="571.6"/>
      <point x="160.40000000000003" y="699.3"/>
      <point x="57.20000000000001" y="744.7" type="curve"/>
      <point x="57.20000000000001" y="717.6" type="line"/>
      <point x="151.39999999999998" y="675.8"/>
      <point x="193.4" y="516.0"/>
      <point x="193.4" y="315.0" type="curve" smooth="yes"/>
      <point x="193.4" y="114.0"/>
      <point x="150.5" y="-43.4"/>
      <point x="57.20000000000001" y="-87.9" type="curve"/>
    </contour>
  </outline>
</glyph>
<glyph name="asterisk" format="2">
  <advance width="366.1"/>
  <unicode hex="002A"/>
  <outline>
    <contour>
      <point x="160.1" y="380.8" type="line"/>
      <point x="203.0" y="380.8" type="line"/>
      <point x="189.7" y="551.2" type="line"/>
      <point x="306.5" y="465.5" type="line"/>
      <point x="322.8" y="508.09999999999997" type="line"/>
      <point x="190.2" y="570.4" type="line"/>
      <point x="322.8" y="632.7" type="line"/>
      <point x="306.5" y="676.2" type="line"/>
      <point x="189.7" y="589.5999999999999" type="line"/>
      <point x="202.4" y="760.0" type="line"/>
      <point x="160.1" y="760.0" type="line"/>
      <point x="172.70000000000002" y="590.6" type="line"/>
      <point x="56.2" y="678.2" type="line"/>
      <point x="38.6" y="633.7" type="line"/>
      <point x="170.89999999999998" y="570.4" type="line"/>
      <point x="38.6" y="507.09999999999997" type="line"/>
      <point x="56.2" y="463.5" type="line"/>
      <point x="172.4" y="550.5" type="line"/>
    </contour>
  </outline>
</glyph>
<glyph name="plus" format="2">
  <advance width="465.2"/>
  <unicode hex="002B"/>
  <outline>
    <contour>
      <point x="218.1" y="143.0" type="line"/>
      <point x="247.5" y="143.0" type="line"/>
      <point x="247.5" y="343.7" type="line"/>
      <point x="410.70000000000005" y="343.7" type="line"/>
      <point x="410.70000000000005" y="371.7" type="line"/>
      <point x="247.5" y="371.7" type="line"/>
      <point x="247.5" y="572.0" type="line"/>
      <point x="218.1" y="572.0" type="line"/>
      <point x="218.1" y="371.7" type="line"/>
      <point x="54.5" y="371.7" type="line"/>
      <point x="54.5" y="343.7" type="line"/>
      <point x="218.1" y="343.7" type="line"/>
    </contour>
  </outline>
</glyph>
<glyph name="comma" format="2">
  <advance width="187.6"/>
  <unicode hex="002C"/>
  <outline>
    <contour>
      <point x="37.400000000000006" y="-154.0" type="line"/>
      <point x="111.4" y="-124.9"/>
      <point x="139.60000000000002" y="-60.7"/>
      <point x="139.60000000000002" y="0.0" type="curve" smooth="yes"/>
      <point x="139.60000000000002" y="54.8"/>
      <point x="115.9" y="73.0"/>
      <point x="92.1" y="73.0" type="curve" smooth="yes"/>
      <point x="74.5" y="73.0"/>
      <point x="63.00000000000001" y="61.4"/>
      <point x="63.00000000000001" y="45.5" type="curve" smooth="yes"/>
      <point x="63.00000000000001" y="16.3"/>
      <point x="107.9" y="8.9"/>
      <point x="107.9" y="-27.200000000000003" type="curve" smooth="yes"/>
      <point x="107.9" y="-61.0"/>
      <point x="88.00000000000001" y="-111.5"/>
      <point x="37.400000000000006" y="-129.20000000000002" type="curve"/>
    </contour>
  </outline>
</glyph>
<glyph name="period" format="2">
  <advance width="181.60000000000002"/>
  <unicode hex="002E"/>
  <outline>
    <contour>
      <point x="99.80000000000001" y="-5.7" type="curve" smooth="yes"/>
      <point x="114.4" y="-5.7"/>
      <point x="127.4" y="4.0"/>
      <point x="127.4" y="33.6" type="curve" smooth="yes"/>
      <point x="127.4" y="63.599999999999994"/>
      <point x="114.4" y="73.0"/>
      <point x="99.80000000000001" y="73.0" type="curve" smooth="yes"/>
      <point x="83.4" y="73.0"/>
      <point x="70.1" y="63.599999999999994"/>
      <point x="70.1" y="33.6" type="curve" smooth="yes"/>
      <point x="70.1" y="4.0"/>
      <point x="83.4" y="-5.7"/>
    </contour>
  </outline>
</glyph>
<glyph name="zero" format="2">
  <advance width="465.20000000000005"/>
  <unicode hex="0030"/>
  <outline>
    <contour>
      <point x="232.39999999999998" y="-10.0" type="curve" smooth="yes"/>
      <point x="351.4" y="-10.0"/>
      <point x="416.7" y="107.1"/>
      <point x="416.7" y="358.0" type="curve" smooth="yes"/>
      <point x="416.7" y="602.4"/>
      <point x="355.3" y="724.0"/>
      <point x="233.39999999999998" y="724.0" type="curve" smooth="yes"/>
      <point x="102.5" y="724.0"/>
      <point x="47.800000000000004" y="594.2"/>
      <point x="47.800000000000004" y="359.0" type="curve" smooth="yes"/>
      <point x="47.800000000000004" y="111.0"/>
      <point x="108.0" y="-10.0"/>
    </contour>
    <contour>
      <point x="232.1" y="15.0" type="curve" smooth="yes"/>
      <point x="121.89999999999999" y="15.0"/>
      <point x="75.8" y="135.0"/>
      <point x="75.8" y="358.0" type="curve" smooth="yes"/>
      <point x="75.8" y="575.9"/>
      <point x="118.89999999999999" y="699.0"/>
      <point x="233.1" y="699.0" type="curve" smooth="yes"/>
      <point x="344.40000000000003" y="699.0"/>
      <point x="388.7" y="578.0"/>
      <point x="388.7" y="358.0" type="curve" smooth="yes"/>
      <point x="388.7" y="137.4"/>
      <point x="342.6" y="15.0"/>
    </contour>
  </outline>
</glyph>
<glyph name="one" format="2">
  <advance width="465.20000000000005"/>
  <unicode hex="0031"/>
  <outline>
    <contour>
      <point x="98.0" y="0.0" type="line"/>
      <point x="394.2" y="0.0" type="line"/>
      <point x="394.2" y="20.6" type="line"/>
      <point x="319.0" y="20.6" type="line" smooth="yes"/>
      <point x="270.40000000000003" y="20.6"/>
      <point x="263.0" y="30.3"/>
      <point x="263.0" y="105.89999999999999" type="curve" smooth="yes"/>
      <point x="263.0" y="718.0" type="line"/>
      <point x="244.4" y="718.0" type="line"/>
      <point x="204.3" y="670.8000000000001" type="line" smooth="yes"/>
      <point x="155.89999999999998" y="613.4"/>
      <point x="115.0" y="592.8"/>
      <point x="70.5" y="584.3" type="curve"/>
      <point x="70.5" y="574.0"/>
      <point x="82.0" y="567.1"/>
      <point x="97.60000000000001" y="567.1" type="curve" smooth="yes"/>
      <point x="142.5" y="567.1"/>
      <point x="182.70000000000002" y="604.8000000000001"/>
      <point x="235.0" y="670.1" type="curve"/>
      <point x="235.0" y="105.89999999999999" type="line" smooth="yes"/>
      <point x="235.0" y="30.299999999999997"/>
      <point x="227.6" y="20.6"/>
      <point x="179.0" y="20.6" type="curve" smooth="yes"/>
      <point x="98.0" y="20.6" type="line"/>
    </contour>
  </outline>
</glyph>
<glyph name="two" format="2">
  <advance width="465.20000000000005"/>
  <unicode hex="0032"/>
  <outline>
    <contour>
      <point x="49.300000000000004" y="0.0" type="line"/>
      <point x="390.6" y="0.0" type="line"/>
      <point x="393.5" y="129.8" type="line"/>
      <point x="373.5" y="129.8" type="line"/>
      <point x="372.2" y="95.7" type="line" smooth="yes"/>
      <point x="370.6" y="43.2"/>
      <point x="364.59999999999997" y="27.099999999999998"/>
      <point x="311.9" y="27.099999999999998" type="curve" smooth="yes"/>
      <point x="82.2" y="27.099999999999998" type="line"/>
      <point x="249.1" y="272.8" type="line" smooth="yes"/>
      <point x="323.9" y="380.09999999999997"/>
      <point x="368.7" y="449.7"/>
      <point x="368.7" y="552.9" type="curve" smooth="yes"/>
      <point x="368.7" y="647.3"/>
      <point x="319.29999999999995" y="724.0"/>
      <point x="215.5" y="724.0" type="curve" smooth="yes"/>
      <point x="112.4" y="724.0"/>
      <point x="68.3" y="650.0"/>
      <point x="68.3" y="602.0" type="curve" smooth="yes"/>
      <point x="68.3" y="575.2"/>
      <point x="77.30000000000001" y="563.3"/>
      <point x="91.30000000000001" y="563.3" type="curve"/>
      <point x="91.30000000000001" y="642.0"/>
      <point x="130.8" y="699.0"/>
      <point x="215.5" y="699.0" type="curve" smooth="yes"/>
      <point x="307.3" y="699.0"/>
      <point x="340.7" y="630.9000000000001"/>
      <point x="340.7" y="548.8000000000001" type="curve" smooth="yes"/>
      <point x="340.7" y="460.0"/>
      <point x="303.40000000000003" y="393.9"/>
      <point x="219.1" y="271.90000000000003" type="curve" smooth="yes"/>
      <point x="49.300000000000004" y="22.0" type="line"/>
    </contour>
  </outline>
</glyph>
<glyph name="three" format="2">
  <advance width="465.20000000000005"/>
  <unicode hex="0033"/>
  <outline>
    <contour>
      <point x="213.4" y="-9.0" type="curve" smooth="yes"/>
      <point x="313.5" y="-9.0"/>
      <point x="393.5" y="61.5"/>
      <point x="393.5" y="189.4" type="curve" smooth="yes"/>
      <point x="393.5" y="322.7"/>
      <point x="316.0" y="370.1"/>
      <point x="235.7" y="376.0" type="curve"/>
      <point x="312.7" y="391.2"/>
      <point x="372.7" y="461.1"/>
      <point x="372.7" y="559.5" type="curve" smooth="yes"/>
      <point x="372.7" y="661.0999999999999"/>
      <point x="315.2" y="724.0"/>
      <point x="225.2" y="724.0" type="curve" smooth="yes"/>
      <point x="132.8" y="724.0"/>
      <point x="79.60000000000001" y="664.4"/>
      <point x="79.60000000000001" y="596.3000000000001" type="curve" smooth="yes"/>
      <point x="79.60000000000001" y="569.0"/>
      <point x="89.4" y="557.8"/>
      <point x="100.60000000000001" y="557.8" type="curve"/>
      <point x="100.9" y="642.6"/>
      <point x="137.89999999999998" y="699.0"/>
      <point x="224.9" y="699.0" type="curve" smooth="yes"/>
      <point x="302.5" y="699.0"/>
      <point x="344.70000000000005" y="648.4000000000001"/>
      <point x="344.70000000000005" y="559.1" type="curve" smooth="yes"/>
      <point x="344.70000000000005" y="450.1"/>
      <point x="273.8" y="387.0"/>
      <point x="184.0" y="387.0" type="curve"/>
      <point x="163.70000000000002" y="387.0" type="line"/>
      <point x="163.70000000000002" y="362.0" type="line"/>
      <point x="184.6" y="362.0" type="line" smooth="yes"/>
      <point x="307.7" y="362.0"/>
      <point x="365.5" y="301.4"/>
      <point x="365.5" y="190.4" type="curve" smooth="yes"/>
      <point x="365.5" y="83.0"/>
      <point x="305.3" y="16.0"/>
      <point x="212.8" y="16.0" type="curve" smooth="yes"/>
      <point x="123.4" y="16.0"/>
      <point x="79.9" y="59.400000000000006"/>
      <point x="79.9" y="136.0" type="curve"/>
      <point x="66.10000000000001" y="136.0"/>
      <point x="58.3" y="121.7"/>
      <point x="58.3" y="99.2" type="curve" smooth="yes"/>
      <point x="58.3" y="43.8"/>
      <point x="111.4" y="-9.0"/>
    </contour>
  </outline>
</glyph>
<glyph name="four" format="2">
  <advance width="465.20000000000005"/>
  <unicode hex="0034"/>
  <outline>
    <contour>
      <point x="214.6" y="0.0" type="line"/>
      <point x="415.5" y="0.0" type="line"/>
      <point x="415.5" y="20.0" type="line"/>
      <point x="394.7" y="20.0" type="line" smooth="yes"/>
      <point x="341.9" y="20.0"/>
      <point x="334.5" y="29.6"/>
      <point x="334.5" y="103.1" type="curve" smooth="yes"/>
      <point x="334.5" y="208.0" type="line"/>
      <point x="453.40000000000003" y="208.0" type="line"/>
      <point x="453.40000000000003" y="233.0" type="line"/>
      <point x="334.5" y="233.0" type="line"/>
      <point x="334.5" y="714.0" type="line"/>
      <point x="306.5" y="714.0" type="line"/>
      <point x="18.2" y="225.70000000000002" type="line"/>
      <point x="18.2" y="208.0" type="line"/>
      <point x="307.5" y="208.0" type="line"/>
      <point x="307.5" y="103.1" type="line" smooth="yes"/>
      <point x="307.5" y="29.6"/>
      <point x="300.09999999999997" y="20.0"/>
      <point x="248.00000000000003" y="20.0" type="curve" smooth="yes"/>
      <point x="214.6" y="20.0" type="line"/>
    </contour>
    <contour>
      <point x="50.4" y="233.0" type="line"/>
      <point x="215.0" y="511.3" type="line" smooth="yes"/>
      <point x="241.89999999999998" y="555.7"/>
      <point x="300.0" y="657.8"/>
      <point x="309.5" y="679.4" type="curve"/>
      <point x="307.8" y="616.0"/>
      <point x="307.5" y="504.2"/>
      <point x="307.5" y="446.2" type="curve" smooth="yes"/>
      <point x="307.5" y="233.0" type="line"/>
    </contour>
  </outline>
</glyph>
<glyph name="five" format="2">
  <advance width="465.20000000000005"/>
  <unicode hex="0035"/>
  <outline>
    <contour>
      <point x="210.9" y="-10.0" type="curve" smooth="yes"/>
      <point x="322.3" y="-10.0"/>
      <point x="394.4" y="68.6"/>
      <point x="394.4" y="216.3" type="curve" smooth="yes"/>
      <point x="394.4" y="352.6"/>
      <point x="316.3" y="423.0"/>
      <point x="215.1" y="423.0" type="curve" smooth="yes"/>
      <point x="170.7" y="423.0"/>
      <point x="139.60000000000002" y="412.3"/>
      <point x="113.6" y="400.3" type="curve"/>
      <point x="135.1" y="686.0" type="line"/>
      <point x="291.2" y="686.0" type="line" smooth="yes"/>
      <point x="338.5" y="686.0"/>
      <point x="345.8" y="681.1999999999999"/>
      <point x="347.8" y="628.9" type="curve" smooth="yes"/>
      <point x="348.8" y="603.0" type="line"/>
      <point x="368.79999999999995" y="603.0" type="line"/>
      <point x="365.8" y="714.0" type="line"/>
      <point x="112.10000000000001" y="714.0" type="line"/>
      <point x="86.30000000000001" y="368.09999999999997" type="line"/>
      <point x="99.9" y="364.1" type="line"/>
      <point x="126.10000000000001" y="382.8"/>
      <point x="164.4" y="398.0"/>
      <point x="215.2" y="398.0" type="curve" smooth="yes"/>
      <point x="307.6" y="398.0"/>
      <point x="366.4" y="335.6"/>
      <point x="366.4" y="216.0" type="curve" smooth="yes"/>
      <point x="366.4" y="81.1"/>
      <point x="305.8" y="15.0"/>
      <point x="210.6" y="15.0" type="curve" smooth="yes"/>
      <point x="126.8" y="15.0"/>
      <point x="80.2" y="60.4"/>
      <point x="80.2" y="126.0" type="curve"/>
      <point x="66.4" y="126.0"/>
      <point x="57.2" y="116.2"/>
      <point x="57.2" y="89.5" type="curve" smooth="yes"/>
      <point x="57.2" y="51.6"/>
      <point x="104.6" y="-10.0"/>
    </contour>
  </outline>
</glyph>
<glyph name="six" format="2">
  <advance width="465.20000000000005"/>
  <unicode hex="0036"/>
  <outline>
    <contour>
      <point x="246.8" y="-10.0" type="curve" smooth="yes"/>
      <point x="334.70000000000005" y="-10.0"/>
      <point x="407.5" y="55.0"/>
      <point x="407.5" y="217.2" type="curve" smooth="yes"/>
      <point x="407.5" y="354.3"/>
      <point x="348.1" y="428.40000000000003"/>
      <point x="247.0" y="428.40000000000003" type="curve" smooth="yes"/>
      <point x="172.9" y="428.40000000000003"/>
      <point x="121.10000000000001" y="385.7"/>
      <point x="92.9" y="354.9" type="curve"/>
      <point x="92.2" y="604.4"/>
      <point x="155.29999999999998" y="699.0"/>
      <point x="263.59999999999997" y="699.0" type="curve" smooth="yes"/>
      <point x="336.3" y="699.0"/>
      <point x="366.5" y="662.5"/>
      <point x="366.5" y="587.6" type="curve"/>
      <point x="377.7" y="587.6"/>
      <point x="387.09999999999997" y="595.3"/>
      <point x="387.09999999999997" y="624.7" type="curve" smooth="yes"/>
      <point x="387.09999999999997" y="679.0"/>
      <point x="348.8" y="724.0"/>
      <point x="264.6" y="724.0" type="curve" smooth="yes"/>
      <point x="144.70000000000002" y="724.0"/>
      <point x="64.89999999999999" y="633.1"/>
      <point x="64.89999999999999" y="338.7" type="curve" smooth="yes"/>
      <point x="64.89999999999999" y="95.7"/>
      <point x="133.0" y="-10.0"/>
    </contour>
    <contour>
      <point x="248.4" y="15.0" type="curve" smooth="yes"/>
      <point x="147.20000000000002" y="15.0"/>
      <point x="95.5" y="114.5"/>
      <point x="92.9" y="319.4" type="curve"/>
      <point x="121.0" y="353.7"/>
      <point x="170.7" y="403.4"/>
      <point x="247.0" y="403.4" type="curve" smooth="yes"/>
      <point x="337.0" y="403.4"/>
      <point x="379.5" y="338.0"/>
      <point x="379.5" y="218.2" type="curve" smooth="yes"/>
      <point x="379.5" y="83.60000000000001"/>
      <point x="331.0" y="15.0"/>
    </contour>
  </outline>
</glyph>
<glyph name="seven" format="2">
  <advance width="465.20000000000005"/>
  <unicode hex="0037"/>
  <outline>
    <contour>
      <point x="155.7" y="0.0" type="line"/>
      <point x="185.7" y="0.0" type="line"/>
      <point x="412.5" y="692.0" type="line"/>
      <point x="412.5" y="714.0" type="line"/>
      <point x="55.199999999999996" y="714.0" type="line"/>
      <point x="50.599999999999994" y="570.0" type="line"/>
      <point x="70.60000000000001" y="570.0" type="line"/>
      <point x="73.9" y="630.9" type="line" smooth="yes"/>
      <point x="76.9" y="680.6"/>
      <point x="86.5" y="686.0"/>
      <point x="121.8" y="686.0" type="curve" smooth="yes"/>
      <point x="382.5" y="686.0" type="line"/>
    </contour>
  </outline>
</glyph>
<glyph name="eight" format="2">
  <advance width="465.20000000000005"/>
  <unicode hex="0038"/>
  <outline>
    <contour>
      <point x="234.0" y="-10.0" type="curve" smooth="yes"/>
      <point x="335.7" y="-10.0"/>
      <point x="409.9" y="53.5"/>
      <point x="409.9" y="169.6" type="curve" smooth="yes"/>
      <point x="409.9" y="276.1"/>
      <point x="361.9" y="323.3"/>
      <point x="266.5" y="374.0" type="curve"/>
      <point x="346.2" y="410.7"/>
      <point x="391.0" y="463.7"/>
      <point x="391.0" y="557.8000000000001" type="curve" smooth="yes"/>
      <point x="391.0" y="650.9"/>
      <point x="335.3" y="724.0"/>
      <point x="234.8" y="724.0" type="curve" smooth="yes"/>
      <point x="136.6" y="724.0"/>
      <point x="76.1" y="652.5999999999999"/>
      <point x="76.1" y="554.4" type="curve" smooth="yes"/>
      <point x="76.1" y="467.20000000000005"/>
      <point x="129.79999999999998" y="413.40000000000003"/>
      <point x="209.1" y="376.0" type="curve"/>
      <point x="112.5" y="336.8"/>
      <point x="56.0" y="272.4"/>
      <point x="56.0" y="170.4" type="curve" smooth="yes"/>
      <point x="56.0" y="59.800000000000004"/>
      <point x="120.5" y="-10.0"/>
    </contour>
    <contour>
      <point x="234.3" y="15.000000000000002" type="curve" smooth="yes"/>
      <point x="134.9" y="15.000000000000002"/>
      <point x="84.0" y="75.2"/>
      <point x="84.0" y="169.7" type="curve" smooth="yes"/>
      <point x="84.0" y="253.29999999999998"/>
      <point x="126.79999999999998" y="322.20000000000005"/>
      <point x="237.1" y="362.0" type="curve"/>
      <point x="349.5" y="308.70000000000005"/>
      <point x="381.9" y="254.8"/>
      <point x="381.9" y="168.2" type="curve" smooth="yes"/>
      <point x="381.9" y="67.6"/>
      <point x="321.2" y="15.000000000000002"/>
    </contour>
    <contour>
      <point x="238.8" y="387.7" type="curve"/>
      <point x="149.6" y="429.5"/>
      <point x="104.1" y="470.4"/>
      <point x="104.1" y="558.6" type="curve" smooth="yes"/>
      <point x="104.1" y="642.5"/>
      <point x="154.20000000000002" y="699.0"/>
      <point x="235.1" y="699.0" type="curve" smooth="yes"/>
      <point x="327.0" y="699.0"/>
      <point x="363.0" y="628.2"/>
      <point x="363.0" y="557.8" type="curve" smooth="yes"/>
      <point x="363.0" y="471.7"/>
      <point x="333.40000000000003" y="429.1"/>
    </contour>
  </outline>
</glyph>
<glyph name="nine" format="2">
  <advance width="465.20000000000005"/>
  <unicode hex="0039"/>
  <outline>
    <contour>
      <point x="192.7" y="-12.4" type="curve"/>
      <point x="333.5" y="-12.4"/>
      <point x="399.6" y="99.5"/>
      <point x="399.6" y="388.0" type="curve" smooth="yes"/>
      <point x="399.6" y="627.8000000000001"/>
      <point x="324.4" y="724.0"/>
      <point x="216.9" y="724.0" type="curve" smooth="yes"/>
      <point x="112.30000000000001" y="724.0"/>
      <point x="57.0" y="635.4"/>
      <point x="57.0" y="487.0" type="curve" smooth="yes"/>
      <point x="57.0" y="357.90000000000003"/>
      <point x="119.0" y="285.59999999999997"/>
      <point x="224.5" y="285.59999999999997" type="curve" smooth="yes"/>
      <point x="304.4" y="285.59999999999997"/>
      <point x="352.9" y="334.5"/>
      <point x="371.6" y="357.3" type="curve"/>
      <point x="367.4" y="122.00000000000001"/>
      <point x="313.7" y="12.600000000000001"/>
      <point x="195.8" y="12.600000000000001" type="curve" smooth="yes"/>
      <point x="139.4" y="12.600000000000001"/>
      <point x="108.4" y="43.5"/>
      <point x="93.1" y="80.0" type="curve"/>
      <point x="87.1" y="77.0"/>
      <point x="84.1" y="70.0"/>
      <point x="84.1" y="56.5" type="curve" smooth="yes"/>
      <point x="84.1" y="24.099999999999998"/>
      <point x="122.1" y="-12.4"/>
    </contour>
    <contour>
      <point x="223.3" y="310.59999999999997" type="curve" smooth="yes"/>
      <point x="132.5" y="310.6"/>
      <point x="85.0" y="372.8"/>
      <point x="85.0" y="489.8" type="curve" smooth="yes"/>
      <point x="85.0" y="614.8"/>
      <point x="122.3" y="699.0"/>
      <point x="216.89999999999998" y="699.0" type="curve" smooth="yes"/>
      <point x="315.0" y="699.0"/>
      <point x="371.59999999999997" y="598.8"/>
      <point x="371.59999999999997" y="394.6" type="curve"/>
      <point x="339.0" y="350.2"/>
      <point x="297.0" y="310.6"/>
    </contour>
  </outline>
</glyph>
<glyph name="colon" format="2">
  <advance width="182.3"/>
  <unicode hex="003A"/>
  <outline>
    <contour>
      <point x="99.8" y="430.9" type="curve" smooth="yes"/>
      <point x="114.4" y="430.9"/>
      <point x="128.1" y="439.90000000000003"/>
      <point x="128.1" y="470.2" type="curve" smooth="yes"/>
      <point x="128.1" y="500.2"/>
      <point x="114.4" y="508.90000000000003"/>
      <point x="99.8" y="508.90000000000003" type="curve" smooth="yes"/>
      <point x="83.4" y="508.90000000000003"/>
      <point x="70.1" y="500.2"/>
      <point x="70.1" y="470.2" type="curve" smooth="yes"/>
      <point x="70.1" y="439.90000000000003"/>
      <point x="83.4" y="430.9"/>
    </contour>
    <contour>
      <point x="99.8" y="-5.0" type="curve" smooth="yes"/>
      <point x="114.4" y="-5.0"/>
      <point x="128.1" y="4.0"/>
      <point x="128.1" y="34.300000000000004" type="curve" smooth="yes"/>
      <point x="128.1" y="64.3"/>
      <point x="114.4" y="73.0"/>
      <point x="99.8" y="73.0" type="curve" smooth="yes"/>
      <point x="83.4" y="73.0"/>
      <point x="70.1" y="64.3"/>
      <point x="70.1" y="34.300000000000004" type="curve" smooth="yes"/>
      <point x="70.1" y="4.0"/>
      <point x="83.4" y="-5.0"/>
    </contour>
  </outline>
</glyph>
<glyph name="semicolon" format="2">
  <advance width="202.9"/>
  <unicode hex="003B"/>
  <outline>
    <contour>
      <point x="37.400000000000006" y="-154.0" type="line"/>
      <point x="111.4" y="-124.9"/>
      <point x="139.6" y="-60.7"/>
      <point x="139.6" y="0.0" type="curve" smooth="yes"/>
      <point x="139.6" y="54.8"/>
      <point x="115.60000000000001" y="73.0"/>
      <point x="92.10000000000001" y="73.0" type="curve" smooth="yes"/>
      <point x="74.5" y="73.0"/>
      <point x="62.99999999999999" y="61.4"/>
      <point x="62.99999999999999" y="45.5" type="curve" smooth="yes"/>
      <point x="62.99999999999999" y="16.3"/>
      <point x="107.9" y="8.9"/>
      <point x="107.9" y="-27.200000000000003" type="curve"/>
      <point x="107.9" y="-61.0"/>
      <point x="88.0" y="-111.5"/>
      <point x="37.400000000000006" y="-129.20000000000002" type="curve"/>
    </contour>
    <contour>
      <point x="99.80000000000001" y="430.9" type="curve" smooth="yes"/>
      <point x="115.1" y="430.9"/>
      <point x="128.1" y="439.90000000000003"/>
      <point x="128.1" y="470.2" type="curve" smooth="yes"/>
      <point x="128.1" y="500.2"/>
      <point x="115.1" y="508.90000000000003"/>
      <point x="99.80000000000001" y="508.90000000000003" type="curve" smooth="yes"/>
      <point x="83.4" y="508.90000000000003"/>
      <point x="70.1" y="500.2"/>
      <point x="70.1" y="470.2" type="curve" smooth="yes"/>
      <point x="70.1" y="439.90000000000003"/>
      <point x="83.4" y="430.9"/>
    </contour>
  </outline>
</glyph>
<glyph name="less" format="2">
  <advance width="465.2"/>
  <unicode hex="003C"/>
  <outline>
    <contour>
      <point x="410.70000000000005" y="117.3" type="line"/>
      <point x="410.70000000000005" y="151.79999999999998" type="line"/>
      <point x="85.2" y="357.0" type="line"/>
      <point x="410.70000000000005" y="564.2" type="line"/>
      <point x="410.70000000000005" y="598.7" type="line"/>
      <point x="54.5" y="371.0" type="line"/>
      <point x="54.5" y="344.0" type="line"/>
    </contour>
  </outline>
</glyph>
<glyph name="equal" format="2">
  <advance width="463.09999999999997"/>
  <unicode hex="003D"/>
  <outline>
    <contour>
      <point x="55.1" y="445.4" type="line"/>
      <point x="407.40000000000003" y="445.4" type="line"/>
      <point x="407.40000000000003" y="473.4" type="line"/>
      <point x="55.1" y="473.4" type="line"/>
    </contour>
    <contour>
      <point x="55.1" y="241.3" type="line"/>
      <point x="407.40000000000003" y="241.3" type="line"/>
      <point x="407.40000000000003" y="269.3" type="line"/>
      <point x="55.1" y="269.3" type="line"/>
    </contour>
  </outline>
</glyph>
<glyph name="greater" format="2">
  <advance width="465.2"/>
  <unicode hex="003E"/>
  <outline>
    <contour>
      <point x="54.5" y="117.3" type="line"/>
      <point x="410.70000000000005" y="344.0" type="line"/>
      <point x="410.70000000000005" y="371.0" type="line"/>
      <point x="54.5" y="598.7" type="line"/>
      <point x="54.5" y="564.2" type="line"/>
      <point x="378.8" y="357.0" type="line"/>
      <point x="54.5" y="151.79999999999998" type="line"/>
    </contour>
  </outline>
</glyph>
<glyph name="question" format="2">
  <advance width="370.9"/>
  <unicode hex="003F"/>
  <outline>
    <contour>
      <point x="159.2" y="167.0" type="line"/>
      <point x="181.20000000000002" y="167.0" type="line"/>
      <point x="183.5" y="323.0" type="line"/>
      <point x="277.8" y="370.8"/>
      <point x="326.09999999999997" y="438.90000000000003"/>
      <point x="326.09999999999997" y="551.6999999999999" type="curve" smooth="yes"/>
      <point x="326.09999999999997" y="659.8000000000001"/>
      <point x="267.09999999999997" y="724.0"/>
      <point x="176.6" y="724.0" type="curve" smooth="yes"/>
      <point x="74.8" y="724.0"/>
      <point x="37.1" y="657.2"/>
      <point x="37.1" y="611.7" type="curve" smooth="yes"/>
      <point x="37.1" y="581.9"/>
      <point x="47.2" y="569.0"/>
      <point x="58.4" y="569.0" type="curve"/>
      <point x="58.4" y="638.1"/>
      <point x="87.2" y="699.0"/>
      <point x="177.2" y="699.0" type="curve" smooth="yes"/>
      <point x="255.0" y="699.0"/>
      <point x="298.1" y="640.8000000000001"/>
      <point x="298.1" y="550.3000000000001" type="curve" smooth="yes"/>
      <point x="298.1" y="451.5"/>
      <point x="254.2" y="386.2"/>
      <point x="156.2" y="337.0" type="curve"/>
    </contour>
    <contour>
      <point x="170.6" y="-5.0" type="curve" smooth="yes"/>
      <point x="187.3" y="-5.0"/>
      <point x="201.0" y="4.0"/>
      <point x="201.0" y="34.3" type="curve" smooth="yes"/>
      <point x="201.0" y="64.3"/>
      <point x="187.3" y="73.0"/>
      <point x="170.6" y="73.0" type="curve" smooth="yes"/>
      <point x="155.60000000000002" y="73.0"/>
      <point x="142.3" y="64.3"/>
      <point x="142.3" y="34.3" type="curve" smooth="yes"/>
      <point x="142.3" y="4.0"/>
      <point x="155.60000000000002" y="-5.0"/>
    </contour>
  </outline>
</glyph>
<glyph name="bracketleft" format="2">
  <advance width="237.5"/>
  <unicode hex="005B"/>
  <outline>
    <contour>
      <point x="71.4" y="-128.0" type="line"/>
      <point x="208.20000000000002" y="-128.0" type="line"/>
      <point x="208.20000000000002" y="-108.0" type="line"/>
      <point x="155.4" y="-108.0" type="line" smooth="yes"/>
      <point x="105.4" y="-108.0"/>
      <point x="99.39999999999999" y="-97.0"/>
      <point x="99.39999999999999" y="-20.0" type="curve" smooth="yes"/>
      <point x="99.39999999999999" y="652.0" type="line" smooth="yes"/>
      <point x="99.39999999999999" y="729.0"/>
      <point x="105.4" y="740.0"/>
      <point x="155.4" y="740.0" type="curve" smooth="yes"/>
      <point x="208.20000000000002" y="740.0" type="line"/>
      <point x="208.20000000000002" y="760.0" type="line"/>
      <point x="71.4" y="760.0" type="line"/>
    </contour>
  </outline>
</glyph>
<glyph name="bracketright" format="2">
  <advance width="266.6"/>
  <unicode hex="005D"/>
  <outline>
    <contour>
      <point x="56.99999999999999" y="-128.0" type="line"/>
      <point x="193.8" y="-128.0" type="line"/>
      <point x="193.8" y="760.0" type="line"/>
      <point x="56.99999999999999" y="760.0" type="line"/>
      <point x="56.99999999999999" y="740.0" type="line"/>
      <point x="109.8" y="740.0" type="line" smooth="yes"/>
      <point x="159.8" y="740.0"/>
      <point x="165.79999999999998" y="729.0"/>
      <point x="165.79999999999998" y="652.0" type="curve" smooth="yes"/>
      <point x="165.79999999999998" y="-20.0" type="line" smooth="yes"/>
      <point x="165.79999999999998" y="-97.0"/>
      <point x="159.8" y="-108.0"/>
      <point x="109.8" y="-108.0" type="curve" smooth="yes"/>
      <point x="56.99999999999999" y="-108.0" type="line"/>
    </contour>
  </outline>
</glyph>
<glyph name="underscore" format="2">
  <advance width="380.6"/>
  <unicode hex="005F"/>
  <outline>
    <contour>
      <point x="-5.0" y="-108.0" type="line"/>
      <point x="385.59999999999997" y="-108.0" type="line"/>
      <point x="385.59999999999997" y="-83.0" type="line"/>
      <point x="-5.0" y="-83.0" type="line"/>
    </contour>
  </outline>
</glyph>
<glyph name="braceleft" format="2">
  <advance width="318.2"/>
  <unicode hex="007B"/>
  <outline>
    <contour>
      <point x="240.0" y="-132.0" type="curve" smooth="yes"/>
      <point x="263.7" y="-132.0" type="line"/>
      <point x="263.7" y="-107.0" type="line"/>
      <point x="243.5" y="-107.0" type="line" smooth="yes"/>
      <point x="191.39999999999998" y="-107.0"/>
      <point x="168.5" y="-69.39999999999999"/>
      <point x="168.5" y="10.899999999999999" type="curve" smooth="yes"/>
      <point x="168.5" y="178.6" type="line" smooth="yes"/>
      <point x="168.5" y="259.7"/>
      <point x="136.3" y="304.2"/>
      <point x="84.0" y="313.6" type="curve"/>
      <point x="84.0" y="315.6" type="line"/>
      <point x="136.0" y="324.7"/>
      <point x="168.5" y="370.9"/>
      <point x="168.5" y="451.4" type="curve" smooth="yes"/>
      <point x="168.5" y="615.8" type="line" smooth="yes"/>
      <point x="168.5" y="697.6999999999999"/>
      <point x="191.39999999999998" y="735.0"/>
      <point x="245.0" y="735.0" type="curve" smooth="yes"/>
      <point x="263.7" y="735.0" type="line"/>
      <point x="263.7" y="760.0" type="line"/>
      <point x="238.60000000000002" y="760.0" type="line" smooth="yes"/>
      <point x="174.6" y="760.0"/>
      <point x="140.9" y="706.5"/>
      <point x="140.9" y="621.0" type="curve" smooth="yes"/>
      <point x="140.9" y="454.8" type="line" smooth="yes"/>
      <point x="140.9" y="355.3"/>
      <point x="97.60000000000001" y="330.9"/>
      <point x="39.4" y="325.4" type="curve"/>
      <point x="39.4" y="303.2" type="line"/>
      <point x="97.60000000000001" y="297.4"/>
      <point x="140.9" y="274.7"/>
      <point x="140.9" y="174.9" type="curve" smooth="yes"/>
      <point x="140.9" y="7.999999999999999" type="line" smooth="yes"/>
      <point x="140.9" y="-77.3"/>
      <point x="173.89999999999998" y="-132.0"/>
    </contour>
  </outline>
</glyph>
<glyph name="bar" format="2">
  <advance width="463.8"/>
  <unicode hex="007C"/>
  <outline>
    <contour>
      <point x="218.1" y="-240.0" type="line"/>
      <point x="246.1" y="-240.0" type="line"/>
      <point x="246.1" y="760.0" type="line"/>
      <point x="218.1" y="760.0" type="line"/>
    </contour>
  </outline>
</glyph>
<glyph name="braceright" format="2">
  <advance width="305.70000000000005"/>
  <unicode hex="007D"/>
  <outline>
    <contour>
      <point x="75.19999999999999" y="-132.0" type="line"/>
      <point x="98.9" y="-132.0" type="line" smooth="yes"/>
      <point x="164.7" y="-132.0"/>
      <point x="197.70000000000002" y="-77.3"/>
      <point x="197.70000000000002" y="7.999999999999999" type="curve" smooth="yes"/>
      <point x="197.70000000000002" y="174.9" type="line" smooth="yes"/>
      <point x="197.70000000000002" y="274.7"/>
      <point x="241.3" y="297.4"/>
      <point x="299.5" y="303.2" type="curve"/>
      <point x="299.5" y="325.4" type="line"/>
      <point x="241.3" y="330.9"/>
      <point x="197.70000000000002" y="355.3"/>
      <point x="197.70000000000002" y="454.8" type="curve" smooth="yes"/>
      <point x="197.70000000000002" y="621.0" type="line" smooth="yes"/>
      <point x="197.70000000000002" y="706.5"/>
      <point x="164.0" y="760.0"/>
      <point x="100.30000000000001" y="760.0" type="curve" smooth="yes"/>
      <point x="75.19999999999999" y="760.0" type="line"/>
      <point x="75.19999999999999" y="735.0" type="line"/>
      <point x="93.9" y="735.0" type="line" smooth="yes"/>
      <point x="147.5" y="735.0"/>
      <point x="170.40000000000003" y="697.6999999999999"/>
      <point x="170.40000000000003" y="615.8" type="curve" smooth="yes"/>
      <point x="170.40000000000003" y="451.4" type="line" smooth="yes"/>
      <point x="170.40000000000003" y="370.9"/>
      <point x="202.9" y="324.7"/>
      <point x="254.60000000000002" y="315.6" type="curve"/>
      <point x="254.60000000000002" y="313.6" type="line"/>
      <point x="202.6" y="304.2"/>
      <point x="170.40000000000003" y="259.7"/>
      <point x="170.40000000000003" y="178.6" type="curve" smooth="yes"/>
      <point x="170.40000000000003" y="10.899999999999999" type="line" smooth="yes"/>
      <point x="170.40000000000003" y="-69.39999999999999"/>
      <point x="147.5" y="-107.0"/>
      <point x="95.39999999999999" y="-107.0" type="curve" smooth="yes"/>
      <point x="75.19999999999999" y="-107.0" type="line"/>
    </contour>
  </outline>
</glyph>
<glyph name="asciitilde" format="2">
  <advance width="465.2"/>
  <unicode hex="007E"/>
  <outline>
    <contour>
      <point x="52.1" y="277.0" type="curve"/>
      <point x="80.7" y="277.0" type="line"/>
      <point x="92.8" y="356.7"/>
      <point x="103.7" y="408.7"/>
      <point x="145.70000000000002" y="408.7" type="curve" smooth="yes"/>
      <point x="174.5" y="408.7"/>
      <point x="192.6" y="385.90000000000003"/>
      <point x="225.2" y="343.2" type="curve" smooth="yes"/>
      <point x="258.2" y="299.8"/>
      <point x="283.40000000000003" y="277.7"/>
      <point x="318.79999999999995" y="277.7" type="curve" smooth="yes"/>
      <point x="390.0" y="277.7"/>
      <point x="403.9" y="371.9"/>
      <point x="412.8" y="435.3" type="curve"/>
      <point x="383.90000000000003" y="435.3" type="line"/>
      <point x="372.09999999999997" y="361.6"/>
      <point x="361.40000000000003" y="305.0"/>
      <point x="318.8" y="305.0" type="curve" smooth="yes"/>
      <point x="294.2" y="305.0"/>
      <point x="275.09999999999997" y="322.5"/>
      <point x="241.39999999999998" y="367.0" type="curve" smooth="yes"/>
      <point x="208.1" y="411.1"/>
      <point x="183.8" y="436.0"/>
      <point x="145.7" y="436.0" type="curve" smooth="yes"/>
      <point x="73.6" y="436.0"/>
      <point x="62.2" y="343.1"/>
    </contour>
  </outline>
</glyph>
<glyph name="multiply" format="2">
  <advance width="465.2"/>
  <unicode hex="00D7"/>
  <outline>
    <contour>
      <point x="79.10000000000001" y="147.9" type="line"/>
      <point x="237.0" y="339.09999999999997" type="line"/>
      <point x="394.9" y="147.9" type="line"/>
      <point x="417.0" y="166.20000000000002" type="line"/>
      <point x="255.6" y="361.2" type="line"/>
      <point x="417.0" y="557.9" type="line"/>
      <point x="395.9" y="575.8" type="line"/>
      <point x="237.0" y="384.0" type="line"/>
      <point x="78.39999999999999" y="575.5" type="line"/>
      <point x="57.3" y="557.6" type="line"/>
      <point x="218.7" y="361.2" type="line"/>
      <point x="57.599999999999994" y="166.5" type="line"/>
    </contour>
  </outline>
</glyph>
<glyph name="divide" format="2">
  <advance width="465.2"/>
  <unicode hex="00F7"/>
  <outline>
    <contour>
      <point x="54.5" y="343.7" type="line"/>
      <point x="410.70000000000005" y="343.7" type="line"/>
      <point x="410.70000000000005" y="371.7" type="line"/>
      <point x="54.5" y="371.7" type="line"/>
    </contour>
    <contour>
      <point x="233.1" y="135.6" type="curve" smooth="yes"/>
      <point x="251.60000000000002" y="135.6"/>
      <point x="265.7" y="144.5"/>
      <point x="265.7" y="173.4" type="curve" smooth="yes"/>
      <point x="265.7" y="204.29999999999998"/>
      <point x="251.60000000000002" y="212.9"/>
      <point x="233.1" y="212.9" type="curve" smooth="yes"/>
      <point x="213.6" y="212.9"/>
      <point x="201.20000000000002" y="204.29999999999998"/>
      <point x="201.20000000000002" y="173.4" type="curve" smooth="yes"/>
      <point x="201.20000000000002" y="144.5"/>
      <point x="213.6" y="135.6"/>
    </contour>
    <contour>
      <point x="233.1" y="504.9" type="curve" smooth="yes"/>
      <point x="251.60000000000002" y="504.9"/>
      <point x="265.7" y="513.8"/>
      <point x="265.7" y="543.0" type="curve" smooth="yes"/>
      <point x="265.7" y="573.6"/>
      <point x="251.60000000000002" y="582.1999999999999"/>
      <point x="233.1" y="582.1999999999999" type="curve" smooth="yes"/>
      <point x="213.6" y="582.1999999999999"/>
      <point x="201.20000000000002" y="573.6"/>
      <point x="201.20000000000002" y="543.0" type="curve" smooth="yes"/>
      <point x="201.20000000000002" y="513.8"/>
      <point x="213.6" y="504.9"/>
    </contour>
  </outline>
</glyph>
<glyph name="danda-deva" format="2">
  <advance width="378.5"/>
  <unicode hex="0964"/>
  <outline>
    <contour>
      <point x="290.0" y="-10.0" type="line"/>
      <point x="293.0" y="-9.0" type="line"/>
      <point x="293.0" y="595.0" type="line"/>
      <point x="273.0" y="612.0" type="line"/>
      <point x="270.0" y="612.0" type="line"/>
      <point x="270.0" y="3.0" type="line"/>
    </contour>
  </outline>
</glyph>
<glyph name="dbldanda-deva" format="2">
  <advance width="499.70000000000005"/>
  <unicode hex="0965"/>
  <outline>
    <contour>
      <point x="411.2" y="-10.0" type="line"/>
      <point x="414.2" y="-9.0" type="line"/>
      <point x="414.2" y="595.0" type="line"/>
      <point x="394.2" y="612.0" type="line"/>
      <point x="391.2" y="612.0" type="line"/>
      <point x="391.2" y="3.0" type="line"/>
    </contour>
    <contour>
      <point x="290.0" y="-10.0" type="line"/>
      <point x="293.0" y="-9.0" type="line"/>
      <point x="293.0" y="595.0" type="line"/>
      <point x="273.0" y="612.0" type="line"/>
      <point x="270.0" y="612.0" type="line"/>
      <point x="270.0" y="3.0" type="line"/>
    </contour>
  </outline>
</glyph>
<glyph name="anji-beng" format="2">
  <advance width="411.79999999999995"/>
  <unicode hex="0980"/>
  <anchor x="222.4" y="602.0" name="top"/>
  <outline>
    <contour>
      <point x="332.1" y="22.0" type="curve" smooth="yes"/>
      <point x="352.0" y="22.0"/>
      <point x="367.3" y="37.0"/>
      <point x="367.3" y="59.0" type="curve" smooth="yes"/>
      <point x="367.3" y="83.3"/>
      <point x="353.4" y="98.0"/>
      <point x="333.5" y="98.0" type="curve" smooth="yes"/>
      <point x="313.3" y="98.0"/>
      <point x="306.0" y="86.0"/>
      <point x="304.0" y="71.0" type="curve"/>
      <point x="314.3" y="69.0" type="line"/>
      <point x="314.3" y="506.0" type="line" smooth="yes"/>
      <point x="314.3" y="576.0"/>
      <point x="283.3" y="626.0"/>
      <point x="215.1" y="626.0" type="curve" smooth="yes"/>
      <point x="129.70000000000002" y="626.0"/>
      <point x="58.900000000000006" y="546.3"/>
      <point x="58.900000000000006" y="437.0" type="curve" smooth="yes"/>
      <point x="58.900000000000006" y="349.0"/>
      <point x="102.5" y="286.0"/>
      <point x="169.7" y="286.0" type="curve" smooth="yes"/>
      <point x="206.8" y="286.0"/>
      <point x="225.6" y="307.70000000000005"/>
      <point x="225.6" y="342.0" type="curve" smooth="yes"/>
      <point x="225.6" y="370.3"/>
      <point x="209.4" y="391.0"/>
      <point x="182.20000000000002" y="391.0" type="curve" smooth="yes"/>
      <point x="157.3" y="391.0"/>
      <point x="140.1" y="371.0"/>
      <point x="140.1" y="344.0" type="curve" smooth="yes"/>
      <point x="140.1" y="324.0"/>
      <point x="147.7" y="310.40000000000003"/>
      <point x="155.20000000000002" y="303.0" type="curve"/>
      <point x="172.0" y="316.40000000000003" type="line"/>
      <point x="165.7" y="313.40000000000003"/>
      <point x="160.1" y="312.40000000000003"/>
      <point x="154.8" y="312.40000000000003" type="curve" smooth="yes"/>
      <point x="118.3" y="312.40000000000003"/>
      <point x="82.19999999999999" y="357.4"/>
      <point x="82.19999999999999" y="428.0" type="curve" smooth="yes"/>
      <point x="82.19999999999999" y="535.3000000000001"/>
      <point x="148.8" y="602.0"/>
      <point x="221.1" y="602.0" type="curve" smooth="yes"/>
      <point x="267.8" y="602.0"/>
      <point x="292.0" y="567.0"/>
      <point x="292.0" y="500.0" type="curve" smooth="yes"/>
      <point x="292.0" y="68.9" type="line" smooth="yes"/>
      <point x="292.0" y="39.300000000000004"/>
      <point x="309.0" y="22.0"/>
    </contour>
  </outline>
</glyph>
<glyph name="candrabindu-beng" format="2">
  <unicode hex="0981"/>
  <anchor x="0.0" y="622.0" name="_top"/>
  <outline>
    <contour>
      <point x="-12.1" y="736.0" type="curve" smooth="yes"/>
      <point x="53.2" y="736.0"/>
      <point x="82.19999999999999" y="787.8"/>
      <point x="91.3" y="867.0" type="curve"/>
      <point x="74.30000000000001" y="873.3" type="line"/>
      <point x="62.699999999999996" y="791.9"/>
      <point x="36.2" y="758.0"/>
      <point x="-11.100000000000001" y="758.0" type="curve" smooth="yes"/>
      <point x="-58.800000000000004" y="758.0"/>
      <point x="-88.0" y="794.0"/>
      <point x="-105.4" y="873.3" type="curve"/>
      <point x="-122.4" y="867.0" type="line"/>
      <point x="-107.9" y="787.8"/>
      <point x="-72.3" y="736.0"/>
    </contour>
    <contour>
      <point x="-12.2" y="835.0" type="curve" smooth="yes"/>
      <point x="6.1000000000000005" y="835.0"/>
      <point x="20.3" y="849.1"/>
      <point x="20.3" y="871.7" type="curve" smooth="yes"/>
      <point x="20.3" y="894.0"/>
      <point x="6.4" y="908.0"/>
      <point x="-12.2" y="908.0" type="curve" smooth="yes"/>
      <point x="-32.099999999999994" y="908.0"/>
      <point x="-45.6" y="894.3000000000001"/>
      <point x="-45.6" y="871.7" type="curve" smooth="yes"/>
      <point x="-45.6" y="849.1"/>
      <point x="-31.8" y="835.0"/>
    </contour>
  </outline>
</glyph>
<glyph name="anusvara-beng" format="2">
  <advance width="325.59999999999997"/>
  <unicode hex="0982"/>
  <anchor x="-150.4" y="0.0" name="vedic"/>
  <outline>
    <contour>
      <point x="159.70000000000002" y="380.0" type="curve" smooth="yes"/>
      <point x="218.3" y="380.0"/>
      <point x="260.2" y="433.0"/>
      <point x="260.2" y="511.8" type="curve" smooth="yes"/>
      <point x="260.2" y="578.7"/>
      <point x="228.5" y="628.0"/>
      <point x="167.7" y="628.0" type="curve" smooth="yes"/>
      <point x="107.3" y="628.0"/>
      <point x="66.10000000000001" y="574.0"/>
      <point x="66.10000000000001" y="500.0" type="curve" smooth="yes"/>
      <point x="66.10000000000001" y="432.7"/>
      <point x="99.0" y="380.0"/>
    </contour>
    <contour>
      <point x="155.2" y="404.0" type="curve" smooth="yes"/>
      <point x="115.7" y="404.0"/>
      <point x="89.4" y="441.0"/>
      <point x="89.4" y="494.0" type="curve" smooth="yes"/>
      <point x="89.4" y="552.3"/>
      <point x="120.9" y="604.0"/>
      <point x="171.1" y="604.0" type="curve" smooth="yes"/>
      <point x="210.3" y="604.0"/>
      <point x="238.3" y="570.6999999999999"/>
      <point x="238.3" y="516.7" type="curve" smooth="yes"/>
      <point x="238.3" y="455.7"/>
      <point x="205.70000000000002" y="404.0"/>
    </contour>
    <contour>
      <point x="269.4" y="-24.0" type="curve"/>
      <point x="284.59999999999997" y="-14.0" type="line"/>
      <point x="239.8" y="105.0"/>
      <point x="165.1" y="203.3"/>
      <point x="87.7" y="278.0" type="curve"/>
      <point x="69.7" y="253.0" type="line"/>
      <point x="149.39999999999998" y="191.0"/>
      <point x="225.7" y="72.9"/>
    </contour>
  </outline>
</glyph>
<glyph name="visarga-beng" format="2">
  <advance width="326.90000000000003"/>
  <unicode hex="0983"/>
  <anchor x="-150.4" y="0.0" name="vedic"/>
  <outline>
    <contour>
      <point x="159.70000000000002" y="379.1" type="curve" smooth="yes"/>
      <point x="218.60000000000002" y="379.1"/>
      <point x="260.8" y="432.09999999999997"/>
      <point x="260.8" y="510.9" type="curve" smooth="yes"/>
      <point x="260.8" y="577.5"/>
      <point x="228.5" y="626.8"/>
      <point x="168.0" y="626.8" type="curve" smooth="yes"/>
      <point x="107.3" y="626.8"/>
      <point x="66.10000000000001" y="572.8"/>
      <point x="66.10000000000001" y="499.1" type="curve" smooth="yes"/>
      <point x="66.10000000000001" y="431.79999999999995"/>
      <point x="99.6" y="379.1"/>
    </contour>
    <contour>
      <point x="155.2" y="403.1" type="curve" smooth="yes"/>
      <point x="115.7" y="403.1"/>
      <point x="89.7" y="440.1"/>
      <point x="89.7" y="493.1" type="curve" smooth="yes"/>
      <point x="89.7" y="551.4"/>
      <point x="120.9" y="603.1"/>
      <point x="171.4" y="603.1" type="curve" smooth="yes"/>
      <point x="210.6" y="603.1"/>
      <point x="238.6" y="569.5"/>
      <point x="238.6" y="515.5" type="curve" smooth="yes"/>
      <point x="238.6" y="454.8"/>
      <point x="206.0" y="403.1"/>
    </contour>
    <contour>
      <point x="159.70000000000002" y="3.6999999999999997" type="curve" smooth="yes"/>
      <point x="218.60000000000002" y="3.6999999999999997"/>
      <point x="260.8" y="56.7"/>
      <point x="260.8" y="135.5" type="curve" smooth="yes"/>
      <point x="260.8" y="202.10000000000002"/>
      <point x="228.5" y="251.4"/>
      <point x="168.0" y="251.4" type="curve" smooth="yes"/>
      <point x="107.3" y="251.4"/>
      <point x="66.10000000000001" y="197.4"/>
      <point x="66.10000000000001" y="123.7" type="curve" smooth="yes"/>
      <point x="66.10000000000001" y="56.400000000000006"/>
      <point x="99.6" y="3.6999999999999997"/>
    </contour>
    <contour>
      <point x="155.2" y="27.7" type="curve" smooth="yes"/>
      <point x="115.7" y="27.7"/>
      <point x="89.7" y="64.7"/>
      <point x="89.7" y="117.7" type="curve" smooth="yes"/>
      <point x="89.7" y="176.0"/>
      <point x="120.9" y="227.7"/>
      <point x="171.4" y="227.7" type="curve" smooth="yes"/>
      <point x="210.6" y="227.7"/>
      <point x="238.6" y="194.10000000000002"/>
      <point x="238.6" y="140.10000000000002" type="curve" smooth="yes"/>
      <point x="238.6" y="79.4"/>
      <point x="206.0" y="27.7"/>
    </contour>
  </outline>
</glyph>
<glyph name="aa-beng" format="2">
  <advance width="779.7"/>
  <unicode hex="0986"/>
  <anchor x="528.0" y="-13.0" name="bottom"/>
  <anchor x="530.3" y="50.0" name="bottom.rakaar"/>
  <anchor x="530.3" y="6.0" name="bottom.rvocalic"/>
  <anchor x="521.7" y="0.0" name="bottom.virama"/>
  <anchor x="699.1999999999999" y="602.0" name="top"/>
  <anchor x="699.1999999999999" y="544.0" name="topright"/>
  <anchor x="389.7" y="0.0" name="vedic"/>
  <outline>
    <contour>
      <point x="527.3" y="-3.0" type="line"/>
      <point x="530.3000000000001" y="-2.0" type="line"/>
      <point x="530.3000000000001" y="602.0" type="line"/>
      <point x="621.7" y="602.0" type="line"/>
      <point x="609.0999999999999" y="622.0" type="line"/>
      <point x="-16.2" y="622.0" type="line"/>
      <point x="-3.6000000000000005" y="602.0" type="line"/>
      <point x="508.00000000000006" y="602.0" type="line"/>
      <point x="508.00000000000006" y="50.0" type="line"/>
      <point x="517.4" y="44.4" type="line"/>
      <point x="497.09999999999997" y="114.60000000000001"/>
      <point x="455.20000000000005" y="176.8"/>
      <point x="403.7" y="228.29999999999998" type="curve"/>
      <point x="395.0" y="204.6" type="line"/>
      <point x="447.09999999999997" y="153.1"/>
      <point x="487.1" y="88.30000000000001"/>
      <point x="513.0" y="10.3" type="curve"/>
    </contour>
    <contour>
      <point x="287.70000000000005" y="133.0" type="curve" smooth="yes"/>
      <point x="368.9" y="133.0"/>
      <point x="426.4" y="187.0"/>
      <point x="429.0" y="309.5" type="curve" smooth="yes"/>
      <point x="432.3" y="441.7"/>
      <point x="367.3" y="513.8"/>
      <point x="279.8" y="512.3" type="curve" smooth="yes"/>
      <point x="225.4" y="511.4"/>
      <point x="198.60000000000002" y="485.7"/>
      <point x="198.60000000000002" y="447.7" type="curve" smooth="yes"/>
      <point x="198.60000000000002" y="415.1"/>
      <point x="218.8" y="392.8"/>
      <point x="248.99999999999997" y="392.8" type="curve" smooth="yes"/>
      <point x="282.2" y="392.8"/>
      <point x="299.8" y="420.8"/>
      <point x="299.8" y="456.1" type="curve" smooth="yes"/>
      <point x="299.8" y="531.9"/>
      <point x="259.09999999999997" y="580.5"/>
      <point x="230.20000000000002" y="605.0" type="curve"/>
      <point x="192.0" y="605.0" type="line"/>
      <point x="246.6" y="572.1"/>
      <point x="272.90000000000003" y="527.3"/>
      <point x="279.2" y="483.3" type="curve"/>
      <point x="285.2" y="485.3"/>
      <point x="291.6" y="486.3"/>
      <point x="298.2" y="486.3" type="curve" smooth="yes"/>
      <point x="349.7" y="486.3"/>
      <point x="409.09999999999997" y="435.3"/>
      <point x="409.09999999999997" y="322.0" type="curve" smooth="yes"/>
      <point x="409.09999999999997" y="216.0"/>
      <point x="362.7" y="159.0"/>
      <point x="283.70000000000005" y="159.0" type="curve" smooth="yes"/>
      <point x="191.1" y="159.0"/>
      <point x="107.9" y="251.3"/>
      <point x="55.0" y="512.5" type="curve"/>
      <point x="36.0" y="508.20000000000005" type="line"/>
      <point x="91.4" y="221.0"/>
      <point x="185.0" y="133.0"/>
    </contour>
    <contour>
      <point x="695.5" y="-10.0" type="line"/>
      <point x="698.5" y="-9.0" type="line"/>
      <point x="698.5" y="602.0" type="line"/>
      <point x="795.9" y="602.0" type="line"/>
      <point x="783.3" y="622.0" type="line"/>
      <point x="698.5" y="622.0" type="line"/>
      <point x="696.2" y="661.0" type="line"/>
      <point x="679.5" y="674.0" type="line"/>
      <point x="676.1999999999999" y="673.0" type="line"/>
      <point x="676.1999999999999" y="618.0" type="line" smooth="yes"/>
      <point x="676.1999999999999" y="602.8000000000001"/>
      <point x="677.2" y="579.1"/>
      <point x="678.5" y="547.9" type="curve"/>
      <point x="684.1" y="547.3" type="line"/>
      <point x="675.3000000000001" y="612.0999999999999"/>
      <point x="644.2" y="622.0"/>
      <point x="619.9" y="622.0" type="curve" smooth="yes"/>
      <point x="578.8" y="622.0" type="line"/>
      <point x="591.4" y="602.0" type="line"/>
      <point x="615.3000000000001" y="602.0" type="line" smooth="yes"/>
      <point x="650.1999999999999" y="602.0"/>
      <point x="670.6" y="578.0"/>
      <point x="676.1999999999999" y="514.0" type="curve"/>
      <point x="676.1999999999999" y="3.0" type="line"/>
    </contour>
  </outline>
</glyph>
<glyph name="i-beng" format="2">
  <advance width="377.09999999999997"/>
  <unicode hex="0987"/>
  <anchor x="271.4" y="74.0" name="bottom"/>
  <anchor x="383.4" y="-100.0" name="bottom.rakaar"/>
  <anchor x="307.4" y="100.0" name="bottom.rvocalic"/>
  <anchor x="237.4" y="90.0" name="bottom.virama"/>
  <anchor x="268.4" y="626.0" name="top"/>
  <anchor x="208.39999999999998" y="636.0" name="topright"/>
  <anchor x="188.4" y="0.0" name="vedic"/>
  <outline>
    <contour>
      <point x="299.4" y="618.0" type="curve"/>
      <point x="318.40000000000003" y="618.0" type="line"/>
      <point x="312.4" y="724.1999999999999"/>
      <point x="283.0" y="768.3"/>
      <point x="215.9" y="768.3" type="curve" smooth="yes"/>
      <point x="172.0" y="768.3"/>
      <point x="140.10000000000002" y="756.0"/>
      <point x="90.5" y="756.0" type="curve" smooth="yes"/>
      <point x="34.4" y="756.0"/>
      <point x="8.399999999999999" y="783.6999999999999"/>
      <point x="8.399999999999999" y="861.0" type="curve" smooth="yes"/>
      <point x="8.399999999999999" y="872.0"/>
      <point x="9.399999999999999" y="887.0999999999999"/>
      <point x="10.700000000000003" y="898.0" type="curve"/>
      <point x="-7.299999999999999" y="900.0" type="line"/>
      <point x="-8.6" y="887.9"/>
      <point x="-9.9" y="870.3"/>
      <point x="-9.9" y="856.0" type="curve" smooth="yes"/>
      <point x="-9.9" y="767.6999999999999"/>
      <point x="27.7" y="734.4"/>
      <point x="90.5" y="734.4" type="curve" smooth="yes"/>
      <point x="142.5" y="734.4"/>
      <point x="166.8" y="746.6999999999999"/>
      <point x="218.4" y="746.6999999999999" type="curve" smooth="yes"/>
      <point x="279.7" y="746.6999999999999"/>
      <point x="294.40000000000003" y="695.8000000000001"/>
    </contour>
    <component base="ha-beng" xOffset="1.4"/>
  </outline>
</glyph>
<glyph name="ii-beng" format="2">
  <advance width="481.8"/>
  <unicode hex="0988"/>
  <anchor x="418.3" y="-32.0" name="bottom"/>
  <anchor x="418.3" y="70.0" name="bottom.rakaar"/>
  <anchor x="407.7" y="13.0" name="bottom.rvocalic"/>
  <anchor x="413.29999999999995" y="0.0" name="bottom.virama"/>
  <anchor x="272.5" y="626.0" name="top"/>
  <anchor x="235.6" y="636.0" name="topright"/>
  <anchor x="240.40000000000003" y="0.0" name="vedic"/>
  <outline>
    <contour>
      <point x="401.3" y="2.0" type="curve"/>
      <point x="419.0" y="9.0" type="line"/>
      <point x="401.3" y="74.7"/>
      <point x="386.0" y="133.4"/>
      <point x="386.0" y="231.79999999999998" type="curve" smooth="yes"/>
      <point x="386.0" y="328.79999999999995"/>
      <point x="404.5" y="405.5"/>
      <point x="426.4" y="446.6" type="curve"/>
      <point x="399.7" y="477.0" type="line"/>
      <point x="359.8" y="456.09999999999997"/>
      <point x="293.2" y="381.9"/>
      <point x="252.0" y="284.90000000000003" type="curve"/>
      <point x="258.3" y="281.3" type="line"/>
      <point x="262.40000000000003" y="298.3"/>
      <point x="269.5" y="324.5"/>
      <point x="269.5" y="358.7" type="curve" smooth="yes"/>
      <point x="269.5" y="461.4"/>
      <point x="215.8" y="509.0"/>
      <point x="137.3" y="509.0" type="curve" smooth="yes"/>
      <point x="89.7" y="509.0"/>
      <point x="62.3" y="486.0"/>
      <point x="62.599999999999994" y="447.0" type="curve" smooth="yes"/>
      <point x="62.89999999999999" y="416.0"/>
      <point x="81.1" y="400.0"/>
      <point x="105.6" y="400.0" type="curve" smooth="yes"/>
      <point x="136.70000000000002" y="400.0"/>
      <point x="153.0" y="429.0"/>
      <point x="153.0" y="465.0" type="curve" smooth="yes"/>
      <point x="153.0" y="508.0"/>
      <point x="129.5" y="565.4"/>
      <point x="83.5" y="606.0" type="curve"/>
      <point x="45.7" y="606.0" type="line"/>
      <point x="90.10000000000001" y="578.0"/>
      <point x="118.79999999999998" y="540.0"/>
      <point x="131.0" y="486.0" type="curve"/>
      <point x="116.0" y="469.3" type="line"/>
      <point x="129.6" y="478.3"/>
      <point x="142.2" y="483.3"/>
      <point x="159.10000000000002" y="483.3" type="curve" smooth="yes"/>
      <point x="210.8" y="483.3"/>
      <point x="249.2" y="437.6"/>
      <point x="249.2" y="356.0" type="curve" smooth="yes"/>
      <point x="249.2" y="311.7"/>
      <point x="243.60000000000002" y="274.7"/>
      <point x="227.5" y="241.0" type="curve" smooth="yes"/>
      <point x="210.1" y="205.0"/>
      <point x="185.2" y="175.4"/>
      <point x="154.3" y="175.4" type="curve" smooth="yes"/>
      <point x="113.8" y="175.4"/>
      <point x="85.10000000000001" y="233.6"/>
      <point x="69.3" y="269.3" type="curve"/>
      <point x="52.599999999999994" y="260.6" type="line"/>
      <point x="72.39999999999999" y="212.9"/>
      <point x="104.0" y="150.1"/>
      <point x="156.89999999999998" y="150.1" type="curve" smooth="yes"/>
      <point x="209.9" y="150.1"/>
      <point x="235.59999999999997" y="203.1"/>
      <point x="266.8" y="266.40000000000003" type="curve" smooth="yes"/>
      <point x="298.7" y="329.2"/>
      <point x="349.4" y="411.7"/>
      <point x="408.7" y="452.0" type="curve"/>
      <point x="403.0" y="454.8" type="line"/>
      <point x="382.20000000000005" y="424.8"/>
      <point x="363.4" y="330.70000000000005"/>
      <point x="363.4" y="239.8" type="curve" smooth="yes"/>
      <point x="363.4" y="152.7"/>
      <point x="378.3" y="78.5"/>
    </contour>
    <contour>
      <point x="-3.6000000000000005" y="602.0" type="line"/>
      <point x="498.00000000000006" y="602.0" type="line"/>
      <point x="485.40000000000003" y="622.0" type="line"/>
      <point x="-16.2" y="622.0" type="line"/>
    </contour>
    <contour>
      <point x="374.7" y="618.0" type="curve"/>
      <point x="393.7" y="618.0" type="line"/>
      <point x="386.5" y="723.5"/>
      <point x="352.59999999999997" y="769.0"/>
      <point x="281.7" y="769.0" type="curve" smooth="yes"/>
      <point x="230.1" y="769.0"/>
      <point x="204.29999999999998" y="755.0"/>
      <point x="150.8" y="755.0" type="curve" smooth="yes"/>
      <point x="90.0" y="755.0"/>
      <point x="60.400000000000006" y="783.0"/>
      <point x="60.400000000000006" y="861.0" type="curve" smooth="yes"/>
      <point x="60.400000000000006" y="872.0"/>
      <point x="61.400000000000006" y="887.1"/>
      <point x="62.7" y="898.0" type="curve"/>
      <point x="44.7" y="900.0" type="line"/>
      <point x="43.099999999999994" y="886.7"/>
      <point x="42.1" y="869.7"/>
      <point x="42.1" y="856.0" type="curve" smooth="yes"/>
      <point x="42.1" y="767.0"/>
      <point x="80.4" y="733.4"/>
      <point x="148.5" y="733.4" type="curve" smooth="yes"/>
      <point x="204.70000000000002" y="733.4"/>
      <point x="226.29999999999998" y="747.4"/>
      <point x="287.0" y="747.4" type="curve" smooth="yes"/>
      <point x="347.90000000000003" y="747.4"/>
      <point x="368.8" y="695.8"/>
    </contour>
  </outline>
</glyph>
<glyph name="u-beng" format="2">
  <advance width="502.4"/>
  <unicode hex="0989"/>
  <anchor x="356.09999999999997" y="40.0" name="bottom"/>
  <anchor x="394.3" y="-26.0" name="bottom.rakaar"/>
  <anchor x="330.79999999999995" y="85.0" name="bottom.rvocalic"/>
  <anchor x="303.0" y="30.0" name="bottom.virama"/>
  <anchor x="255.29999999999998" y="616.7" name="top"/>
  <anchor x="231.7" y="624.4000000000001" name="topright"/>
  <anchor x="251.2" y="0.0" name="vedic"/>
  <anchor x="264.0" y="-12.0" name="nukta"/>
  <outline>
    <contour>
      <point x="397.3" y="618.0" type="curve"/>
      <point x="416.3" y="618.0" type="line"/>
      <point x="409.09999999999997" y="723.5"/>
      <point x="375.8" y="769.0"/>
      <point x="304.3" y="769.0" type="curve" smooth="yes"/>
      <point x="251.8" y="769.0"/>
      <point x="223.9" y="755.0"/>
      <point x="170.4" y="755.0" type="curve" smooth="yes"/>
      <point x="109.6" y="755.0"/>
      <point x="80.0" y="783.0"/>
      <point x="80.0" y="861.0" type="curve" smooth="yes"/>
      <point x="80.0" y="872.0"/>
      <point x="81.0" y="887.1"/>
      <point x="82.30000000000001" y="898.0" type="curve"/>
      <point x="64.3" y="900.0" type="line"/>
      <point x="62.699999999999996" y="886.7"/>
      <point x="61.699999999999996" y="869.6999999999999"/>
      <point x="61.699999999999996" y="856.0" type="curve" smooth="yes"/>
      <point x="61.699999999999996" y="767.0"/>
      <point x="100.0" y="733.4"/>
      <point x="168.10000000000002" y="733.4" type="curve" smooth="yes"/>
      <point x="224.3" y="733.4"/>
      <point x="248.00000000000003" y="747.4"/>
      <point x="309.6" y="747.4" type="curve" smooth="yes"/>
      <point x="371.1" y="747.4"/>
      <point x="391.40000000000003" y="695.8"/>
    </contour>
    <component base="dda-beng"/>
  </outline>
</glyph>
<glyph name="uu-beng" format="2">
  <advance width="545.3"/>
  <unicode hex="098A"/>
  <anchor x="404.20000000000005" y="40.0" name="bottom"/>
  <anchor x="442.40000000000003" y="-26.0" name="bottom.rakaar"/>
  <anchor x="378.20000000000005" y="85.0" name="bottom.rvocalic"/>
  <anchor x="350.40000000000003" y="30.0" name="bottom.virama"/>
  <anchor x="305.7" y="623.0" name="top"/>
  <anchor x="283.6" y="636.0" name="topright"/>
  <anchor x="272.5" y="0.0" name="vedic"/>
  <outline>
    <contour>
      <point x="337.29999999999995" y="84.0" type="curve" smooth="yes"/>
      <point x="444.7" y="84.0"/>
      <point x="501.20000000000005" y="157.79999999999998"/>
      <point x="501.20000000000005" y="279.7" type="curve" smooth="yes"/>
      <point x="501.20000000000005" y="360.1"/>
      <point x="474.5" y="413.0"/>
      <point x="447.2" y="443.0" type="curve"/>
      <point x="411.90000000000003" y="378.90000000000003"/>
      <point x="360.4" y="322.0"/>
      <point x="315.5" y="322.0" type="curve" smooth="yes"/>
      <point x="288.6" y="322.0"/>
      <point x="275.8" y="339.3"/>
      <point x="275.8" y="366.90000000000003" type="curve" smooth="yes"/>
      <point x="275.8" y="602.0" type="line"/>
      <point x="561.5" y="602.0" type="line"/>
      <point x="548.2" y="622.0" type="line"/>
      <point x="-16.2" y="622.0" type="line"/>
      <point x="-3.6000000000000005" y="602.0" type="line"/>
      <point x="253.5" y="602.0" type="line"/>
      <point x="253.5" y="365.0" type="line" smooth="yes"/>
      <point x="253.5" y="335.0"/>
      <point x="264.4" y="319.0"/>
      <point x="277.3" y="310.0" type="curve" smooth="yes"/>
      <point x="289.5" y="301.0"/>
      <point x="302.4" y="298.0"/>
      <point x="317.59999999999997" y="298.0" type="curve" smooth="yes"/>
      <point x="362.9" y="298.0"/>
      <point x="413.1" y="337.1"/>
      <point x="457.3" y="412.0" type="curve"/>
      <point x="442.3" y="413.3" type="line"/>
      <point x="460.59999999999997" y="391.7"/>
      <point x="479.2" y="351.6"/>
      <point x="479.2" y="284.59999999999997" type="curve" smooth="yes"/>
      <point x="479.2" y="164.3"/>
      <point x="424.8" y="109.30000000000001"/>
      <point x="339.0" y="109.3" type="curve" smooth="yes"/>
      <point x="220.7" y="109.3"/>
      <point x="165.79999999999998" y="282.0"/>
      <point x="126.30000000000001" y="498.3" type="curve"/>
      <point x="108.0" y="494.0" type="line"/>
      <point x="136.0" y="328.8"/>
      <point x="172.89999999999998" y="188.0"/>
      <point x="256.1" y="108.0" type="curve"/>
      <point x="271.3" y="117.0" type="line"/>
      <point x="161.79999999999998" y="143.0"/>
      <point x="89.7" y="277.3"/>
      <point x="46.6" y="498.3" type="curve"/>
      <point x="28.300000000000004" y="494.0" type="line"/>
      <point x="78.1" y="230.0"/>
      <point x="164.5" y="84.0"/>
    </contour>
    <contour>
      <point x="449.3" y="618.0" type="curve"/>
      <point x="468.3" y="618.0" type="line"/>
      <point x="461.1" y="723.5"/>
      <point x="411.0" y="769.0"/>
      <point x="335.40000000000003" y="769.0" type="curve" smooth="yes"/>
      <point x="283.1" y="769.0"/>
      <point x="225.10000000000002" y="753.1999999999999"/>
      <point x="167.4" y="753.1999999999999" type="curve" smooth="yes"/>
      <point x="104.5" y="753.1999999999999"/>
      <point x="66.3" y="783.0"/>
      <point x="66.3" y="861.0" type="curve" smooth="yes"/>
      <point x="66.3" y="872.0"/>
      <point x="67.3" y="887.1"/>
      <point x="68.60000000000001" y="898.0" type="curve"/>
      <point x="50.6" y="900.0" type="line"/>
      <point x="49.0" y="886.7"/>
      <point x="48.0" y="869.6999999999999"/>
      <point x="48.0" y="856.0" type="curve" smooth="yes"/>
      <point x="48.0" y="767.0"/>
      <point x="94.9" y="731.6"/>
      <point x="165.1" y="731.6" type="curve" smooth="yes"/>
      <point x="225.8" y="731.6"/>
      <point x="279.3" y="747.4000000000001"/>
      <point x="339.5" y="747.4000000000001" type="curve" smooth="yes"/>
      <point x="405.4" y="747.4000000000001"/>
      <point x="443.40000000000003" y="695.8"/>
    </contour>
  </outline>
</glyph>
<glyph name="rVocalic-beng" format="2">
  <advance width="533.8"/>
  <unicode hex="098B"/>
  <anchor x="338.0" y="-13.0" name="bottom"/>
  <anchor x="340.3" y="50.0" name="bottom.rakaar"/>
  <anchor x="268.6" y="148.1" name="bottom.rvocalic"/>
  <anchor x="331.0" y="0.0" name="bottom.virama"/>
  <anchor x="340.3" y="602.0" name="top"/>
  <anchor x="342.6" y="602.0" name="topright"/>
  <anchor x="266.9" y="0.0" name="vedic"/>
  <outline>
    <contour>
      <point x="338.7" y="-3.0" type="line"/>
      <point x="341.7" y="-2.0" type="line"/>
      <point x="341.7" y="638.0" type="line"/>
      <point x="322.7" y="654.0" type="line"/>
      <point x="319.40000000000003" y="653.0" type="line"/>
      <point x="319.40000000000003" y="496.29999999999995" type="line"/>
      <point x="327.3" y="510.59999999999997" type="line"/>
      <point x="230.6" y="470.59999999999997"/>
      <point x="127.4" y="404.59999999999997"/>
      <point x="40.7" y="331.7" type="curve"/>
      <point x="56.800000000000004" y="303.0" type="line"/>
      <point x="168.5" y="252.6"/>
      <point x="273.5" y="148.1"/>
      <point x="324.4" y="10.3" type="curve"/>
    </contour>
    <contour>
      <point x="319.40000000000003" y="47.0" type="line"/>
      <point x="328.8" y="44.4" type="line"/>
      <point x="286.4" y="167.3"/>
      <point x="173.7" y="274.40000000000003"/>
      <point x="67.69999999999999" y="327.40000000000003" type="curve"/>
      <point x="66.3" y="318.0" type="line"/>
      <point x="154.1" y="395.8"/>
      <point x="259.0" y="454.3"/>
      <point x="325.3" y="482.20000000000005" type="curve"/>
      <point x="319.40000000000003" y="493.3" type="line"/>
    </contour>
    <contour>
      <point x="65.5" y="481.09999999999997" type="curve" smooth="yes"/>
      <point x="125.70000000000002" y="481.09999999999997"/>
      <point x="194.6" y="525.4"/>
      <point x="224.3" y="599.0" type="curve"/>
      <point x="209.5" y="594.0" type="line"/>
      <point x="231.6" y="576.0"/>
      <point x="257.3" y="536.2"/>
      <point x="286.09999999999997" y="481.1" type="curve"/>
      <point x="302.1" y="485.9" type="line"/>
      <point x="270.2" y="558.3"/>
      <point x="238.3" y="601.4"/>
      <point x="212.0" y="624.0" type="curve"/>
      <point x="178.6" y="547.4"/>
      <point x="120.30000000000001" y="506.4"/>
      <point x="67.3" y="506.4" type="curve" smooth="yes"/>
      <point x="62.00000000000001" y="506.4"/>
      <point x="55.0" y="507.4"/>
      <point x="51.0" y="509.4" type="curve"/>
      <point x="64.4" y="495.7" type="line"/>
      <point x="74.0" y="506.4"/>
      <point x="77.30000000000001" y="514.7"/>
      <point x="77.30000000000001" y="529.1" type="curve" smooth="yes"/>
      <point x="77.30000000000001" y="550.1"/>
      <point x="65.7" y="566.5"/>
      <point x="42.4" y="566.5" type="curve" smooth="yes"/>
      <point x="20.4" y="566.5"/>
      <point x="5.4" y="550.8000000000001"/>
      <point x="5.4" y="527.1" type="curve" smooth="yes"/>
      <point x="5.4" y="496.59999999999997"/>
      <point x="30.6" y="481.09999999999997"/>
    </contour>
    <contour>
      <point x="449.6" y="97.89999999999999" type="line"/>
      <point x="452.6" y="98.89999999999999" type="line"/>
      <point x="452.6" y="602.0" type="line"/>
      <point x="550.0" y="602.0" type="line"/>
      <point x="537.4" y="622.0" type="line"/>
      <point x="452.6" y="622.0" type="line"/>
      <point x="450.3" y="661.0" type="line"/>
      <point x="433.59999999999997" y="674.0" type="line"/>
      <point x="430.3" y="673.0" type="line"/>
      <point x="430.3" y="147.9" type="line"/>
      <point x="439.7" y="145.3" type="line"/>
      <point x="418.3" y="207.2"/>
      <point x="380.5" y="267.8"/>
      <point x="335.1" y="315.7" type="curve"/>
      <point x="331.59999999999997" y="286.4" type="line"/>
      <point x="374.90000000000003" y="238.9"/>
      <point x="411.20000000000005" y="178.1"/>
      <point x="435.29999999999995" y="111.2" type="curve"/>
    </contour>
  </outline>
</glyph>
<glyph name="lVocalic-beng" format="2">
  <advance width="397.0"/>
  <unicode hex="098C"/>
  <anchor x="274.8" y="602.0" name="top"/>
  <anchor x="198.0" y="0.0" name="vedic"/>
  <outline>
    <contour>
      <point x="237.4" y="53.0" type="line"/>
      <point x="297.7" y="71.0"/>
      <point x="364.8" y="137.9"/>
      <point x="364.8" y="264.3" type="curve" smooth="yes"/>
      <point x="364.8" y="389.9"/>
      <point x="298.20000000000005" y="422.7"/>
      <point x="218.2" y="448.5" type="curve" smooth="yes"/>
      <point x="148.5" y="470.7"/>
      <point x="89.6" y="491.7"/>
      <point x="89.6" y="585.9000000000001" type="curve" smooth="yes"/>
      <point x="89.6" y="628.0"/>
      <point x="100.89999999999999" y="656.0"/>
      <point x="111.19999999999999" y="681.0" type="curve"/>
      <point x="93.5" y="689.0" type="line"/>
      <point x="78.3" y="655.0"/>
      <point x="69.60000000000001" y="619.6999999999999"/>
      <point x="69.60000000000001" y="586.0" type="curve" smooth="yes"/>
      <point x="69.60000000000001" y="477.70000000000005"/>
      <point x="131.1" y="453.0"/>
      <point x="205.8" y="429.6" type="curve" smooth="yes"/>
      <point x="283.6" y="404.8"/>
      <point x="344.20000000000005" y="380.1"/>
      <point x="344.20000000000005" y="259.59999999999997" type="curve" smooth="yes"/>
      <point x="344.20000000000005" y="159.6"/>
      <point x="293.3" y="95.0"/>
      <point x="248.4" y="82.0" type="curve"/>
      <point x="259.29999999999995" y="77.0" type="line"/>
      <point x="266.2" y="201.0"/>
      <point x="238.40000000000003" y="280.0"/>
      <point x="156.5" y="280.0" type="curve" smooth="yes"/>
      <point x="94.7" y="280.0"/>
      <point x="64.0" y="226.7"/>
      <point x="64.0" y="172.4" type="curve" smooth="yes"/>
      <point x="64.0" y="109.0"/>
      <point x="96.2" y="73.0"/>
      <point x="130.4" y="73.0" type="curve" smooth="yes"/>
      <point x="157.29999999999998" y="73.0"/>
      <point x="169.20000000000002" y="91.7"/>
      <point x="169.20000000000002" y="115.0" type="curve" smooth="yes"/>
      <point x="169.20000000000002" y="139.0"/>
      <point x="153.3" y="155.0"/>
      <point x="133.4" y="155.0" type="curve" smooth="yes"/>
      <point x="113.8" y="155.0"/>
      <point x="99.3" y="139.0"/>
      <point x="100.60000000000001" y="113.6" type="curve"/>
      <point x="111.10000000000001" y="112.6" type="line"/>
      <point x="99.5" y="118.6"/>
      <point x="86.0" y="135.0"/>
      <point x="86.0" y="174.0" type="curve" smooth="yes"/>
      <point x="86.0" y="238.0"/>
      <point x="125.79999999999998" y="258.0"/>
      <point x="156.79999999999998" y="258.0" type="curve" smooth="yes"/>
      <point x="221.5" y="258.0"/>
      <point x="238.7" y="192.0"/>
      <point x="238.7" y="111.0" type="curve" smooth="yes"/>
      <point x="238.7" y="87.8"/>
      <point x="237.1" y="71.8"/>
      <point x="234.4" y="56.0" type="curve"/>
    </contour>
  </outline>
</glyph>
<glyph name="e-beng" format="2">
  <advance width="524.4000000000001"/>
  <unicode hex="098F"/>
  <anchor x="445.7" y="-19.0" name="bottom"/>
  <anchor x="445.7" y="2.0" name="bottom.rvocalic"/>
  <anchor x="436.4" y="0.0" name="bottom.virama"/>
  <anchor x="376.5" y="602.0" name="top"/>
  <anchor x="378.79999999999995" y="602.0" name="topright"/>
  <anchor x="262.2" y="0.0" name="vedic"/>
  <outline>
    <contour>
      <point x="444.1" y="-7.0" type="line"/>
      <point x="447.09999999999997" y="-6.0" type="line"/>
      <point x="447.09999999999997" y="539.8" type="line" smooth="yes"/>
      <point x="447.09999999999997" y="601.6"/>
      <point x="425.5" y="630.3"/>
      <point x="379.90000000000003" y="630.3" type="curve" smooth="yes"/>
      <point x="294.7" y="630.3"/>
      <point x="200.9" y="494.4"/>
      <point x="200.9" y="379.7" type="curve" smooth="yes"/>
      <point x="200.9" y="319.8"/>
      <point x="231.4" y="300.4"/>
      <point x="257.3" y="300.4" type="curve" smooth="yes"/>
      <point x="289.5" y="300.4"/>
      <point x="308.1" y="323.40000000000003"/>
      <point x="308.1" y="353.0" type="curve" smooth="yes"/>
      <point x="308.1" y="386.0"/>
      <point x="288.1" y="403.9"/>
      <point x="261.9" y="403.9" type="curve" smooth="yes"/>
      <point x="243.10000000000002" y="403.9"/>
      <point x="226.20000000000002" y="394.0"/>
      <point x="220.9" y="373.0" type="curve"/>
      <point x="227.1" y="376.4" type="line"/>
      <point x="225.8" y="499.8"/>
      <point x="320.7" y="605.6"/>
      <point x="380.59999999999997" y="605.6" type="curve" smooth="yes"/>
      <point x="413.3" y="605.6"/>
      <point x="424.8" y="586.4"/>
      <point x="424.8" y="528.0" type="curve" smooth="yes"/>
      <point x="424.8" y="170.0" type="line" smooth="yes"/>
      <point x="424.8" y="135.0"/>
      <point x="424.8" y="88.3"/>
      <point x="426.8" y="55.5" type="curve"/>
      <point x="400.2" y="112.7"/>
      <point x="360.2" y="125.19999999999999"/>
      <point x="323.6" y="125.19999999999999" type="curve" smooth="yes"/>
      <point x="276.8" y="125.19999999999999"/>
      <point x="239.1" y="108.69999999999999"/>
      <point x="181.8" y="108.69999999999999" type="curve" smooth="yes"/>
      <point x="108.89999999999999" y="108.69999999999999"/>
      <point x="71.5" y="156.1"/>
      <point x="71.5" y="252.5" type="curve" smooth="yes"/>
      <point x="71.5" y="291.1"/>
      <point x="77.8" y="322.0"/>
      <point x="83.80000000000001" y="344.3" type="curve"/>
      <point x="64.8" y="349.6" type="line"/>
      <point x="56.8" y="322.59999999999997"/>
      <point x="51.5" y="283.5"/>
      <point x="51.5" y="243.5" type="curve" smooth="yes"/>
      <point x="51.5" y="121.8"/>
      <point x="108.8" y="82.7"/>
      <point x="180.5" y="82.7" type="curve" smooth="yes"/>
      <point x="244.4" y="82.7"/>
      <point x="272.7" y="99.2"/>
      <point x="327.7" y="99.2" type="curve" smooth="yes"/>
      <point x="367.2" y="99.2"/>
      <point x="401.1" y="83.2"/>
      <point x="429.7" y="7.0" type="curve"/>
    </contour>
  </outline>
</glyph>
<glyph name="ai-beng" format="2">
  <advance width="600.7"/>
  <unicode hex="0990"/>
  <anchor x="395.0" y="602.0" name="top"/>
  <anchor x="371.0" y="616.0" name="topright"/>
  <anchor x="300.2" y="0.0" name="vedic"/>
  <anchor x="445.7" y="-19.0" name="bottom"/>
  <anchor x="445.7" y="2.0" name="bottom.rvocalic"/>
  <anchor x="436.4" y="0.0" name="bottom.virama"/>
  <outline>
    <contour>
      <point x="444.79999999999995" y="353.6" type="line"/>
      <point x="498.1" y="413.6"/>
      <point x="534.2" y="476.70000000000005"/>
      <point x="534.2" y="565.0" type="curve" smooth="yes"/>
      <point x="534.2" y="691.0"/>
      <point x="459.5" y="730.0"/>
      <point x="346.90000000000003" y="743.0" type="curve" smooth="yes"/>
      <point x="258.7" y="753.0"/>
      <point x="184.3" y="763.3000000000001"/>
      <point x="184.3" y="863.4" type="curve" smooth="yes"/>
      <point x="184.3" y="897.5"/>
      <point x="193.4" y="923.7"/>
      <point x="202.6" y="944.7" type="curve"/>
      <point x="183.6" y="952.0" type="line"/>
      <point x="173.70000000000002" y="929.0"/>
      <point x="164.29999999999998" y="900.2"/>
      <point x="164.29999999999998" y="861.4000000000001" type="curve" smooth="yes"/>
      <point x="164.29999999999998" y="751.0999999999999"/>
      <point x="236.1" y="729.0"/>
      <point x="339.9" y="720.0" type="curve" smooth="yes"/>
      <point x="438.6" y="711.6999999999999"/>
      <point x="512.1999999999999" y="679.0"/>
      <point x="512.1999999999999" y="567.0" type="curve" smooth="yes"/>
      <point x="512.1999999999999" y="486.7"/>
      <point x="484.8" y="432.70000000000005"/>
      <point x="437.70000000000005" y="378.7" type="curve"/>
    </contour>
    <component base="e-beng"/>
  </outline>
</glyph>
<glyph name="o-beng" format="2">
  <advance width="567.5"/>
  <unicode hex="0993"/>
  <anchor x="416.9" y="41.0" name="bottom"/>
  <anchor x="455.09999999999997" y="-25.0" name="bottom.rakaar"/>
  <anchor x="390.9" y="86.0" name="bottom.rvocalic"/>
  <anchor x="363.1" y="31.0" name="bottom.virama"/>
  <anchor x="358.9" y="602.0" name="top"/>
  <anchor x="357.3" y="602.0" name="topright"/>
  <anchor x="283.4" y="0.0" name="vedic"/>
  <outline>
    <contour>
      <point x="357.90000000000003" y="85.0" type="curve" smooth="yes"/>
      <point x="451.9" y="85.0"/>
      <point x="509.5" y="146.0"/>
      <point x="509.5" y="254.0" type="curve" smooth="yes"/>
      <point x="509.5" y="362.1"/>
      <point x="438.1" y="408.0"/>
      <point x="398.0" y="408.0" type="curve" smooth="yes"/>
      <point x="373.9" y="408.0"/>
      <point x="356.0" y="392.4"/>
      <point x="356.0" y="364.1" type="curve" smooth="yes"/>
      <point x="356.0" y="336.2"/>
      <point x="374.2" y="319.1"/>
      <point x="398.7" y="319.1" type="curve" smooth="yes"/>
      <point x="438.7" y="319.1"/>
      <point x="494.29999999999995" y="383.4"/>
      <point x="494.29999999999995" y="486.0" type="curve" smooth="yes"/>
      <point x="494.29999999999995" y="569.7"/>
      <point x="449.4" y="616.0"/>
      <point x="378.1" y="616.0" type="curve" smooth="yes"/>
      <point x="270.40000000000003" y="616.0"/>
      <point x="187.4" y="506.0"/>
      <point x="187.4" y="421.0" type="curve" smooth="yes"/>
      <point x="187.4" y="377.0"/>
      <point x="208.9" y="357.0"/>
      <point x="234.4" y="357.0" type="curve" smooth="yes"/>
      <point x="259.9" y="357.0"/>
      <point x="276.8" y="375.0"/>
      <point x="276.8" y="405.0" type="curve" smooth="yes"/>
      <point x="276.8" y="431.0"/>
      <point x="261.6" y="451.0"/>
      <point x="236.7" y="451.0" type="curve" smooth="yes"/>
      <point x="223.5" y="451.0"/>
      <point x="208.6" y="444.3"/>
      <point x="199.4" y="416.0" type="curve"/>
      <point x="213.10000000000002" y="409.0" type="line"/>
      <point x="217.39999999999998" y="532.0"/>
      <point x="309.0" y="593.5999999999999"/>
      <point x="380.1" y="593.5999999999999" type="curve" smooth="yes"/>
      <point x="440.7" y="593.5999999999999"/>
      <point x="472.3" y="552.3"/>
      <point x="472.3" y="489.0" type="curve" smooth="yes"/>
      <point x="472.3" y="433.40000000000003"/>
      <point x="452.0" y="389.0"/>
      <point x="423.2" y="374.0" type="curve"/>
      <point x="431.0" y="364.7" type="line"/>
      <point x="459.3" y="363.7"/>
      <point x="487.5" y="317.3"/>
      <point x="487.5" y="256.0" type="curve" smooth="yes"/>
      <point x="487.5" y="153.0"/>
      <point x="430.7" y="110.3"/>
      <point x="359.20000000000005" y="110.3" type="curve" smooth="yes"/>
      <point x="222.8" y="110.3"/>
      <point x="119.5" y="248.0"/>
      <point x="56.9" y="517.0" type="curve"/>
      <point x="37.9" y="512.0" type="line"/>
      <point x="105.39999999999999" y="207.0"/>
      <point x="226.3" y="85.0"/>
    </contour>
  </outline>
</glyph>
<glyph name="au-beng" format="2">
  <advance width="610.0"/>
  <unicode hex="0994"/>
  <anchor x="510.0" y="41.0" name="bottom"/>
  <anchor x="558.0" y="-25.0" name="bottom.rakaar"/>
  <anchor x="477.0" y="86.0" name="bottom.rvocalic"/>
  <anchor x="445.0" y="31.0" name="bottom.virama"/>
  <anchor x="516.0" y="602.0" name="top"/>
  <anchor x="472.0" y="616.0" name="topright"/>
  <anchor x="305.0" y="0.0" name="vedic"/>
  <outline>
    <contour>
      <point x="454.09999999999997" y="353.6" type="line"/>
      <point x="507.40000000000003" y="413.6"/>
      <point x="543.5" y="476.70000000000005"/>
      <point x="543.5" y="564.0999999999999" type="curve" smooth="yes"/>
      <point x="543.5" y="691.0"/>
      <point x="468.79999999999995" y="730.0"/>
      <point x="356.20000000000005" y="743.0" type="curve" smooth="yes"/>
      <point x="268.0" y="753.0"/>
      <point x="193.60000000000002" y="763.3000000000001"/>
      <point x="193.60000000000002" y="863.4" type="curve" smooth="yes"/>
      <point x="193.60000000000002" y="897.5"/>
      <point x="202.7" y="923.7"/>
      <point x="211.9" y="944.7" type="curve"/>
      <point x="192.9" y="952.0" type="line"/>
      <point x="183.0" y="929.0"/>
      <point x="173.6" y="900.2"/>
      <point x="173.6" y="861.4000000000001" type="curve" smooth="yes"/>
      <point x="173.6" y="751.0999999999999"/>
      <point x="245.4" y="729.0"/>
      <point x="349.20000000000005" y="720.0" type="curve" smooth="yes"/>
      <point x="447.90000000000003" y="711.7"/>
      <point x="521.5" y="679.0"/>
      <point x="521.5" y="566.1" type="curve" smooth="yes"/>
      <point x="521.5" y="486.7"/>
      <point x="494.09999999999997" y="432.7"/>
      <point x="447.0" y="378.70000000000005" type="curve"/>
    </contour>
    <component base="o-beng"/>
  </outline>
</glyph>
<glyph name="ka-beng" format="2">
  <advance width="578.6"/>
  <unicode hex="0995"/>
  <anchor x="334.5" y="11.0" name="bottom"/>
  <anchor x="341.7" y="20.0" name="bottom.rakaar"/>
  <anchor x="343.1" y="6.0" name="bottom.rvocalic"/>
  <anchor x="340.3" y="32.0" name="bottom.virama"/>
  <anchor x="172.0" y="95.0" name="nukta"/>
  <anchor x="351.5" y="602.0" name="top"/>
  <anchor x="344.0" y="602.0" name="topright"/>
  <anchor x="289.3" y="0.0" name="vedic"/>
  <outline>
    <contour>
      <point x="340.09999999999997" y="-3.0" type="line"/>
      <point x="343.1" y="-2.0" type="line"/>
      <point x="343.1" y="495.7" type="line"/>
      <point x="331.1" y="485.09999999999997" type="line"/>
      <point x="333.40000000000003" y="486.4"/>
      <point x="337.7" y="487.4"/>
      <point x="343.0" y="487.4" type="curve" smooth="yes"/>
      <point x="416.9" y="487.4"/>
      <point x="514.3" y="415.9"/>
      <point x="514.3" y="302.7" type="curve" smooth="yes"/>
      <point x="514.3" y="280.5"/>
      <point x="509.5" y="270.6"/>
      <point x="502.6" y="261.59999999999997" type="curve"/>
      <point x="510.09999999999997" y="266.6" type="line"/>
      <point x="506.79999999999995" y="291.6"/>
      <point x="490.1" y="305.90000000000003"/>
      <point x="469.6" y="305.90000000000003" type="curve" smooth="yes"/>
      <point x="443.4" y="305.90000000000003"/>
      <point x="428.5" y="287.6"/>
      <point x="428.5" y="261.3" type="curve" smooth="yes"/>
      <point x="428.5" y="231.3"/>
      <point x="448.40000000000003" y="213.3"/>
      <point x="474.7" y="213.3" type="curve" smooth="yes"/>
      <point x="502.6" y="213.3"/>
      <point x="535.6" y="235.89999999999998"/>
      <point x="535.6" y="301.7" type="curve" smooth="yes"/>
      <point x="535.6" y="427.0"/>
      <point x="430.4" y="506.40000000000003"/>
      <point x="335.4" y="514.4" type="curve"/>
      <point x="343.1" y="500.1" type="line"/>
      <point x="343.1" y="602.0" type="line"/>
      <point x="594.8000000000001" y="602.0" type="line"/>
      <point x="581.5" y="622.0" type="line"/>
      <point x="-16.2" y="622.0" type="line"/>
      <point x="-3.6000000000000005" y="602.0" type="line"/>
      <point x="320.8" y="602.0" type="line"/>
      <point x="320.8" y="500.8" type="line"/>
      <point x="328.7" y="515.1" type="line"/>
      <point x="231.8" y="475.09999999999997"/>
      <point x="128.8" y="406.1"/>
      <point x="42.1" y="333.2" type="curve"/>
      <point x="58.199999999999996" y="304.5" type="line"/>
      <point x="169.9" y="254.1"/>
      <point x="274.0" y="149.3"/>
      <point x="325.79999999999995" y="10.3" type="curve"/>
    </contour>
    <contour>
      <point x="320.8" y="47.0" type="line"/>
      <point x="330.2" y="44.4" type="line"/>
      <point x="287.79999999999995" y="167.3"/>
      <point x="175.1" y="276.2"/>
      <point x="69.10000000000001" y="328.90000000000003" type="curve"/>
      <point x="67.7" y="319.5" type="line"/>
      <point x="155.20000000000002" y="397.70000000000005"/>
      <point x="260.1" y="459.4"/>
      <point x="326.7" y="486.7" type="curve"/>
      <point x="320.8" y="497.8" type="line"/>
    </contour>
  </outline>
</glyph>
<glyph name="kha-beng" format="2">
  <advance width="456.7"/>
  <unicode hex="0996"/>
  <anchor x="366.9" y="11.0" name="bottom"/>
  <anchor x="374.1" y="29.0" name="bottom.rakaar"/>
  <anchor x="375.5" y="6.0" name="bottom.rvocalic"/>
  <anchor x="369.7" y="22.4" name="bottom.virama"/>
  <anchor x="375.5" y="562.1" name="top"/>
  <anchor x="380.5" y="566.1" name="topright"/>
  <anchor x="212.4" y="0.0" name="vedic"/>
  <outline>
    <contour>
      <point x="372.5" y="-3.0" type="line"/>
      <point x="375.5" y="-2.0" type="line"/>
      <point x="375.5" y="602.0" type="line"/>
      <point x="472.90000000000003" y="602.0" type="line"/>
      <point x="460.3" y="622.0" type="line"/>
      <point x="375.5" y="622.0" type="line"/>
      <point x="373.2" y="661.0" type="line"/>
      <point x="356.5" y="674.0" type="line"/>
      <point x="353.20000000000005" y="673.0" type="line"/>
      <point x="353.20000000000005" y="47.0" type="line"/>
      <point x="362.59999999999997" y="44.4" type="line"/>
      <point x="320.8" y="169.39999999999998"/>
      <point x="206.0" y="279.20000000000005"/>
      <point x="100.30000000000001" y="320.59999999999997" type="curve"/>
      <point x="108.19999999999999" y="310.0" type="line"/>
      <point x="218.39999999999998" y="330.0"/>
      <point x="270.8" y="389.70000000000005"/>
      <point x="270.8" y="476.0" type="curve" smooth="yes"/>
      <point x="270.8" y="554.5"/>
      <point x="240.8" y="595.3"/>
      <point x="215.3" y="624.0" type="curve"/>
      <point x="181.9" y="548.3000000000001"/>
      <point x="123.60000000000001" y="507.3"/>
      <point x="68.8" y="507.3" type="curve" smooth="yes"/>
      <point x="62.9" y="507.3"/>
      <point x="55.3" y="508.3"/>
      <point x="51.0" y="510.3" type="curve"/>
      <point x="65.30000000000001" y="496.0" type="line"/>
      <point x="75.19999999999999" y="507.0"/>
      <point x="78.5" y="515.3000000000001"/>
      <point x="78.5" y="530.0" type="curve" smooth="yes"/>
      <point x="78.5" y="551.3"/>
      <point x="66.60000000000001" y="568.0"/>
      <point x="43.0" y="568.0" type="curve" smooth="yes"/>
      <point x="20.7" y="568.0"/>
      <point x="5.4" y="552.0"/>
      <point x="5.4" y="528.0" type="curve" smooth="yes"/>
      <point x="5.4" y="497.5"/>
      <point x="30.900000000000002" y="482.0"/>
      <point x="66.1" y="482.0" type="curve" smooth="yes"/>
      <point x="129.3" y="482.0"/>
      <point x="198.2" y="526.0"/>
      <point x="227.60000000000002" y="599.0" type="curve"/>
      <point x="210.8" y="591.9000000000001" type="line"/>
      <point x="228.70000000000002" y="573.9000000000001"/>
      <point x="248.5" y="538.0"/>
      <point x="248.5" y="481.0" type="curve" smooth="yes"/>
      <point x="248.5" y="384.0"/>
      <point x="170.0" y="344.0"/>
      <point x="78.19999999999999" y="333.0" type="curve"/>
      <point x="88.2" y="295.0" type="line"/>
      <point x="200.8" y="257.4"/>
      <point x="307.90000000000003" y="150.20000000000002"/>
      <point x="358.2" y="10.3" type="curve"/>
    </contour>
  </outline>
</glyph>
<glyph name="ga-beng" format="2">
  <advance width="462.1"/>
  <unicode hex="0997"/>
  <anchor x="365.29999999999995" y="60.0" name="bottom"/>
  <anchor x="379.5" y="-17.0" name="bottom.rakaar"/>
  <anchor x="380.9" y="-2.0999999999999996" name="bottom.rvocalic"/>
  <anchor x="374.5" y="5.0" name="bottom.virama"/>
  <anchor x="380.9" y="545.0" name="top"/>
  <anchor x="385.9" y="566.1" name="topright"/>
  <anchor x="230.70000000000002" y="0.0" name="vedic"/>
  <outline>
    <contour>
      <point x="377.9" y="-10.0" type="line"/>
      <point x="380.9" y="-9.0" type="line"/>
      <point x="380.9" y="602.0" type="line"/>
      <point x="478.3" y="602.0" type="line"/>
      <point x="465.7" y="622.0" type="line"/>
      <point x="380.90000000000003" y="622.0" type="line"/>
      <point x="378.59999999999997" y="661.0" type="line"/>
      <point x="361.90000000000003" y="674.0" type="line"/>
      <point x="358.6" y="673.0" type="line"/>
      <point x="358.6" y="559.0" type="line" smooth="yes"/>
      <point x="358.6" y="516.2"/>
      <point x="358.9" y="469.7"/>
      <point x="361.2" y="426.6" type="curve"/>
      <point x="368.6" y="417.0" type="line"/>
      <point x="329.8" y="541.5"/>
      <point x="265.29999999999995" y="631.0"/>
      <point x="179.4" y="631.0" type="curve" smooth="yes"/>
      <point x="102.7" y="631.0"/>
      <point x="49.900000000000006" y="561.0"/>
      <point x="25.900000000000002" y="458.2" type="curve"/>
      <point x="52.3" y="442.09999999999997" type="line"/>
      <point x="79.0" y="465.6"/>
      <point x="107.2" y="482.09999999999997"/>
      <point x="144.3" y="482.09999999999997" type="curve" smooth="yes"/>
      <point x="187.3" y="482.09999999999997"/>
      <point x="208.3" y="449.6"/>
      <point x="208.3" y="410.79999999999995" type="curve" smooth="yes"/>
      <point x="208.3" y="354.3"/>
      <point x="181.4" y="307.2"/>
      <point x="121.4" y="265.6" type="curve"/>
      <point x="141.0" y="242.0" type="line"/>
      <point x="189.9" y="281.59999999999997"/>
      <point x="231.6" y="332.7"/>
      <point x="231.6" y="406.40000000000003" type="curve" smooth="yes"/>
      <point x="231.6" y="468.20000000000005"/>
      <point x="197.0" y="506.4"/>
      <point x="144.2" y="506.4" type="curve" smooth="yes"/>
      <point x="105.8" y="506.4"/>
      <point x="71.69999999999999" y="489.0"/>
      <point x="47.099999999999994" y="462.7" type="curve"/>
      <point x="54.5" y="457.0" type="line"/>
      <point x="77.0" y="560.0"/>
      <point x="127.30000000000001" y="607.6999999999999"/>
      <point x="183.79999999999998" y="607.6999999999999" type="curve" smooth="yes"/>
      <point x="255.99999999999997" y="607.6999999999999"/>
      <point x="318.90000000000003" y="520.6"/>
      <point x="363.7" y="374.0" type="curve"/>
      <point x="358.6" y="415.3" type="line"/>
      <point x="358.6" y="3.0" type="line"/>
    </contour>
  </outline>
</glyph>
<glyph name="gha-beng" format="2">
  <advance width="424.3"/>
  <unicode hex="0998"/>
  <anchor x="334.5" y="11.0" name="bottom"/>
  <anchor x="341.7" y="29.0" name="bottom.rakaar"/>
  <anchor x="343.1" y="6.0" name="bottom.rvocalic"/>
  <anchor x="337.3" y="22.4" name="bottom.virama"/>
  <anchor x="347.3" y="602.0" name="top"/>
  <anchor x="344.0" y="602.0" name="topright"/>
  <anchor x="212.0" y="0.0" name="vedic"/>
  <outline>
    <contour>
      <point x="340.09999999999997" y="-3.0" type="line"/>
      <point x="343.1" y="-2.0" type="line"/>
      <point x="343.1" y="602.0" type="line"/>
      <point x="440.5" y="602.0" type="line"/>
      <point x="427.9" y="622.0" type="line"/>
      <point x="-16.2" y="622.0" type="line"/>
      <point x="-3.6000000000000005" y="602.0" type="line"/>
      <point x="320.8" y="602.0" type="line"/>
      <point x="320.8" y="47.0" type="line"/>
      <point x="330.2" y="44.4" type="line"/>
      <point x="287.5" y="170.3"/>
      <point x="175.10000000000002" y="265.9"/>
      <point x="69.10000000000001" y="307.0" type="curve"/>
      <point x="70.5" y="298.3" type="line"/>
      <point x="135.7" y="360.2"/>
      <point x="205.7" y="404.2"/>
      <point x="256.5" y="436.29999999999995" type="curve"/>
      <point x="244.5" y="457.6" type="line"/>
      <point x="220.2" y="436.9"/>
      <point x="192.2" y="421.7"/>
      <point x="159.20000000000002" y="421.7" type="curve" smooth="yes"/>
      <point x="117.0" y="421.7"/>
      <point x="69.5" y="448.1"/>
      <point x="69.5" y="508.99999999999994" type="curve" smooth="yes"/>
      <point x="69.5" y="577.1999999999999"/>
      <point x="126.60000000000001" y="600.0"/>
      <point x="163.0" y="605.0" type="curve"/>
      <point x="133.4" y="619.0" type="line"/>
      <point x="82.8" y="605.2"/>
      <point x="44.9" y="571.5999999999999"/>
      <point x="44.9" y="507.0" type="curve" smooth="yes"/>
      <point x="44.9" y="442.1"/>
      <point x="95.9" y="398.4"/>
      <point x="165.3" y="399.7" type="curve"/>
      <point x="165.6" y="407.5" type="line"/>
      <point x="118.8" y="375.9"/>
      <point x="81.0" y="344.8"/>
      <point x="44.2" y="311.3" type="curve"/>
      <point x="58.2" y="282.6" type="line"/>
      <point x="169.9" y="244.1"/>
      <point x="274.59999999999997" y="151.1"/>
      <point x="325.79999999999995" y="10.3" type="curve"/>
    </contour>
  </outline>
</glyph>
<glyph name="nga-beng" format="2">
  <advance width="471.1"/>
  <unicode hex="0999"/>
  <anchor x="314.6" y="34.0" name="bottom"/>
  <anchor x="384.40000000000003" y="-56.0" name="bottom.rakaar"/>
  <anchor x="320.9" y="55.0" name="bottom.rvocalic"/>
  <anchor x="295.90000000000003" y="0.0" name="bottom.virama"/>
  <anchor x="240.8" y="602.0" name="top"/>
  <anchor x="242.39999999999998" y="602.0" name="topright"/>
  <anchor x="235.4" y="0.0" name="vedic"/>
  <outline>
    <contour>
      <point x="285.09999999999997" y="54.0" type="curve" smooth="yes"/>
      <point x="386.0" y="54.0"/>
      <point x="440.7" y="128.5"/>
      <point x="440.7" y="246.9" type="curve" smooth="yes"/>
      <point x="440.7" y="324.5"/>
      <point x="417.5" y="378.09999999999997"/>
      <point x="394.4" y="408.09999999999997" type="curve"/>
      <point x="357.7" y="342.70000000000005"/>
      <point x="303.20000000000005" y="279.40000000000003"/>
      <point x="253.89999999999998" y="279.40000000000003" type="curve" smooth="yes"/>
      <point x="228.9" y="279.40000000000003"/>
      <point x="215.8" y="296.4"/>
      <point x="215.8" y="325.4" type="curve" smooth="yes"/>
      <point x="215.8" y="497.0" type="line" smooth="yes"/>
      <point x="215.8" y="575.0"/>
      <point x="243.5" y="609.6"/>
      <point x="282.6" y="609.6" type="curve" smooth="yes"/>
      <point x="315.70000000000005" y="609.6"/>
      <point x="340.0" y="582.6"/>
      <point x="340.0" y="529.3" type="curve" smooth="yes"/>
      <point x="340.0" y="478.3"/>
      <point x="320.3" y="438.0"/>
      <point x="263.20000000000005" y="438.0" type="curve" smooth="yes"/>
      <point x="190.5" y="438.0"/>
      <point x="144.5" y="497.7"/>
      <point x="108.9" y="621.0" type="curve"/>
      <point x="91.6" y="614.0" type="line"/>
      <point x="114.5" y="526.9"/>
      <point x="161.2" y="414.0"/>
      <point x="263.59999999999997" y="414.0" type="curve" smooth="yes"/>
      <point x="338.29999999999995" y="414.0"/>
      <point x="362.3" y="472.9"/>
      <point x="362.3" y="526.3" type="curve" smooth="yes"/>
      <point x="362.3" y="585.6"/>
      <point x="335.3" y="633.0"/>
      <point x="282.59999999999997" y="633.0" type="curve" smooth="yes"/>
      <point x="226.4" y="633.0"/>
      <point x="193.5" y="583.0"/>
      <point x="193.5" y="502.8" type="curve" smooth="yes"/>
      <point x="193.5" y="323.09999999999997" type="line" smooth="yes"/>
      <point x="193.5" y="297.3"/>
      <point x="201.3" y="279.9"/>
      <point x="214.2" y="268.5" type="curve" smooth="yes"/>
      <point x="224.7" y="259.5"/>
      <point x="238.89999999999998" y="255.10000000000002"/>
      <point x="254.8" y="255.10000000000002" type="curve" smooth="yes"/>
      <point x="307.6" y="255.10000000000002"/>
      <point x="360.0" y="306.40000000000003"/>
      <point x="402.4" y="375.7" type="curve"/>
      <point x="388.5" y="376.0" type="line"/>
      <point x="403.3" y="354.4"/>
      <point x="418.7" y="312.6"/>
      <point x="418.7" y="249.0" type="curve" smooth="yes"/>
      <point x="418.7" y="132.9"/>
      <point x="364.5" y="80.0"/>
      <point x="285.7" y="80.0" type="curve" smooth="yes"/>
      <point x="142.8" y="80.0"/>
      <point x="87.5" y="248.0"/>
      <point x="45.800000000000004" y="498.3" type="curve"/>
      <point x="26.5" y="494.0" type="line"/>
      <point x="73.7" y="189.6"/>
      <point x="144.9" y="54.0"/>
    </contour>
  </outline>
</glyph>
<glyph name="ca-beng" format="2">
  <advance width="393.0"/>
  <unicode hex="099A"/>
  <anchor x="238.20000000000002" y="47.0" name="bottom"/>
  <anchor x="285.9" y="0.0" name="bottom.rakaar"/>
  <anchor x="224.79999999999998" y="56.0" name="bottom.rvocalic"/>
  <anchor x="192.0" y="35.0" name="bottom.virama"/>
  <anchor x="103.5" y="602.0" name="top"/>
  <anchor x="105.80000000000001" y="602.0" name="topright"/>
  <anchor x="196.5" y="0.0" name="vedic"/>
  <outline>
    <contour>
      <point x="161.4" y="50.0" type="curve" smooth="yes"/>
      <point x="259.6" y="50.0"/>
      <point x="338.0" y="217.1"/>
      <point x="337.4" y="354.7" type="curve" smooth="yes"/>
      <point x="337.4" y="374.4"/>
      <point x="322.40000000000003" y="387.4"/>
      <point x="316.8" y="390.7" type="curve"/>
      <point x="225.5" y="401.8"/>
      <point x="143.6" y="468.70000000000005"/>
      <point x="97.10000000000001" y="569.7" type="curve"/>
      <point x="92.5" y="546.6" type="line"/>
      <point x="132.5" y="441.3"/>
      <point x="229.9" y="375.5"/>
      <point x="323.0" y="363.0" type="curve"/>
      <point x="313.40000000000003" y="374.0" type="line"/>
      <point x="317.3" y="225.0"/>
      <point x="238.3" y="74.7"/>
      <point x="160.0" y="74.7" type="curve" smooth="yes"/>
      <point x="126.9" y="74.7"/>
      <point x="103.5" y="101.9"/>
      <point x="103.5" y="141.2" type="curve" smooth="yes"/>
      <point x="103.5" y="602.0" type="line"/>
      <point x="409.2" y="602.0" type="line"/>
      <point x="395.9" y="622.0" type="line"/>
      <point x="-16.2" y="622.0" type="line"/>
      <point x="-2.9000000000000004" y="602.0" type="line"/>
      <point x="81.2" y="602.0" type="line"/>
      <point x="81.2" y="140.2" type="line" smooth="yes"/>
      <point x="81.2" y="85.9"/>
      <point x="114.2" y="50.0"/>
    </contour>
  </outline>
</glyph>
<glyph name="cha-beng" format="2">
  <advance width="418.7"/>
  <unicode hex="099B"/>
  <anchor x="243.79999999999998" y="105.2" name="bottom"/>
  <anchor x="339.7" y="-100.0" name="bottom.rakaar"/>
  <anchor x="280.5" y="103.5" name="bottom.rvocalic"/>
  <anchor x="223.79999999999998" y="90.0" name="bottom.virama"/>
  <anchor x="95.3" y="602.0" name="top"/>
  <anchor x="97.6" y="602.0" name="topright"/>
  <anchor x="209.20000000000002" y="0.0" name="vedic"/>
  <outline>
    <contour>
      <point x="394.7" y="-35.9" type="curve"/>
      <point x="407.70000000000005" y="-22.9" type="line"/>
      <point x="355.90000000000003" y="52.099999999999994"/>
      <point x="259.0" y="161.8"/>
      <point x="130.9" y="212.10000000000002" type="curve"/>
      <point x="133.4" y="203.8" type="line"/>
      <point x="156.1" y="199.5"/>
      <point x="171.5" y="197.9"/>
      <point x="190.5" y="197.9" type="curve" smooth="yes"/>
      <point x="287.0" y="197.9"/>
      <point x="356.3" y="258.1"/>
      <point x="356.3" y="361.5" type="curve" smooth="yes"/>
      <point x="356.3" y="461.2"/>
      <point x="303.5" y="508.0"/>
      <point x="224.8" y="508.0" type="curve" smooth="yes"/>
      <point x="166.4" y="508.0"/>
      <point x="114.8" y="536.0"/>
      <point x="91.0" y="602.0" type="curve"/>
      <point x="86.39999999999999" y="586.0" type="line"/>
      <point x="107.5" y="520.0"/>
      <point x="151.4" y="487.3"/>
      <point x="231.6" y="485.0" type="curve"/>
      <point x="223.29999999999998" y="495.0" type="line"/>
      <point x="224.89999999999998" y="396.0"/>
      <point x="182.5" y="314.0"/>
      <point x="134.1" y="314.0" type="curve" smooth="yes"/>
      <point x="109.1" y="314.0"/>
      <point x="95.30000000000001" y="330.59999999999997"/>
      <point x="95.30000000000001" y="363.6" type="curve" smooth="yes"/>
      <point x="95.30000000000001" y="602.0" type="line"/>
      <point x="434.90000000000003" y="602.0" type="line"/>
      <point x="422.3" y="622.0" type="line"/>
      <point x="-16.2" y="622.0" type="line"/>
      <point x="-3.6000000000000005" y="602.0" type="line"/>
      <point x="73.0" y="602.0" type="line"/>
      <point x="73.0" y="362.59999999999997" type="line" smooth="yes"/>
      <point x="73.0" y="314.6"/>
      <point x="100.10000000000001" y="289.0"/>
      <point x="135.4" y="289.0" type="curve" smooth="yes"/>
      <point x="196.6" y="289.0"/>
      <point x="248.20000000000002" y="381.79999999999995"/>
      <point x="247.6" y="495.0" type="curve"/>
      <point x="238.9" y="485.0" type="line"/>
      <point x="292.5" y="480.0"/>
      <point x="334.3" y="450.5"/>
      <point x="334.3" y="367.5" type="curve" smooth="yes"/>
      <point x="334.3" y="262.2"/>
      <point x="265.59999999999997" y="222.20000000000002"/>
      <point x="189.89999999999998" y="222.20000000000002" type="curve" smooth="yes"/>
      <point x="144.39999999999998" y="222.20000000000002"/>
      <point x="113.5" y="231.9"/>
      <point x="87.9" y="246.9" type="curve"/>
      <point x="102.1" y="193.89999999999998" type="line"/>
      <point x="222.9" y="159.1"/>
      <point x="327.1" y="60.199999999999996"/>
    </contour>
  </outline>
</glyph>
<glyph name="ja-beng" format="2">
  <advance width="613.6"/>
  <unicode hex="099C"/>
  <anchor x="519.5999999999999" y="88.6" name="bottom"/>
  <anchor x="534.7" y="85.1" name="bottom.rakaar"/>
  <anchor x="535.8000000000001" y="26.1" name="bottom.rvocalic"/>
  <anchor x="529.0" y="15.100000000000001" name="bottom.virama"/>
  <anchor x="333.3" y="602.0" name="top"/>
  <anchor x="336.3" y="602.0" name="topright"/>
  <anchor x="306.79999999999995" y="0.0" name="vedic"/>
  <outline>
    <contour>
      <point x="274.0" y="80.0" type="curve" smooth="yes"/>
      <point x="365.1" y="80.0"/>
      <point x="412.8" y="150.0"/>
      <point x="412.8" y="249.0" type="curve" smooth="yes"/>
      <point x="412.8" y="308.3"/>
      <point x="399.1" y="362.0"/>
      <point x="359.5" y="412.0" type="curve"/>
      <point x="322.5" y="337.0"/>
      <point x="289.90000000000003" y="314.0"/>
      <point x="252.5" y="314.0" type="curve" smooth="yes"/>
      <point x="214.1" y="314.0"/>
      <point x="187.5" y="346.7"/>
      <point x="187.5" y="403.7" type="curve" smooth="yes"/>
      <point x="187.5" y="510.69999999999993"/>
      <point x="283.0" y="586.0"/>
      <point x="339.90000000000003" y="602.0" type="curve"/>
      <point x="629.8" y="602.0" type="line"/>
      <point x="617.5" y="622.0" type="line"/>
      <point x="-16.2" y="622.0" type="line"/>
      <point x="-3.6000000000000005" y="602.0" type="line"/>
      <point x="323.2" y="602.0" type="line"/>
      <point x="311.8" y="612.2" type="line"/>
      <point x="251.20000000000002" y="590.9"/>
      <point x="164.20000000000002" y="516.0"/>
      <point x="164.20000000000002" y="404.7" type="curve" smooth="yes"/>
      <point x="164.20000000000002" y="328.0"/>
      <point x="206.0" y="289.0"/>
      <point x="255.79999999999998" y="289.0" type="curve" smooth="yes"/>
      <point x="311.5" y="289.0"/>
      <point x="348.5" y="338.0"/>
      <point x="372.8" y="387.0" type="curve"/>
      <point x="355.2" y="382.8" type="line"/>
      <point x="377.5" y="347.2"/>
      <point x="390.8" y="315.5"/>
      <point x="390.8" y="256.0" type="curve" smooth="yes"/>
      <point x="390.8" y="156.0"/>
      <point x="344.90000000000003" y="105.3"/>
      <point x="272.9" y="105.3" type="curve" smooth="yes"/>
      <point x="153.2" y="105.3"/>
      <point x="83.39999999999999" y="253.3"/>
      <point x="53.699999999999996" y="498.6" type="curve"/>
      <point x="34.7" y="495.0" type="line"/>
      <point x="70.6" y="190.0"/>
      <point x="158.1" y="80.0"/>
    </contour>
    <contour>
      <point x="518.0999999999999" y="17.1" type="curve"/>
      <point x="535.8000000000001" y="24.1" type="line"/>
      <point x="518.7" y="88.60000000000001"/>
      <point x="503.1" y="148.2"/>
      <point x="503.1" y="244.0" type="curve" smooth="yes"/>
      <point x="503.1" y="349.3"/>
      <point x="524.8" y="411.0"/>
      <point x="553.8" y="455.0" type="curve"/>
      <point x="539.2" y="481.0" type="line"/>
      <point x="453.3" y="485.0"/>
      <point x="399.0" y="518.6"/>
      <point x="353.9" y="613.6" type="curve"/>
      <point x="334.2" y="608.0" type="line"/>
      <point x="381.0" y="501.7"/>
      <point x="450.90000000000003" y="460.09999999999997"/>
      <point x="531.7" y="456.79999999999995" type="curve"/>
      <point x="529.5" y="466.0" type="line"/>
      <point x="504.8" y="430.3"/>
      <point x="480.5" y="355.0"/>
      <point x="480.5" y="253.5" type="curve" smooth="yes"/>
      <point x="480.5" y="164.2"/>
      <point x="495.70000000000005" y="92.1"/>
    </contour>
  </outline>
</glyph>
<glyph name="nya-beng" format="2">
  <advance width="719.5"/>
  <unicode hex="099E"/>
  <anchor x="438.5" y="7.0" name="bottom"/>
  <anchor x="445.7" y="25.0" name="bottom.rakaar"/>
  <anchor x="447.09999999999997" y="2.0" name="bottom.rvocalic"/>
  <anchor x="441.29999999999995" y="18.4" name="bottom.virama"/>
  <anchor x="392.40000000000003" y="602.0" name="top"/>
  <anchor x="401.0" y="602.0" name="topright"/>
  <anchor x="359.59999999999997" y="0.0" name="vedic"/>
  <outline>
    <contour>
      <point x="575.5" y="94.7" type="curve" smooth="yes"/>
      <point x="633.6" y="94.7"/>
      <point x="661.5" y="145.4"/>
      <point x="661.5" y="217.70000000000002" type="curve" smooth="yes"/>
      <point x="661.5" y="283.0"/>
      <point x="634.3" y="325.7"/>
      <point x="611.5" y="346.7" type="curve"/>
      <point x="613.5" y="335.7" type="line"/>
      <point x="635.9" y="363.7"/>
      <point x="658.6" y="411.4"/>
      <point x="658.6" y="481.7" type="curve" smooth="yes"/>
      <point x="658.6" y="542.7"/>
      <point x="633.1" y="596.6999999999999"/>
      <point x="581.7" y="596.6999999999999" type="curve" smooth="yes"/>
      <point x="502.3" y="596.6999999999999"/>
      <point x="444.29999999999995" y="448.7"/>
      <point x="437.7" y="379.7" type="curve"/>
      <point x="437.7" y="306.7" type="line"/>
      <point x="449.9" y="195.70000000000002"/>
      <point x="504.29999999999995" y="94.7"/>
    </contour>
    <contour>
      <point x="574.1" y="120.7" type="curve" smooth="yes"/>
      <point x="505.1" y="120.7"/>
      <point x="450.7" y="251.0"/>
      <point x="450.7" y="337.7" type="curve" smooth="yes"/>
      <point x="450.7" y="411.0"/>
      <point x="510.0" y="570.6999999999999"/>
      <point x="583.0" y="570.6999999999999" type="curve" smooth="yes"/>
      <point x="618.6" y="570.6999999999999"/>
      <point x="638.0" y="531.6999999999999"/>
      <point x="638.0" y="484.7" type="curve" smooth="yes"/>
      <point x="638.0" y="425.4"/>
      <point x="618.9" y="376.7"/>
      <point x="587.9000000000001" y="351.7" type="curve"/>
      <point x="605.1999999999999" y="352.7" type="line"/>
      <point x="588.1" y="372.7"/>
      <point x="572.5" y="378.7"/>
      <point x="557.7" y="378.7" type="curve" smooth="yes"/>
      <point x="535.8" y="378.7"/>
      <point x="518.9000000000001" y="364.70000000000005"/>
      <point x="518.9000000000001" y="338.7" type="curve" smooth="yes"/>
      <point x="518.9000000000001" y="311.7"/>
      <point x="535.5" y="299.7"/>
      <point x="558.6999999999999" y="299.7" type="curve" smooth="yes"/>
      <point x="577.5" y="299.7"/>
      <point x="593.7" y="309.0"/>
      <point x="609.1999999999999" y="329.7" type="curve"/>
      <point x="591.6" y="336.7" type="line"/>
      <point x="616.0" y="315.7"/>
      <point x="640.9" y="285.40000000000003"/>
      <point x="640.9" y="219.70000000000002" type="curve" smooth="yes"/>
      <point x="640.9" y="153.70000000000002"/>
      <point x="615.3" y="120.7"/>
    </contour>
    <component base="e-beng"/>
  </outline>
</glyph>
<glyph name="tta-beng" format="2">
  <advance width="391.59999999999997"/>
  <unicode hex="099F"/>
  <anchor x="238.20000000000002" y="61.3" name="bottom"/>
  <anchor x="285.9" y="14.0" name="bottom.rakaar"/>
  <anchor x="224.8" y="70.0" name="bottom.rvocalic"/>
  <anchor x="192.0" y="49.0" name="bottom.virama"/>
  <anchor x="192.10000000000002" y="634.5" name="top"/>
  <anchor x="159.4" y="654.6" name="topright"/>
  <anchor x="195.8" y="0.0" name="vedic"/>
  <anchor x="168.3" y="-32.0" name="nukta"/>
  <outline>
    <contour>
      <point x="303.2" y="618.0" type="curve"/>
      <point x="322.20000000000005" y="618.0" type="line"/>
      <point x="317.09999999999997" y="724.2"/>
      <point x="288.9" y="768.3"/>
      <point x="223.0" y="768.3" type="curve" smooth="yes"/>
      <point x="179.7" y="768.3"/>
      <point x="149.9" y="756.0"/>
      <point x="101.19999999999999" y="756.0" type="curve" smooth="yes"/>
      <point x="44.2" y="756.0"/>
      <point x="20.900000000000002" y="783.7"/>
      <point x="20.900000000000002" y="861.0" type="curve" smooth="yes"/>
      <point x="20.900000000000002" y="872.0"/>
      <point x="21.900000000000002" y="887.1"/>
      <point x="23.200000000000003" y="898.0" type="curve"/>
      <point x="5.199999999999999" y="900.0" type="line"/>
      <point x="3.900000000000002" y="887.9"/>
      <point x="2.6000000000000014" y="870.3000000000001"/>
      <point x="2.6000000000000014" y="856.0" type="curve" smooth="yes"/>
      <point x="2.6000000000000014" y="767.7"/>
      <point x="37.5" y="734.4"/>
      <point x="101.2" y="734.4" type="curve" smooth="yes"/>
      <point x="152.29999999999998" y="734.4"/>
      <point x="175.1" y="746.6999999999999"/>
      <point x="225.5" y="746.6999999999999" type="curve" smooth="yes"/>
      <point x="285.59999999999997" y="746.6999999999999"/>
      <point x="299.40000000000003" y="695.8000000000001"/>
    </contour>
    <component base="ddha-beng"/>
  </outline>
</glyph>
<glyph name="ttha-beng" format="2">
  <advance width="425.9"/>
  <unicode hex="09A0"/>
  <anchor x="247.7" y="5.0" name="bottom"/>
  <anchor x="352.7" y="-20.0" name="bottom.rakaar"/>
  <anchor x="266.29999999999995" y="22.0" name="bottom.rvocalic"/>
  <anchor x="251.3" y="0.0" name="bottom.virama"/>
  <anchor x="325.8" y="557.0" name="top"/>
  <anchor x="334.9" y="617.0" name="topleft"/>
  <anchor x="237.5" y="602.0" name="topright"/>
  <anchor x="212.79999999999998" y="0.0" name="vedic"/>
  <outline>
    <contour>
      <point x="221.5" y="21.0" type="curve" smooth="yes"/>
      <point x="310.59999999999997" y="21.0"/>
      <point x="366.0" y="94.4"/>
      <point x="366.0" y="215.0" type="curve" smooth="yes"/>
      <point x="366.0" y="346.59999999999997"/>
      <point x="308.7" y="468.0"/>
      <point x="217.79999999999998" y="602.0" type="curve"/>
      <point x="442.1" y="602.0" type="line"/>
      <point x="429.8" y="622.0" type="line"/>
      <point x="198.1" y="622.0" type="line"/>
      <point x="169.5" y="669.0"/>
      <point x="136.9" y="722.7"/>
      <point x="136.9" y="780.8" type="curve" smooth="yes"/>
      <point x="136.9" y="821.8"/>
      <point x="152.7" y="854.6"/>
      <point x="193.1" y="883.0" type="curve"/>
      <point x="178.4" y="902.0" type="line"/>
      <point x="139.89999999999998" y="876.6"/>
      <point x="115.89999999999999" y="841.1999999999999"/>
      <point x="115.89999999999999" y="786.2" type="curve" smooth="yes"/>
      <point x="115.89999999999999" y="731.7"/>
      <point x="141.0" y="681.0"/>
      <point x="176.2" y="622.0" type="curve"/>
      <point x="-16.2" y="622.0" type="line"/>
      <point x="-3.6000000000000005" y="602.0" type="line"/>
      <point x="183.0" y="602.0" type="line"/>
      <point x="198.79999999999998" y="573.0"/>
      <point x="207.6" y="504.59999999999997"/>
      <point x="207.6" y="460.3" type="curve" smooth="yes"/>
      <point x="207.6" y="341.7"/>
      <point x="170.5" y="270.8"/>
      <point x="46.3" y="240.4" type="curve"/>
      <point x="66.9" y="94.0"/>
      <point x="131.20000000000002" y="21.0"/>
    </contour>
    <contour>
      <point x="220.9" y="45.699999999999996" type="curve" smooth="yes"/>
      <point x="133.8" y="45.699999999999996"/>
      <point x="82.60000000000001" y="132.2"/>
      <point x="71.3" y="237.0" type="curve"/>
      <point x="63.099999999999994" y="218.4" type="line"/>
      <point x="165.89999999999998" y="244.6"/>
      <point x="228.6" y="306.3"/>
      <point x="228.6" y="447.3" type="curve" smooth="yes"/>
      <point x="228.6" y="501.3"/>
      <point x="217.39999999999998" y="559.0"/>
      <point x="199.6" y="608.0" type="curve"/>
      <point x="196.89999999999998" y="604.0" type="line"/>
      <point x="267.2" y="491.0"/>
      <point x="342.4" y="370.3"/>
      <point x="342.4" y="225.0" type="curve" smooth="yes"/>
      <point x="342.4" y="90.1"/>
      <point x="280.9" y="45.699999999999996"/>
    </contour>
  </outline>
</glyph>
<glyph name="dda-beng" format="2">
  <advance width="502.4"/>
  <unicode hex="09A1"/>
  <anchor x="318.3" y="65.0" name="bottom"/>
  <anchor x="399.90000000000003" y="-26.0" name="bottom.rakaar"/>
  <anchor x="335.0" y="85.0" name="bottom.rvocalic"/>
  <anchor x="308.6" y="30.0" name="bottom.virama"/>
  <anchor x="264.0" y="-12.0" name="nukta"/>
  <anchor x="232.9" y="602.0" name="top"/>
  <anchor x="235.20000000000002" y="602.0" name="topright"/>
  <anchor x="251.2" y="0.0" name="vedic"/>
  <outline>
    <contour>
      <point x="295.6" y="84.0" type="curve" smooth="yes"/>
      <point x="400.0" y="84.0"/>
      <point x="458.6" y="157.79999999999998"/>
      <point x="458.6" y="279.7" type="curve" smooth="yes"/>
      <point x="458.6" y="360.1"/>
      <point x="431.6" y="413.0"/>
      <point x="404.3" y="443.0" type="curve"/>
      <point x="369.0" y="378.90000000000003"/>
      <point x="317.5" y="322.0"/>
      <point x="272.6" y="322.0" type="curve" smooth="yes"/>
      <point x="245.7" y="322.0"/>
      <point x="232.9" y="339.3"/>
      <point x="232.9" y="366.90000000000003" type="curve" smooth="yes"/>
      <point x="232.9" y="602.0" type="line"/>
      <point x="518.6" y="602.0" type="line"/>
      <point x="505.29999999999995" y="622.0" type="line"/>
      <point x="-16.2" y="622.0" type="line"/>
      <point x="-3.6000000000000005" y="602.0" type="line"/>
      <point x="210.6" y="602.0" type="line"/>
      <point x="210.6" y="365.0" type="line" smooth="yes"/>
      <point x="210.6" y="335.0"/>
      <point x="221.5" y="319.0"/>
      <point x="234.4" y="310.0" type="curve" smooth="yes"/>
      <point x="246.6" y="301.0"/>
      <point x="259.5" y="298.0"/>
      <point x="274.7" y="298.0" type="curve" smooth="yes"/>
      <point x="320.0" y="298.0"/>
      <point x="370.2" y="337.1"/>
      <point x="414.4" y="412.0" type="curve"/>
      <point x="399.1" y="412.7" type="line"/>
      <point x="417.4" y="391.1"/>
      <point x="436.3" y="351.6"/>
      <point x="436.3" y="284.59999999999997" type="curve" smooth="yes"/>
      <point x="436.3" y="164.29999999999998"/>
      <point x="379.20000000000005" y="109.3"/>
      <point x="295.5" y="109.3" type="curve" smooth="yes"/>
      <point x="160.3" y="109.3"/>
      <point x="96.2" y="249.20000000000002"/>
      <point x="55.2" y="507.4" type="curve"/>
      <point x="35.9" y="503.8" type="line"/>
      <point x="77.2" y="220.9"/>
      <point x="152.60000000000002" y="84.0"/>
    </contour>
  </outline>
</glyph>
<glyph name="ddha-beng" format="2">
  <advance width="391.59999999999997"/>
  <unicode hex="09A2"/>
  <anchor x="242.20000000000002" y="61.0" name="bottom"/>
  <anchor x="290.8" y="14.0" name="bottom.rakaar"/>
  <anchor x="229.70000000000002" y="70.0" name="bottom.rvocalic"/>
  <anchor x="196.9" y="49.0" name="bottom.virama"/>
  <anchor x="168.3" y="-32.0" name="nukta"/>
  <anchor x="108.39999999999999" y="602.0" name="top"/>
  <anchor x="110.7" y="602.0" name="topright"/>
  <anchor x="195.8" y="0.0" name="vedic"/>
  <outline>
    <contour>
      <point x="159.8" y="64.0" type="curve" smooth="yes"/>
      <point x="261.2" y="64.0"/>
      <point x="339.70000000000005" y="221.7"/>
      <point x="339.70000000000005" y="357.0" type="curve" smooth="yes"/>
      <point x="339.70000000000005" y="399.0"/>
      <point x="320.1" y="429.0"/>
      <point x="288.0" y="429.0" type="curve" smooth="yes"/>
      <point x="257.1" y="429.0"/>
      <point x="241.9" y="404.3"/>
      <point x="241.9" y="379.0" type="curve" smooth="yes"/>
      <point x="241.9" y="350.0"/>
      <point x="258.79999999999995" y="330.0"/>
      <point x="285.3" y="330.0" type="curve" smooth="yes"/>
      <point x="303.2" y="330.0"/>
      <point x="315.09999999999997" y="339.0"/>
      <point x="323.0" y="360.0" type="curve"/>
      <point x="314.7" y="363.0" type="line"/>
      <point x="312.70000000000005" y="219.0"/>
      <point x="239.0" y="88.7"/>
      <point x="159.8" y="88.7" type="curve" smooth="yes"/>
      <point x="125.30000000000001" y="88.7"/>
      <point x="103.5" y="115.9"/>
      <point x="103.5" y="155.9" type="curve" smooth="yes"/>
      <point x="103.5" y="602.0" type="line"/>
      <point x="407.8" y="602.0" type="line"/>
      <point x="395.2" y="622.0" type="line"/>
      <point x="-16.2" y="622.0" type="line"/>
      <point x="-2.9000000000000004" y="602.0" type="line"/>
      <point x="81.2" y="602.0" type="line"/>
      <point x="81.2" y="154.20000000000002" type="line" smooth="yes"/>
      <point x="81.2" y="99.19999999999999"/>
      <point x="114.0" y="64.0"/>
    </contour>
  </outline>
</glyph>
<glyph name="nna-beng" format="2">
  <advance width="438.5"/>
  <unicode hex="09A3"/>
  <anchor x="341.7" y="60.0" name="bottom"/>
  <anchor x="355.9" y="-17.0" name="bottom.rakaar"/>
  <anchor x="357.3" y="-2.0999999999999996" name="bottom.rvocalic"/>
  <anchor x="350.9" y="5.0" name="bottom.virama"/>
  <anchor x="357.3" y="545.0" name="top"/>
  <anchor x="362.3" y="566.1" name="topright"/>
  <anchor x="218.89999999999998" y="0.0" name="vedic"/>
  <outline>
    <contour>
      <point x="354.3" y="-10.0" type="line"/>
      <point x="357.3" y="-9.0" type="line"/>
      <point x="357.3" y="602.0" type="line"/>
      <point x="454.70000000000005" y="602.0" type="line"/>
      <point x="442.1" y="622.0" type="line"/>
      <point x="357.29999999999995" y="622.0" type="line"/>
      <point x="355.0" y="661.0" type="line"/>
      <point x="338.3" y="674.0" type="line"/>
      <point x="335.0" y="673.0" type="line"/>
      <point x="335.0" y="538.9" type="line" smooth="yes"/>
      <point x="335.0" y="496.09999999999997"/>
      <point x="335.29999999999995" y="448.40000000000003"/>
      <point x="337.6" y="407.4" type="curve"/>
      <point x="343.90000000000003" y="403.0" type="line"/>
      <point x="293.2" y="569.0"/>
      <point x="238.5" y="627.0"/>
      <point x="164.1" y="627.0" type="curve" smooth="yes"/>
      <point x="99.9" y="627.0"/>
      <point x="46.0" y="575.0"/>
      <point x="46.0" y="483.2" type="curve" smooth="yes"/>
      <point x="46.0" y="395.1"/>
      <point x="96.3" y="333.0"/>
      <point x="165.2" y="333.0" type="curve" smooth="yes"/>
      <point x="201.3" y="333.0"/>
      <point x="222.9" y="354.0"/>
      <point x="222.9" y="387.6" type="curve" smooth="yes"/>
      <point x="222.9" y="415.9"/>
      <point x="206.0" y="437.3"/>
      <point x="178.8" y="437.3" type="curve" smooth="yes"/>
      <point x="153.2" y="437.3"/>
      <point x="135.3" y="418.0"/>
      <point x="135.3" y="391.0" type="curve" smooth="yes"/>
      <point x="135.3" y="371.0"/>
      <point x="144.3" y="356.0"/>
      <point x="155.29999999999998" y="350.7" type="curve"/>
      <point x="167.2" y="360.0" type="line"/>
      <point x="161.60000000000002" y="358.0"/>
      <point x="156.0" y="358.0"/>
      <point x="150.70000000000002" y="358.0" type="curve" smooth="yes"/>
      <point x="111.5" y="358.0"/>
      <point x="68.3" y="403.5"/>
      <point x="68.3" y="482.09999999999997" type="curve" smooth="yes"/>
      <point x="68.3" y="562.5999999999999"/>
      <point x="115.0" y="603.7"/>
      <point x="166.8" y="603.7" type="curve" smooth="yes"/>
      <point x="238.5" y="603.7"/>
      <point x="286.3" y="536.3"/>
      <point x="339.2" y="363.2" type="curve"/>
      <point x="335.0" y="396.09999999999997" type="line"/>
      <point x="335.0" y="3.0" type="line"/>
    </contour>
  </outline>
</glyph>
<glyph name="ta-beng" format="2">
  <advance width="507.1"/>
  <unicode hex="09A4"/>
  <anchor x="344.2" y="75.0" name="bottom"/>
  <anchor x="415.7" y="-18.0" name="bottom.rakaar"/>
  <anchor x="351.5" y="93.0" name="bottom.rvocalic"/>
  <anchor x="323.7" y="38.0" name="bottom.virama"/>
  <anchor x="309.59999999999997" y="602.0" name="top"/>
  <anchor x="311.9" y="602.0" name="topright"/>
  <anchor x="253.20000000000002" y="0.0" name="vedic"/>
  <outline>
    <contour>
      <point x="312.1" y="92.0" type="curve" smooth="yes"/>
      <point x="389.79999999999995" y="92.0"/>
      <point x="462.0" y="141.10000000000002"/>
      <point x="463.2" y="274.79999999999995" type="curve" smooth="yes"/>
      <point x="464.4" y="397.70000000000005"/>
      <point x="399.7" y="474.3"/>
      <point x="302.2" y="474.3" type="curve" smooth="yes"/>
      <point x="247.8" y="474.3"/>
      <point x="223.8" y="447.70000000000005"/>
      <point x="223.8" y="409.7" type="curve" smooth="yes"/>
      <point x="223.8" y="377.1"/>
      <point x="244.7" y="354.8"/>
      <point x="275.90000000000003" y="354.8" type="curve" smooth="yes"/>
      <point x="308.40000000000003" y="354.8"/>
      <point x="324.3" y="378.1"/>
      <point x="324.3" y="409.0" type="curve" smooth="yes"/>
      <point x="324.3" y="429.6"/>
      <point x="314.70000000000005" y="451.6"/>
      <point x="298.2" y="457.8" type="curve"/>
      <point x="273.5" y="433.4" type="line"/>
      <point x="282.09999999999997" y="441.1"/>
      <point x="298.90000000000003" y="448.0"/>
      <point x="320.6" y="448.0" type="curve" smooth="yes"/>
      <point x="381.8" y="448.0"/>
      <point x="441.2" y="388.7"/>
      <point x="441.2" y="282.4" type="curve" smooth="yes"/>
      <point x="441.2" y="168.0"/>
      <point x="385.7" y="117.3"/>
      <point x="309.5" y="117.3" type="curve" smooth="yes"/>
      <point x="204.2" y="117.3"/>
      <point x="112.6" y="220.29999999999998"/>
      <point x="52.3" y="508.3" type="curve"/>
      <point x="33.3" y="504.0" type="line"/>
      <point x="96.1" y="187.0"/>
      <point x="197.4" y="92.0"/>
    </contour>
    <contour>
      <point x="-3.6000000000000005" y="602.0" type="line"/>
      <point x="523.3" y="602.0" type="line"/>
      <point x="510.0" y="622.0" type="line"/>
      <point x="-16.2" y="622.0" type="line"/>
    </contour>
  </outline>
</glyph>
<glyph name="tha-beng" format="2">
  <advance width="435.7"/>
  <unicode hex="09A5"/>
  <anchor x="345.9" y="11.0" name="bottom"/>
  <anchor x="353.09999999999997" y="29.0" name="bottom.rakaar"/>
  <anchor x="354.5" y="6.0" name="bottom.rvocalic"/>
  <anchor x="348.70000000000005" y="22.4" name="bottom.virama"/>
  <anchor x="354.5" y="545.0" name="top"/>
  <anchor x="359.5" y="566.1" name="topright"/>
  <anchor x="217.5" y="0.0" name="vedic"/>
  <outline>
    <contour>
      <point x="351.5" y="-3.0" type="line"/>
      <point x="354.5" y="-2.0" type="line"/>
      <point x="354.5" y="602.0" type="line"/>
      <point x="451.9" y="602.0" type="line"/>
      <point x="439.29999999999995" y="622.0" type="line"/>
      <point x="354.5" y="622.0" type="line"/>
      <point x="352.20000000000005" y="661.0" type="line"/>
      <point x="335.5" y="674.0" type="line"/>
      <point x="332.2" y="673.0" type="line"/>
      <point x="332.2" y="47.0" type="line"/>
      <point x="341.6" y="44.4" type="line"/>
      <point x="298.3" y="170.6"/>
      <point x="185.0" y="277.7"/>
      <point x="76.89999999999999" y="320.9" type="curve"/>
      <point x="84.8" y="310.29999999999995" type="line"/>
      <point x="197.4" y="330.3"/>
      <point x="248.9" y="390.1"/>
      <point x="248.9" y="477.6" type="curve" smooth="yes"/>
      <point x="248.9" y="580.7"/>
      <point x="193.7" y="623.0"/>
      <point x="131.29999999999998" y="623.0" type="curve" smooth="yes"/>
      <point x="65.19999999999999" y="623.0"/>
      <point x="27.3" y="573.5"/>
      <point x="27.3" y="532.0" type="curve" smooth="yes"/>
      <point x="27.3" y="500.0"/>
      <point x="45.6" y="479.7"/>
      <point x="70.8" y="479.7" type="curve" smooth="yes"/>
      <point x="92.3" y="479.7"/>
      <point x="108.2" y="494.3"/>
      <point x="108.2" y="520.6" type="curve" smooth="yes"/>
      <point x="108.2" y="542.2"/>
      <point x="95.0" y="564.5"/>
      <point x="63.599999999999994" y="563.3" type="curve"/>
      <point x="66.2" y="551.0" type="line"/>
      <point x="71.2" y="573.2"/>
      <point x="91.89999999999999" y="600.0"/>
      <point x="136.6" y="600.0" type="curve" smooth="yes"/>
      <point x="198.70000000000002" y="600.0"/>
      <point x="226.6" y="546.4"/>
      <point x="226.6" y="482.3" type="curve" smooth="yes"/>
      <point x="226.6" y="384.4"/>
      <point x="149.0" y="344.0"/>
      <point x="54.8" y="333.3" type="curve"/>
      <point x="66.0" y="296.5" type="line"/>
      <point x="179.8" y="255.9"/>
      <point x="285.4" y="151.4"/>
      <point x="337.2" y="10.3" type="curve"/>
    </contour>
  </outline>
</glyph>
<glyph name="da-beng" format="2">
  <advance width="413.5"/>
  <unicode hex="09A6"/>
  <anchor x="329.20000000000005" y="75.0" name="bottom"/>
  <anchor x="343.7" y="70.0" name="bottom.rakaar"/>
  <anchor x="341.5" y="11.6" name="bottom.rvocalic"/>
  <anchor x="338.0" y="0.0" name="bottom.virama"/>
  <anchor x="102.3" y="602.0" name="top"/>
  <anchor x="105.3" y="602.0" name="topright"/>
  <anchor x="206.60000000000002" y="0.0" name="vedic"/>
  <outline>
    <contour>
      <point x="326.8" y="2.0" type="curve"/>
      <point x="345.1" y="9.0" type="line"/>
      <point x="328.6" y="72.6"/>
      <point x="312.09999999999997" y="132.5"/>
      <point x="312.09999999999997" y="231.79999999999998" type="curve" smooth="yes"/>
      <point x="312.09999999999997" y="327.29999999999995"/>
      <point x="330.6" y="404.0"/>
      <point x="351.8" y="443.0" type="curve"/>
      <point x="325.8" y="472.0" type="line"/>
      <point x="254.5" y="432.0"/>
      <point x="139.4" y="314.4"/>
      <point x="90.0" y="236.7" type="curve"/>
      <point x="102.3" y="229.7" type="line"/>
      <point x="102.3" y="602.0" type="line"/>
      <point x="429.70000000000005" y="602.0" type="line"/>
      <point x="418.1" y="622.0" type="line"/>
      <point x="-16.2" y="622.0" type="line"/>
      <point x="-2.6000000000000005" y="602.0" type="line"/>
      <point x="80.0" y="602.0" type="line"/>
      <point x="80.0" y="225.7" type="line"/>
      <point x="101.7" y="213.0" type="line"/>
      <point x="170.8" y="311.0"/>
      <point x="272.0" y="410.9"/>
      <point x="334.1" y="445.6" type="curve"/>
      <point x="329.1" y="453.3" type="line"/>
      <point x="308.3" y="423.3"/>
      <point x="289.5" y="329.20000000000005"/>
      <point x="289.5" y="239.8" type="curve" smooth="yes"/>
      <point x="289.5" y="151.8"/>
      <point x="305.0" y="76.4"/>
    </contour>
  </outline>
</glyph>
<glyph name="dha-beng" format="2">
  <advance width="415.2"/>
  <unicode hex="09A7"/>
  <anchor x="325.40000000000003" y="11.0" name="bottom"/>
  <anchor x="332.59999999999997" y="29.0" name="bottom.rakaar"/>
  <anchor x="334.0" y="6.0" name="bottom.rvocalic"/>
  <anchor x="328.2" y="22.4" name="bottom.virama"/>
  <anchor x="338.20000000000005" y="602.0" name="top"/>
  <anchor x="334.9" y="602.0" name="topright"/>
  <anchor x="207.1" y="0.0" name="vedic"/>
  <outline>
    <contour>
      <point x="331.0" y="-3.0" type="line"/>
      <point x="334.0" y="-2.0" type="line"/>
      <point x="334.0" y="602.0" type="line"/>
      <point x="431.4" y="602.0" type="line"/>
      <point x="418.79999999999995" y="622.0" type="line"/>
      <point x="311.7" y="622.0" type="line"/>
      <point x="311.7" y="503.80000000000007" type="line"/>
      <point x="319.59999999999997" y="518.1" type="line"/>
      <point x="225.0" y="475.09999999999997"/>
      <point x="121.19999999999999" y="409.1"/>
      <point x="33.0" y="336.2" type="curve"/>
      <point x="49.1" y="307.5" type="line"/>
      <point x="160.8" y="257.1"/>
      <point x="265.8" y="152.3"/>
      <point x="316.7" y="10.3" type="curve"/>
    </contour>
    <contour>
      <point x="311.7" y="47.0" type="line"/>
      <point x="321.09999999999997" y="44.4" type="line"/>
      <point x="278.70000000000005" y="171.5"/>
      <point x="166.0" y="278.9"/>
      <point x="60.0" y="331.90000000000003" type="curve"/>
      <point x="58.6" y="322.5" type="line"/>
      <point x="147.9" y="400.3"/>
      <point x="254.00000000000003" y="459.4"/>
      <point x="317.59999999999997" y="489.7" type="curve"/>
      <point x="311.7" y="500.79999999999995" type="line"/>
    </contour>
    <contour>
      <point x="166.1" y="423.0" type="curve"/>
      <point x="179.3" y="438.0" type="line"/>
      <point x="137.70000000000002" y="443.0"/>
      <point x="88.4" y="470.09999999999997"/>
      <point x="88.4" y="528.8" type="curve" smooth="yes"/>
      <point x="88.4" y="586.4"/>
      <point x="125.2" y="605.4"/>
      <point x="154.6" y="605.4" type="curve" smooth="yes"/>
      <point x="162.79999999999998" y="605.4"/>
      <point x="170.7" y="603.0"/>
      <point x="177.29999999999998" y="600.0" type="curve"/>
      <point x="171.7" y="611.0" type="line"/>
      <point x="157.1" y="605.4"/>
      <point x="151.0" y="591.4"/>
      <point x="151.0" y="577.0" type="curve" smooth="yes"/>
      <point x="151.0" y="552.0"/>
      <point x="165.5" y="539.0"/>
      <point x="185.5" y="539.0" type="curve" smooth="yes"/>
      <point x="203.70000000000002" y="539.0"/>
      <point x="218.0" y="553.0"/>
      <point x="218.0" y="577.0" type="curve" smooth="yes"/>
      <point x="218.0" y="603.0"/>
      <point x="201.79999999999998" y="630.0"/>
      <point x="157.6" y="630.0" type="curve" smooth="yes"/>
      <point x="110.9" y="630.0"/>
      <point x="64.8" y="596.7"/>
      <point x="64.8" y="530.8" type="curve" smooth="yes"/>
      <point x="64.8" y="457.4"/>
      <point x="126.2" y="426.0"/>
    </contour>
  </outline>
</glyph>
<glyph name="na-beng" format="2">
  <advance width="396.5"/>
  <unicode hex="09A8"/>
  <anchor x="300.3" y="62.8" name="bottom"/>
  <anchor x="313.9" y="29.0" name="bottom.rakaar"/>
  <anchor x="315.3" y="6.0" name="bottom.rvocalic"/>
  <anchor x="309.5" y="22.4" name="bottom.virama"/>
  <anchor x="319.5" y="602.0" name="top"/>
  <anchor x="316.2" y="602.0" name="topright"/>
  <anchor x="198.1" y="0.0" name="vedic"/>
  <outline>
    <contour>
      <point x="312.3" y="-3.0" type="line"/>
      <point x="315.3" y="-2.0" type="line"/>
      <point x="315.3" y="602.0" type="line"/>
      <point x="412.70000000000005" y="602.0" type="line"/>
      <point x="400.1" y="622.0" type="line"/>
      <point x="-16.2" y="622.0" type="line"/>
      <point x="-3.6000000000000005" y="602.0" type="line"/>
      <point x="293.0" y="602.0" type="line"/>
      <point x="293.0" y="276.8" type="line" smooth="yes"/>
      <point x="293.0" y="230.5"/>
      <point x="294.6" y="175.6"/>
      <point x="296.6" y="129.0" type="curve"/>
      <point x="300.2" y="129.0" type="line"/>
      <point x="285.40000000000003" y="245.29999999999998"/>
      <point x="227.10000000000002" y="395.0"/>
      <point x="99.0" y="395.0" type="curve" smooth="yes"/>
      <point x="58.300000000000004" y="395.0"/>
      <point x="29.099999999999998" y="371.7"/>
      <point x="29.099999999999998" y="330.7" type="curve" smooth="yes"/>
      <point x="29.099999999999998" y="294.7"/>
      <point x="50.7" y="272.0"/>
      <point x="82.2" y="272.0" type="curve" smooth="yes"/>
      <point x="113.0" y="272.0"/>
      <point x="131.9" y="295.0"/>
      <point x="131.9" y="326.3" type="curve" smooth="yes"/>
      <point x="131.9" y="350.3"/>
      <point x="123.6" y="367.2"/>
      <point x="108.8" y="375.2" type="curve"/>
      <point x="94.5" y="361.0" type="line"/>
      <point x="98.8" y="363.0"/>
      <point x="107.70000000000002" y="366.0"/>
      <point x="117.60000000000001" y="366.0" type="curve" smooth="yes"/>
      <point x="237.2" y="366.0"/>
      <point x="295.4" y="151.3"/>
      <point x="297.4" y="10.3" type="curve"/>
    </contour>
  </outline>
</glyph>
<glyph name="pa-beng" format="2">
  <advance width="498.7"/>
  <unicode hex="09AA"/>
  <anchor x="401.9" y="60.0" name="bottom"/>
  <anchor x="416.1" y="-17.0" name="bottom.rakaar"/>
  <anchor x="417.5" y="-2.0999999999999996" name="bottom.rvocalic"/>
  <anchor x="411.09999999999997" y="5.0" name="bottom.virama"/>
  <anchor x="417.5" y="545.0" name="top"/>
  <anchor x="422.5" y="566.1" name="topright"/>
  <anchor x="249.20000000000002" y="0.0" name="vedic"/>
  <outline>
    <contour>
      <point x="414.5" y="-10.0" type="line"/>
      <point x="417.5" y="-9.0" type="line"/>
      <point x="417.5" y="602.0" type="line"/>
      <point x="514.9" y="602.0" type="line"/>
      <point x="502.3" y="622.0" type="line"/>
      <point x="417.5" y="622.0" type="line"/>
      <point x="415.2" y="661.0" type="line"/>
      <point x="398.5" y="674.0" type="line"/>
      <point x="395.20000000000005" y="673.0" type="line"/>
      <point x="395.20000000000005" y="530.8" type="line" smooth="yes"/>
      <point x="395.20000000000005" y="488.0"/>
      <point x="395.5" y="441.5"/>
      <point x="397.2" y="398.4" type="curve"/>
      <point x="404.1" y="395.4" type="line"/>
      <point x="356.3" y="514.3"/>
      <point x="292.1" y="626.3"/>
      <point x="196.39999999999998" y="626.3" type="curve" smooth="yes"/>
      <point x="111.4" y="626.3"/>
      <point x="51.6" y="540.9"/>
      <point x="16.0" y="441.09999999999997" type="curve"/>
      <point x="41.0" y="420.8" type="line"/>
      <point x="54.900000000000006" y="435.0"/>
      <point x="78.39999999999999" y="444.59999999999997"/>
      <point x="105.0" y="444.59999999999997" type="curve" smooth="yes"/>
      <point x="155.0" y="444.59999999999997"/>
      <point x="168.5" y="401.5"/>
      <point x="168.5" y="357.2" type="curve" smooth="yes"/>
      <point x="168.5" y="322.9"/>
      <point x="160.0" y="290.2"/>
      <point x="147.5" y="269.6" type="curve"/>
      <point x="170.9" y="250.70000000000002" type="line"/>
      <point x="348.5" y="493.7" type="line"/>
      <point x="333.3" y="516.6" type="line"/>
      <point x="171.4" y="293.79999999999995" type="line"/>
      <point x="177.5" y="288.5" type="line"/>
      <point x="185.2" y="309.7"/>
      <point x="189.4" y="338.59999999999997"/>
      <point x="189.4" y="362.5" type="curve" smooth="yes"/>
      <point x="189.4" y="421.6"/>
      <point x="162.6" y="469.6"/>
      <point x="105.3" y="469.6" type="curve" smooth="yes"/>
      <point x="76.39999999999999" y="469.6"/>
      <point x="50.9" y="459.5"/>
      <point x="36.1" y="444.2" type="curve"/>
      <point x="43.900000000000006" y="438.5" type="line"/>
      <point x="78.0" y="530.8"/>
      <point x="131.0" y="603.3"/>
      <point x="200.1" y="603.3" type="curve" smooth="yes"/>
      <point x="287.0" y="603.3"/>
      <point x="351.2" y="475.2"/>
      <point x="400.8" y="352.09999999999997" type="curve"/>
      <point x="395.20000000000005" y="387.1" type="line"/>
      <point x="395.20000000000005" y="3.0" type="line"/>
    </contour>
  </outline>
</glyph>
<glyph name="pha-beng" format="2">
  <advance width="550.3"/>
  <unicode hex="09AB"/>
  <anchor x="332.2" y="11.0" name="bottom"/>
  <anchor x="339.4" y="29.0" name="bottom.rakaar"/>
  <anchor x="340.8" y="6.0" name="bottom.rvocalic"/>
  <anchor x="335.0" y="22.4" name="bottom.virama"/>
  <anchor x="345.0" y="602.0" name="top"/>
  <anchor x="341.7" y="602.0" name="topright"/>
  <anchor x="274.79999999999995" y="0.0" name="vedic"/>
  <outline>
    <contour>
      <point x="337.8" y="-3.0" type="line"/>
      <point x="340.8" y="-2.0" type="line"/>
      <point x="340.8" y="505.5" type="line"/>
      <point x="328.8" y="494.0" type="line"/>
      <point x="332.8" y="495.0"/>
      <point x="339.5" y="496.0"/>
      <point x="343.8" y="496.0" type="curve" smooth="yes"/>
      <point x="425.3" y="496.0"/>
      <point x="491.2" y="448.0"/>
      <point x="491.2" y="349.0" type="curve" smooth="yes"/>
      <point x="491.2" y="330.6"/>
      <point x="488.5" y="311.2"/>
      <point x="478.2" y="300.2" type="curve"/>
      <point x="485.4" y="305.2" type="line"/>
      <point x="482.1" y="330.2"/>
      <point x="465.40000000000003" y="344.5"/>
      <point x="444.9" y="344.5" type="curve" smooth="yes"/>
      <point x="418.70000000000005" y="344.5"/>
      <point x="403.8" y="326.2"/>
      <point x="403.8" y="299.9" type="curve" smooth="yes"/>
      <point x="403.8" y="269.9"/>
      <point x="423.7" y="251.9"/>
      <point x="450.0" y="251.9" type="curve" smooth="yes"/>
      <point x="483.90000000000003" y="251.9"/>
      <point x="512.1" y="282.90000000000003"/>
      <point x="512.1" y="344.40000000000003" type="curve" smooth="yes"/>
      <point x="512.1" y="469.90000000000003"/>
      <point x="421.2" y="521.0"/>
      <point x="340.40000000000003" y="521.0" type="curve" smooth="yes"/>
      <point x="331.5" y="521.0"/>
      <point x="322.5" y="520.0"/>
      <point x="318.5" y="519.0" type="curve"/>
      <point x="318.5" y="47.0" type="line"/>
      <point x="327.9" y="44.4" type="line"/>
      <point x="284.9" y="164.3"/>
      <point x="172.4" y="250.89999999999998"/>
      <point x="65.8" y="288.40000000000003" type="curve"/>
      <point x="63.7" y="279.0" type="line"/>
      <point x="116.5" y="335.59999999999997"/>
      <point x="176.5" y="379.9"/>
      <point x="232.3" y="418.0" type="curve"/>
      <point x="191.6" y="497.6"/>
      <point x="108.6" y="573.5"/>
      <point x="20.099999999999998" y="610.0" type="curve"/>
      <point x="23.299999999999997" y="602.0" type="line"/>
      <point x="566.5" y="602.0" type="line"/>
      <point x="553.9" y="622.0" type="line"/>
      <point x="-16.2" y="622.0" type="line"/>
      <point x="7.1" y="585.6999999999999" type="line"/>
      <point x="100.89999999999999" y="551.8"/>
      <point x="167.7" y="486.0"/>
      <point x="210.3" y="417.0" type="curve"/>
      <point x="210.39999999999998" y="432.7" type="line"/>
      <point x="172.5" y="409.3"/>
      <point x="98.5" y="353.3"/>
      <point x="38.8" y="292.0" type="curve"/>
      <point x="54.9" y="264.0" type="line"/>
      <point x="167.2" y="228.8"/>
      <point x="271.09999999999997" y="146.29999999999998"/>
      <point x="323.5" y="10.3" type="curve"/>
    </contour>
  </outline>
</glyph>
<glyph name="ba-beng" format="2">
  <advance width="424.3"/>
  <unicode hex="09AC"/>
  <anchor x="334.5" y="11.0" name="bottom"/>
  <anchor x="341.7" y="29.0" name="bottom.rakaar"/>
  <anchor x="343.1" y="6.0" name="bottom.rvocalic"/>
  <anchor x="337.3" y="8.399999999999999" name="bottom.virama"/>
  <anchor x="172.0" y="95.0" name="nukta"/>
  <anchor x="347.3" y="602.0" name="top"/>
  <anchor x="344.0" y="602.0" name="topright"/>
  <anchor x="212.0" y="0.0" name="vedic"/>
  <outline>
    <contour>
      <point x="340.09999999999997" y="-3.0" type="line"/>
      <point x="343.1" y="-2.0" type="line"/>
      <point x="343.1" y="602.0" type="line"/>
      <point x="440.5" y="602.0" type="line"/>
      <point x="427.9" y="622.0" type="line"/>
      <point x="-16.2" y="622.0" type="line"/>
      <point x="-3.6000000000000005" y="602.0" type="line"/>
      <point x="320.8" y="602.0" type="line"/>
      <point x="320.8" y="500.8" type="line"/>
      <point x="328.7" y="515.1" type="line"/>
      <point x="231.10000000000002" y="475.09999999999997"/>
      <point x="128.8" y="406.1"/>
      <point x="42.1" y="333.2" type="curve"/>
      <point x="58.199999999999996" y="304.5" type="line"/>
      <point x="169.9" y="254.1"/>
      <point x="274.0" y="149.3"/>
      <point x="325.79999999999995" y="10.3" type="curve"/>
    </contour>
    <contour>
      <point x="320.8" y="47.0" type="line"/>
      <point x="330.2" y="44.4" type="line"/>
      <point x="287.79999999999995" y="167.3"/>
      <point x="175.1" y="276.2"/>
      <point x="69.10000000000001" y="328.90000000000003" type="curve"/>
      <point x="67.7" y="319.5" type="line"/>
      <point x="155.5" y="397.3"/>
      <point x="260.1" y="459.4"/>
      <point x="326.7" y="486.7" type="curve"/>
      <point x="320.8" y="497.8" type="line"/>
    </contour>
  </outline>
</glyph>
<glyph name="bha-beng" format="2">
  <advance width="512.6999999999999"/>
  <unicode hex="09AD"/>
  <anchor x="339.1" y="86.4" name="bottom"/>
  <anchor x="415.40000000000003" y="2.0" name="bottom.rakaar"/>
  <anchor x="351.9" y="113.0" name="bottom.rvocalic"/>
  <anchor x="324.1" y="58.0" name="bottom.virama"/>
  <anchor x="282.59999999999997" y="602.0" name="top"/>
  <anchor x="284.9" y="602.0" name="topright"/>
  <anchor x="255.99999999999997" y="0.0" name="vedic"/>
  <outline>
    <contour>
      <point x="319.09999999999997" y="112.0" type="curve" smooth="yes"/>
      <point x="401.0" y="112.0"/>
      <point x="472.40000000000003" y="164.1"/>
      <point x="472.40000000000003" y="300.0" type="curve" smooth="yes"/>
      <point x="472.40000000000003" y="388.3"/>
      <point x="439.7" y="446.0"/>
      <point x="407.09999999999997" y="480.0" type="curve"/>
      <point x="371.3" y="394.20000000000005"/>
      <point x="321.0" y="362.0"/>
      <point x="271.7" y="368.29999999999995" type="curve"/>
      <point x="274.90000000000003" y="361.0" type="line"/>
      <point x="289.7" y="366.0"/>
      <point x="296.0" y="384.7"/>
      <point x="296.0" y="402.70000000000005" type="curve" smooth="yes"/>
      <point x="296.0" y="429.0"/>
      <point x="280.7" y="448.0"/>
      <point x="254.5" y="448.0" type="curve" smooth="yes"/>
      <point x="228.0" y="448.0"/>
      <point x="212.7" y="429.1"/>
      <point x="212.7" y="402.0" type="curve" smooth="yes"/>
      <point x="212.7" y="372.0"/>
      <point x="233.7" y="344.0"/>
      <point x="281.9" y="344.0" type="curve" smooth="yes"/>
      <point x="329.3" y="344.0"/>
      <point x="379.8" y="367.09999999999997"/>
      <point x="419.79999999999995" y="451.0" type="curve"/>
      <point x="404.1" y="449.90000000000003" type="line"/>
      <point x="425.8" y="423.90000000000003"/>
      <point x="450.1" y="380.6"/>
      <point x="450.1" y="304.0" type="curve" smooth="yes"/>
      <point x="450.1" y="191.1"/>
      <point x="398.3" y="137.3"/>
      <point x="317.2" y="137.3" type="curve" smooth="yes"/>
      <point x="211.0" y="137.3"/>
      <point x="114.0" y="232.6"/>
      <point x="52.300000000000004" y="521.3000000000001" type="curve"/>
      <point x="33.3" y="517.0" type="line"/>
      <point x="98.89999999999999" y="197.2"/>
      <point x="206.29999999999998" y="112.0"/>
    </contour>
    <contour>
      <point x="-3.6000000000000005" y="602.0" type="line"/>
      <point x="528.9" y="602.0" type="line"/>
      <point x="516.3" y="622.0" type="line"/>
      <point x="-16.2" y="622.0" type="line"/>
    </contour>
  </outline>
</glyph>
<glyph name="ma-beng" format="2">
  <advance width="421.0"/>
  <unicode hex="09AE"/>
  <anchor x="326.0" y="49.6" name="bottom"/>
  <anchor x="338.4" y="29.0" name="bottom.rakaar"/>
  <anchor x="339.8" y="6.0" name="bottom.rvocalic"/>
  <anchor x="334.0" y="22.4" name="bottom.virama"/>
  <anchor x="344.0" y="602.0" name="top"/>
  <anchor x="340.7" y="602.0" name="topright"/>
  <anchor x="210.5" y="0.0" name="vedic"/>
  <outline>
    <contour>
      <point x="336.8" y="-3.0" type="line"/>
      <point x="339.8" y="-2.0" type="line"/>
      <point x="339.8" y="602.0" type="line"/>
      <point x="437.20000000000005" y="602.0" type="line"/>
      <point x="424.6" y="622.0" type="line"/>
      <point x="-16.2" y="622.0" type="line"/>
      <point x="-3.6000000000000005" y="602.0" type="line"/>
      <point x="43.5" y="602.0" type="line"/>
      <point x="42.0" y="614.9" type="line"/>
      <point x="30.199999999999996" y="595.0"/>
      <point x="23.800000000000004" y="573.3000000000001"/>
      <point x="23.800000000000004" y="551.2" type="curve" smooth="yes"/>
      <point x="23.800000000000004" y="490.0"/>
      <point x="58.49999999999999" y="468.0"/>
      <point x="103.80000000000001" y="448.40000000000003" type="curve" smooth="yes"/>
      <point x="153.8" y="427.20000000000005"/>
      <point x="188.1" y="403.0"/>
      <point x="188.1" y="330.6" type="curve" smooth="yes"/>
      <point x="188.1" y="303.0"/>
      <point x="180.7" y="290.0"/>
      <point x="172.8" y="281.0" type="curve"/>
      <point x="191.1" y="297.0" type="line"/>
      <point x="181.5" y="304.0"/>
      <point x="161.0" y="310.3"/>
      <point x="144.8" y="310.3" type="curve" smooth="yes"/>
      <point x="110.39999999999999" y="310.3"/>
      <point x="90.80000000000001" y="288.70000000000005"/>
      <point x="90.80000000000001" y="254.4" type="curve" smooth="yes"/>
      <point x="90.80000000000001" y="217.7"/>
      <point x="113.3" y="196.70000000000002"/>
      <point x="143.20000000000002" y="196.70000000000002" type="curve" smooth="yes"/>
      <point x="169.9" y="196.70000000000002"/>
      <point x="192.79999999999998" y="213.1"/>
      <point x="204.70000000000002" y="265.0" type="curve"/>
      <point x="190.8" y="264.0" type="line"/>
      <point x="266.5" y="238.60000000000002"/>
      <point x="312.09999999999997" y="116.29999999999998"/>
      <point x="322.5" y="10.299999999999999" type="curve"/>
    </contour>
    <contour>
      <point x="320.8" y="97.1" type="curve"/>
      <point x="325.2" y="97.1" type="line"/>
      <point x="308.3" y="188.5"/>
      <point x="255.89999999999998" y="266.7"/>
      <point x="200.0" y="291.0" type="curve"/>
      <point x="206.4" y="273.0" type="line"/>
      <point x="209.4" y="290.6"/>
      <point x="211.10000000000002" y="303.0"/>
      <point x="211.10000000000002" y="319.4" type="curve" smooth="yes"/>
      <point x="211.10000000000002" y="406.7"/>
      <point x="175.6" y="439.9"/>
      <point x="116.9" y="465.90000000000003" type="curve" smooth="yes"/>
      <point x="76.4" y="484.90000000000003"/>
      <point x="45.800000000000004" y="500.5"/>
      <point x="45.800000000000004" y="550.4" type="curve" smooth="yes"/>
      <point x="45.800000000000004" y="573.0"/>
      <point x="52.6" y="591.0"/>
      <point x="63.699999999999996" y="611.0" type="curve"/>
      <point x="52.3" y="602.0" type="line"/>
      <point x="317.5" y="602.0" type="line"/>
      <point x="317.5" y="257.8" type="line" smooth="yes"/>
      <point x="317.5" y="206.4"/>
      <point x="318.2" y="148.5"/>
    </contour>
  </outline>
</glyph>
<glyph name="ya-beng" format="2">
  <advance width="422.0"/>
  <unicode hex="09AF"/>
  <anchor x="332.2" y="11.0" name="bottom"/>
  <anchor x="339.4" y="29.0" name="bottom.rakaar"/>
  <anchor x="340.8" y="6.0" name="bottom.rvocalic"/>
  <anchor x="335.0" y="28.4" name="bottom.virama"/>
  <anchor x="166.9" y="92.89999999999999" name="nukta"/>
  <anchor x="345.0" y="602.0" name="top"/>
  <anchor x="341.7" y="602.0" name="topright"/>
  <anchor x="210.5" y="0.0" name="vedic"/>
  <outline>
    <contour>
      <point x="337.8" y="-3.0" type="line"/>
      <point x="340.8" y="-2.0" type="line"/>
      <point x="340.8" y="602.0" type="line"/>
      <point x="438.2" y="602.0" type="line"/>
      <point x="425.6" y="622.0" type="line"/>
      <point x="-16.2" y="622.0" type="line"/>
      <point x="7.1" y="585.7" type="line"/>
      <point x="100.89999999999999" y="551.8000000000001"/>
      <point x="167.7" y="486.0"/>
      <point x="210.3" y="417.0" type="curve"/>
      <point x="210.39999999999998" y="432.7" type="line"/>
      <point x="172.5" y="409.3"/>
      <point x="97.6" y="352.70000000000005"/>
      <point x="38.8" y="292.0" type="curve"/>
      <point x="54.9" y="264.0" type="line"/>
      <point x="167.2" y="228.8"/>
      <point x="271.09999999999997" y="146.29999999999998"/>
      <point x="323.5" y="10.3" type="curve"/>
    </contour>
    <contour>
      <point x="318.5" y="47.0" type="line"/>
      <point x="327.9" y="44.4" type="line"/>
      <point x="284.9" y="164.3"/>
      <point x="172.4" y="250.89999999999998"/>
      <point x="65.8" y="288.40000000000003" type="curve"/>
      <point x="63.7" y="279.0" type="line"/>
      <point x="115.6" y="335.0"/>
      <point x="176.5" y="379.9"/>
      <point x="232.3" y="418.0" type="curve"/>
      <point x="191.6" y="497.6"/>
      <point x="108.6" y="573.5"/>
      <point x="20.099999999999998" y="610.0" type="curve"/>
      <point x="24.0" y="602.0" type="line"/>
      <point x="318.5" y="602.0" type="line"/>
    </contour>
  </outline>
</glyph>
<glyph name="la-beng" format="2">
  <advance width="487.4"/>
  <unicode hex="09B2"/>
  <anchor x="390.6" y="60.0" name="bottom"/>
  <anchor x="404.8" y="-17.0" name="bottom.rakaar"/>
  <anchor x="406.20000000000005" y="-2.0999999999999996" name="bottom.rvocalic"/>
  <anchor x="399.8" y="5.0" name="bottom.virama"/>
  <anchor x="410.40000000000003" y="602.0" name="top"/>
  <anchor x="407.09999999999997" y="602.0" name="topright"/>
  <anchor x="243.2" y="0.0" name="vedic"/>
  <outline>
    <contour>
      <point x="403.2" y="-10.0" type="line"/>
      <point x="406.20000000000005" y="-9.0" type="line"/>
      <point x="406.20000000000005" y="602.0" type="line"/>
      <point x="503.6" y="602.0" type="line"/>
      <point x="491.0" y="622.0" type="line"/>
      <point x="-16.2" y="622.0" type="line"/>
      <point x="-3.6000000000000005" y="602.0" type="line"/>
      <point x="383.9" y="602.0" type="line"/>
      <point x="383.9" y="452.0" type="line" smooth="yes"/>
      <point x="383.9" y="398.5"/>
      <point x="385.9" y="357.2"/>
      <point x="388.20000000000005" y="330.0" type="curve"/>
      <point x="390.9" y="339.0" type="line"/>
      <point x="360.09999999999997" y="429.0"/>
      <point x="328.5" y="462.0"/>
      <point x="292.09999999999997" y="462.0" type="curve" smooth="yes"/>
      <point x="260.8" y="462.0"/>
      <point x="232.70000000000002" y="430.0"/>
      <point x="227.8" y="363.0" type="curve"/>
      <point x="233.8" y="367.0" type="line"/>
      <point x="214.1" y="423.4"/>
      <point x="177.8" y="464.0"/>
      <point x="123.70000000000002" y="464.0" type="curve" smooth="yes"/>
      <point x="68.6" y="464.0"/>
      <point x="25.400000000000002" y="420.3"/>
      <point x="25.400000000000002" y="340.6" type="curve" smooth="yes"/>
      <point x="25.400000000000002" y="258.5"/>
      <point x="74.4" y="195.3"/>
      <point x="144.89999999999998" y="195.3" type="curve" smooth="yes"/>
      <point x="182.6" y="195.3"/>
      <point x="202.79999999999998" y="218.4"/>
      <point x="202.79999999999998" y="251.3" type="curve" smooth="yes"/>
      <point x="202.79999999999998" y="281.0"/>
      <point x="185.2" y="301.0"/>
      <point x="157.3" y="301.0" type="curve" smooth="yes"/>
      <point x="130.3" y="301.0"/>
      <point x="113.1" y="281.0"/>
      <point x="113.1" y="254.0" type="curve" smooth="yes"/>
      <point x="113.1" y="234.0"/>
      <point x="122.10000000000001" y="219.0"/>
      <point x="132.4" y="213.0" type="curve"/>
      <point x="142.9" y="224.4" type="line"/>
      <point x="137.3" y="222.4"/>
      <point x="131.0" y="222.4"/>
      <point x="126.4" y="222.4" type="curve" smooth="yes"/>
      <point x="90.3" y="222.4"/>
      <point x="47.7" y="263.5"/>
      <point x="47.7" y="338.20000000000005" type="curve" smooth="yes"/>
      <point x="47.7" y="405.5"/>
      <point x="82.9" y="440.0"/>
      <point x="127.0" y="440.0" type="curve" smooth="yes"/>
      <point x="169.20000000000002" y="440.0"/>
      <point x="205.9" y="406.9"/>
      <point x="227.79999999999998" y="335.9" type="curve"/>
      <point x="244.1" y="330.0" type="line"/>
      <point x="249.7" y="406.0"/>
      <point x="270.2" y="438.0"/>
      <point x="296.5" y="438.0" type="curve" smooth="yes"/>
      <point x="332.4" y="438.0"/>
      <point x="363.2" y="379.3"/>
      <point x="389.0" y="292.3" type="curve"/>
      <point x="384.2" y="335.6" type="line"/>
      <point x="383.9" y="3.0" type="line"/>
    </contour>
  </outline>
</glyph>
<glyph name="sha-beng" format="2">
  <advance width="483.59999999999997"/>
  <unicode hex="09B6"/>
  <anchor x="386.8" y="60.0" name="bottom"/>
  <anchor x="401.0" y="-17.0" name="bottom.rakaar"/>
  <anchor x="402.4" y="-2.0999999999999996" name="bottom.rvocalic"/>
  <anchor x="396.0" y="5.0" name="bottom.virama"/>
  <anchor x="402.40000000000003" y="545.0" name="top"/>
  <anchor x="407.40000000000003" y="566.1" name="topright"/>
  <anchor x="241.29999999999998" y="0.0" name="vedic"/>
  <outline>
    <contour>
      <point x="399.40000000000003" y="-10.0" type="line"/>
      <point x="402.4" y="-9.0" type="line"/>
      <point x="402.4" y="602.0" type="line"/>
      <point x="499.8" y="602.0" type="line"/>
      <point x="487.2" y="622.0" type="line"/>
      <point x="402.4" y="622.0" type="line"/>
      <point x="400.09999999999997" y="661.0" type="line"/>
      <point x="383.40000000000003" y="674.0" type="line"/>
      <point x="380.1" y="673.0" type="line"/>
      <point x="380.1" y="565.0" type="line" smooth="yes"/>
      <point x="380.1" y="522.2"/>
      <point x="380.40000000000003" y="478.7"/>
      <point x="382.7" y="437.7" type="curve"/>
      <point x="389.0" y="433.0" type="line"/>
      <point x="350.9" y="552.3"/>
      <point x="312.5" y="629.0"/>
      <point x="257.79999999999995" y="629.0" type="curve" smooth="yes"/>
      <point x="226.5" y="629.0"/>
      <point x="191.7" y="605.0"/>
      <point x="157.7" y="504.0" type="curve"/>
      <point x="122.89999999999999" y="601.8"/>
      <point x="92.7" y="622.0"/>
      <point x="47.800000000000004" y="622.0" type="curve" smooth="yes"/>
      <point x="-16.2" y="622.0" type="line"/>
      <point x="-3.6000000000000005" y="602.0" type="line"/>
      <point x="44.1" y="602.0" type="line" smooth="yes"/>
      <point x="85.9" y="602.0"/>
      <point x="108.60000000000001" y="582.0"/>
      <point x="144.39999999999998" y="484.0" type="curve"/>
      <point x="151.4" y="494.0" type="line"/>
      <point x="101.1" y="477.0"/>
      <point x="60.99999999999999" y="443.0"/>
      <point x="60.99999999999999" y="402.0" type="curve" smooth="yes"/>
      <point x="60.99999999999999" y="366.0"/>
      <point x="82.2" y="351.0"/>
      <point x="101.0" y="351.0" type="curve" smooth="yes"/>
      <point x="129.0" y="351.0"/>
      <point x="156.4" y="374.0"/>
      <point x="161.7" y="432.0" type="curve"/>
      <point x="170.6" y="370.0"/>
      <point x="192.3" y="351.0"/>
      <point x="217.8" y="351.0" type="curve" smooth="yes"/>
      <point x="241.9" y="351.0"/>
      <point x="257.8" y="370.0"/>
      <point x="257.8" y="401.0" type="curve" smooth="yes"/>
      <point x="257.8" y="447.3"/>
      <point x="210.8" y="487.0"/>
      <point x="171.4" y="492.0" type="curve"/>
      <point x="176.0" y="481.0" type="line"/>
      <point x="198.4" y="564.0"/>
      <point x="227.6" y="605.0"/>
      <point x="259.2" y="605.0" type="curve" smooth="yes"/>
      <point x="308.4" y="605.0"/>
      <point x="344.5" y="516.3"/>
      <point x="383.40000000000003" y="396.6" type="curve"/>
      <point x="380.1" y="426.4" type="line"/>
      <point x="380.1" y="3.0" type="line"/>
    </contour>
  </outline>
</glyph>
<glyph name="ssa-beng" format="2">
  <advance width="422.0"/>
  <unicode hex="09B7"/>
  <anchor x="332.2" y="11.0" name="bottom"/>
  <anchor x="339.4" y="29.0" name="bottom.rakaar"/>
  <anchor x="340.8" y="6.0" name="bottom.rvocalic"/>
  <anchor x="335.0" y="22.4" name="bottom.virama"/>
  <anchor x="345.0" y="602.0" name="top"/>
  <anchor x="341.7" y="602.0" name="topright"/>
  <anchor x="210.5" y="0.0" name="vedic"/>
  <outline>
    <contour>
      <point x="337.8" y="-3.0" type="line"/>
      <point x="340.8" y="-2.0" type="line"/>
      <point x="340.8" y="602.0" type="line"/>
      <point x="438.2" y="602.0" type="line"/>
      <point x="425.6" y="622.0" type="line"/>
      <point x="-16.2" y="622.0" type="line"/>
      <point x="7.1" y="585.7" type="line"/>
      <point x="130.8" y="553.7"/>
      <point x="251.5" y="417.59999999999997"/>
      <point x="324.70000000000005" y="313.90000000000003" type="curve"/>
      <point x="326.8" y="335.90000000000003" type="line"/>
      <point x="293.09999999999997" y="400.0"/>
      <point x="143.79999999999998" y="571.0"/>
      <point x="18.1" y="610.0" type="curve"/>
      <point x="23.4" y="602.0" type="line"/>
      <point x="318.5" y="602.0" type="line"/>
      <point x="318.5" y="47.0" type="line"/>
      <point x="327.9" y="44.4" type="line"/>
      <point x="284.9" y="164.3"/>
      <point x="172.39999999999998" y="250.9"/>
      <point x="62.3" y="289.8" type="curve"/>
      <point x="60.2" y="279.0" type="line"/>
      <point x="103.30000000000001" y="335.0"/>
      <point x="178.8" y="398.1"/>
      <point x="236.1" y="441.5" type="curve"/>
      <point x="218.2" y="457.5" type="line"/>
      <point x="171.29999999999998" y="423.3"/>
      <point x="86.0" y="349.2"/>
      <point x="36.7" y="292.0" type="curve"/>
      <point x="54.9" y="264.0" type="line"/>
      <point x="167.20000000000002" y="228.8"/>
      <point x="271.09999999999997" y="146.3"/>
      <point x="323.5" y="10.3" type="curve"/>
    </contour>
  </outline>
</glyph>
<glyph name="sa-beng" format="2">
  <advance width="473.7"/>
  <unicode hex="09B8"/>
  <anchor x="376.90000000000003" y="60.0" name="bottom"/>
  <anchor x="391.1" y="-17.0" name="bottom.rakaar"/>
  <anchor x="392.5" y="-2.0999999999999996" name="bottom.rvocalic"/>
  <anchor x="386.1" y="5.0" name="bottom.virama"/>
  <anchor x="396.70000000000005" y="602.0" name="top"/>
  <anchor x="393.4" y="602.0" name="topright"/>
  <anchor x="236.7" y="0.0" name="vedic"/>
  <outline>
    <contour>
      <point x="389.5" y="-10.0" type="line"/>
      <point x="392.5" y="-9.0" type="line"/>
      <point x="392.5" y="602.0" type="line"/>
      <point x="489.9" y="602.0" type="line"/>
      <point x="477.3" y="622.0" type="line"/>
      <point x="-16.2" y="622.0" type="line"/>
      <point x="8.100000000000001" y="586.0" type="line"/>
      <point x="19.0" y="588.0"/>
      <point x="28.9" y="588.0"/>
      <point x="43.4" y="588.0" type="curve" smooth="yes"/>
      <point x="122.0" y="588.0"/>
      <point x="220.9" y="542.0"/>
      <point x="221.0" y="310.0" type="curve"/>
      <point x="236.29999999999998" y="338.7" type="line"/>
      <point x="237.20000000000002" y="526.7"/>
      <point x="154.4" y="606.3"/>
      <point x="48.0" y="612.0" type="curve"/>
      <point x="49.0" y="601.0" type="line"/>
      <point x="370.2" y="602.0" type="line"/>
      <point x="370.2" y="501.0" type="line" smooth="yes"/>
      <point x="370.2" y="444.5"/>
      <point x="371.5" y="400.29999999999995"/>
      <point x="373.5" y="374.0" type="curve"/>
      <point x="379.1" y="371.3" type="line"/>
      <point x="356.5" y="430.4"/>
      <point x="332.0" y="458.0"/>
      <point x="303.59999999999997" y="458.0" type="curve" smooth="yes"/>
      <point x="276.8" y="458.0"/>
      <point x="249.60000000000002" y="435.0"/>
      <point x="222.3" y="341.0" type="curve" smooth="yes"/>
      <point x="192.7" y="240.7"/>
      <point x="169.70000000000002" y="205.0"/>
      <point x="135.7" y="205.0" type="curve" smooth="yes"/>
      <point x="98.2" y="205.0"/>
      <point x="64.8" y="266.0"/>
      <point x="48.300000000000004" y="301.0" type="curve"/>
      <point x="31.6" y="293.0" type="line"/>
      <point x="52.800000000000004" y="246.0"/>
      <point x="87.9" y="179.0"/>
      <point x="136.7" y="179.0" type="curve" smooth="yes"/>
      <point x="174.29999999999998" y="179.0"/>
      <point x="201.79999999999998" y="199.0"/>
      <point x="237.29999999999998" y="312.0" type="curve" smooth="yes"/>
      <point x="267.4" y="406.9"/>
      <point x="285.6" y="432.7"/>
      <point x="308.3" y="432.7" type="curve" smooth="yes"/>
      <point x="333.0" y="432.7"/>
      <point x="354.1" y="395.4"/>
      <point x="376.09999999999997" y="335.8" type="curve"/>
      <point x="370.2" y="372.0" type="line"/>
      <point x="370.2" y="3.0" type="line"/>
    </contour>
  </outline>
</glyph>
<glyph name="ha-beng" format="2">
  <advance width="375.7"/>
  <unicode hex="09B9"/>
  <anchor x="216.8" y="101.9" name="bottom"/>
  <anchor x="306.4" y="-100.0" name="bottom.rakaar"/>
  <anchor x="247.2" y="105.7" name="bottom.rvocalic"/>
  <anchor x="190.5" y="90.0" name="bottom.virama"/>
  <anchor x="192.1" y="602.0" name="top"/>
  <anchor x="192.3" y="602.0" name="topright"/>
  <anchor x="187.7" y="0.0" name="vedic"/>
  <outline>
    <contour>
      <point x="361.40000000000003" y="-38.9" type="curve"/>
      <point x="374.7" y="-25.0" type="line"/>
      <point x="322.9" y="53.0"/>
      <point x="225.7" y="161.8"/>
      <point x="97.6" y="212.1" type="curve"/>
      <point x="100.1" y="203.8" type="line"/>
      <point x="123.10000000000001" y="199.5"/>
      <point x="138.5" y="197.9"/>
      <point x="157.5" y="197.9" type="curve" smooth="yes"/>
      <point x="254.0" y="197.9"/>
      <point x="323.3" y="257.1"/>
      <point x="323.3" y="360.20000000000005" type="curve" smooth="yes"/>
      <point x="323.3" y="454.40000000000003"/>
      <point x="268.8" y="510.0"/>
      <point x="174.9" y="510.0" type="curve" smooth="yes"/>
      <point x="106.2" y="510.0"/>
      <point x="76.7" y="487.9"/>
      <point x="76.7" y="447.3" type="curve" smooth="yes"/>
      <point x="76.7" y="412.3"/>
      <point x="99.0" y="396.0"/>
      <point x="125.2" y="396.0" type="curve" smooth="yes"/>
      <point x="162.70000000000002" y="396.0"/>
      <point x="177.3" y="425.70000000000005"/>
      <point x="177.3" y="462.0" type="curve" smooth="yes"/>
      <point x="177.3" y="508.40000000000003"/>
      <point x="150.4" y="566.8"/>
      <point x="102.3" y="606.0" type="curve"/>
      <point x="64.5" y="606.0" type="line"/>
      <point x="111.0" y="578.0"/>
      <point x="142.1" y="541.0"/>
      <point x="154.3" y="487.0" type="curve"/>
      <point x="143.8" y="471.0" type="line"/>
      <point x="158.1" y="480.0"/>
      <point x="172.4" y="484.3"/>
      <point x="190.9" y="484.3" type="curve" smooth="yes"/>
      <point x="257.6" y="484.3"/>
      <point x="301.0" y="441.40000000000003"/>
      <point x="301.0" y="365.20000000000005" type="curve" smooth="yes"/>
      <point x="301.0" y="261.2"/>
      <point x="232.3" y="222.20000000000002"/>
      <point x="156.6" y="222.20000000000002" type="curve" smooth="yes"/>
      <point x="111.10000000000001" y="222.20000000000002"/>
      <point x="80.19999999999999" y="231.9"/>
      <point x="54.599999999999994" y="246.9" type="curve"/>
      <point x="68.8" y="193.89999999999998" type="line"/>
      <point x="189.6" y="159.1"/>
      <point x="293.8" y="60.199999999999996"/>
    </contour>
    <contour>
      <point x="-3.6000000000000005" y="602.0" type="line"/>
      <point x="391.9" y="602.0" type="line"/>
      <point x="379.3" y="622.0" type="line"/>
      <point x="-16.2" y="622.0" type="line"/>
    </contour>
  </outline>
</glyph>
<glyph name="nukta-beng" format="2">
  <unicode hex="09BC"/>
  <anchor x="0.0" y="-105.0" name="_nukta"/>
  <outline>
    <contour>
      <point x="0.0" y="-144.0" type="curve" smooth="yes"/>
      <point x="20.200000000000003" y="-144.0"/>
      <point x="37.8" y="-128.0"/>
      <point x="37.8" y="-104.0" type="curve" smooth="yes"/>
      <point x="37.8" y="-79.0"/>
      <point x="20.2" y="-63.00000000000001"/>
      <point x="0.0" y="-63.00000000000001" type="curve" smooth="yes"/>
      <point x="-20.9" y="-63.00000000000001"/>
      <point x="-38.5" y="-79.0"/>
      <point x="-38.5" y="-104.0" type="curve" smooth="yes"/>
      <point x="-38.5" y="-128.0"/>
      <point x="-20.900000000000002" y="-144.0"/>
    </contour>
  </outline>
</glyph>
<glyph name="avagraha-beng" format="2">
  <advance width="382.5"/>
  <unicode hex="09BD"/>
  <anchor x="196.8" y="602.0" name="top"/>
  <anchor x="174.2" y="602.0" name="topright"/>
  <outline>
    <contour>
      <point x="364.40000000000003" y="-38.9" type="curve"/>
      <point x="377.4" y="-25.9" type="line"/>
      <point x="325.59999999999997" y="52.1"/>
      <point x="228.7" y="161.8"/>
      <point x="100.6" y="212.1" type="curve"/>
      <point x="103.1" y="203.8" type="line"/>
      <point x="126.1" y="199.5"/>
      <point x="141.5" y="197.9"/>
      <point x="160.5" y="197.9" type="curve" smooth="yes"/>
      <point x="257.0" y="197.9"/>
      <point x="326.0" y="256.8"/>
      <point x="326.0" y="359.0" type="curve" smooth="yes"/>
      <point x="326.0" y="453.20000000000005"/>
      <point x="270.0" y="509.4"/>
      <point x="177.29999999999998" y="509.4" type="curve" smooth="yes"/>
      <point x="109.5" y="509.4"/>
      <point x="80.6" y="487.59999999999997"/>
      <point x="80.6" y="447.3" type="curve" smooth="yes"/>
      <point x="80.6" y="412.90000000000003"/>
      <point x="102.6" y="396.6"/>
      <point x="128.5" y="396.6" type="curve" smooth="yes"/>
      <point x="165.4" y="396.6"/>
      <point x="179.70000000000002" y="426.0"/>
      <point x="179.70000000000002" y="462.0" type="curve" smooth="yes"/>
      <point x="179.70000000000002" y="509.3"/>
      <point x="151.89999999999998" y="571.8000000000001"/>
      <point x="89.0" y="622.0" type="curve"/>
      <point x="-16.2" y="622.0" type="line"/>
      <point x="-3.6" y="602.0" type="line"/>
      <point x="89.6" y="602.0" type="line"/>
      <point x="73.1" y="606.0" type="line"/>
      <point x="113.3" y="578.0"/>
      <point x="144.79999999999998" y="540.6999999999999"/>
      <point x="157.0" y="486.7" type="curve"/>
      <point x="146.5" y="470.7" type="line"/>
      <point x="160.8" y="479.7"/>
      <point x="174.79999999999998" y="484.0"/>
      <point x="193.0" y="484.0" type="curve" smooth="yes"/>
      <point x="258.8" y="484.0"/>
      <point x="304.0" y="440.2"/>
      <point x="304.0" y="364.0" type="curve" smooth="yes"/>
      <point x="304.0" y="260.9"/>
      <point x="235.3" y="222.20000000000002"/>
      <point x="159.6" y="222.20000000000002" type="curve" smooth="yes"/>
      <point x="114.10000000000001" y="222.20000000000002"/>
      <point x="83.19999999999999" y="231.9"/>
      <point x="57.599999999999994" y="246.9" type="curve"/>
      <point x="71.8" y="193.89999999999998" type="line"/>
      <point x="192.6" y="159.1"/>
      <point x="296.8" y="60.199999999999996"/>
    </contour>
  </outline>
</glyph>
<glyph name="aaMatra-beng" format="2">
  <advance width="184.7"/>
  <unicode hex="09BE"/>
  <anchor x="-150.4" y="0.0" name="vedic"/>
  <outline>
    <contour>
      <point x="100.5" y="-10.0" type="line"/>
      <point x="103.5" y="-9.0" type="line"/>
      <point x="103.5" y="602.0" type="line"/>
      <point x="200.9" y="602.0" type="line"/>
      <point x="188.3" y="622.0" type="line"/>
      <point x="103.5" y="622.0" type="line"/>
      <point x="101.2" y="661.0" type="line"/>
      <point x="84.5" y="674.0" type="line"/>
      <point x="81.2" y="673.0" type="line"/>
      <point x="81.2" y="618.0" type="line" smooth="yes"/>
      <point x="81.2" y="602.8000000000001"/>
      <point x="82.2" y="579.1"/>
      <point x="83.5" y="547.9" type="curve"/>
      <point x="89.1" y="547.3" type="line"/>
      <point x="80.3" y="612.0999999999999"/>
      <point x="49.2" y="622.0"/>
      <point x="24.9" y="622.0" type="curve" smooth="yes"/>
      <point x="-16.2" y="622.0" type="line"/>
      <point x="-3.6000000000000005" y="602.0" type="line"/>
      <point x="20.3" y="602.0" type="line" smooth="yes"/>
      <point x="55.199999999999996" y="602.0"/>
      <point x="75.60000000000001" y="578.0"/>
      <point x="81.2" y="514.0" type="curve"/>
      <point x="81.2" y="3.0" type="line"/>
    </contour>
  </outline>
</glyph>
<glyph name="iMatra-beng" format="2">
  <advance width="184.7"/>
  <unicode hex="09BF"/>
  <anchor x="534.7" y="602.0" name="top"/>
  <anchor x="435.2" y="572.0" name="topright"/>
  <outline>
    <contour>
      <point x="100.5" y="-10.0" type="line"/>
      <point x="103.5" y="-9.0" type="line"/>
      <point x="103.5" y="602.0" type="line"/>
      <point x="201.20000000000002" y="602.0" type="line"/>
      <point x="188.60000000000002" y="622.0" type="line"/>
      <point x="101.9" y="622.0" type="line"/>
      <point x="86.3" y="645.1"/>
      <point x="59.300000000000004" y="684.8000000000001"/>
      <point x="48.0" y="707.6999999999999" type="curve"/>
      <point x="76.7" y="784.4"/>
      <point x="150.39999999999998" y="857.0"/>
      <point x="235.0" y="857.0" type="curve" smooth="yes"/>
      <point x="322.0" y="857.0"/>
      <point x="413.20000000000005" y="798.9"/>
      <point x="503.49999999999994" y="693.0" type="curve"/>
      <point x="516.1999999999999" y="708.0" type="line"/>
      <point x="429.1" y="812.3000000000001"/>
      <point x="328.59999999999997" y="880.0"/>
      <point x="232.6" y="880.0" type="curve" smooth="yes"/>
      <point x="150.1" y="880.0"/>
      <point x="68.89999999999999" y="825.0999999999999"/>
      <point x="20.4" y="707.6" type="curve"/>
      <point x="39.099999999999994" y="676.5"/>
      <point x="61.099999999999994" y="647.0"/>
      <point x="78.6" y="622.0" type="curve"/>
      <point x="-16.2" y="622.0" type="line"/>
      <point x="-3.6000000000000005" y="602.0" type="line"/>
      <point x="81.2" y="602.0" type="line"/>
      <point x="81.2" y="3.0" type="line"/>
    </contour>
  </outline>
</glyph>
<glyph name="iiMatra-beng" format="2">
  <advance width="184.7"/>
  <unicode hex="09C0"/>
  <anchor x="103.2" y="653.0" name="top"/>
  <anchor x="-28.0" y="602.0" name="topright"/>
  <anchor x="-150.4" y="0.0" name="vedic"/>
  <outline>
    <contour>
      <point x="100.5" y="-10.0" type="line"/>
      <point x="103.5" y="-9.0" type="line"/>
      <point x="103.5" y="602.0" type="line"/>
      <point x="200.9" y="602.0" type="line"/>
      <point x="188.3" y="622.0" type="line"/>
      <point x="102.5" y="622.0" type="line"/>
      <point x="89.10000000000001" y="837.2"/>
      <point x="-39.2" y="888.0"/>
      <point x="-177.0" y="888.0" type="curve" smooth="yes"/>
      <point x="-280.7" y="888.0"/>
      <point x="-357.0" y="843.9"/>
      <point x="-357.0" y="780.5" type="curve" smooth="yes"/>
      <point x="-357.0" y="735.1"/>
      <point x="-321.7" y="712.1"/>
      <point x="-272.4" y="712.1" type="curve" smooth="yes"/>
      <point x="-233.9" y="712.1"/>
      <point x="-200.5" y="720.3"/>
      <point x="-164.10000000000002" y="720.3" type="curve" smooth="yes"/>
      <point x="-117.0" y="720.3"/>
      <point x="-103.5" y="697.6"/>
      <point x="-103.5" y="619.0" type="curve"/>
      <point x="-80.9" y="619.0" type="line"/>
      <point x="-82.2" y="644.6" type="line" smooth="yes"/>
      <point x="-85.8" y="709.1"/>
      <point x="-109.1" y="742.3"/>
      <point x="-164.1" y="742.3" type="curve" smooth="yes"/>
      <point x="-200.79999999999998" y="742.3"/>
      <point x="-228.6" y="734.1"/>
      <point x="-270.20000000000005" y="734.1" type="curve" smooth="yes"/>
      <point x="-318.29999999999995" y="734.1"/>
      <point x="-335.3" y="751.6999999999999"/>
      <point x="-335.3" y="781.1" type="curve" smooth="yes"/>
      <point x="-335.3" y="836.3000000000001"/>
      <point x="-257.7" y="866.0"/>
      <point x="-171.5" y="866.0" type="curve" smooth="yes"/>
      <point x="-23.5" y="866.0"/>
      <point x="70.10000000000001" y="803.2"/>
      <point x="80.5" y="622.0" type="curve"/>
      <point x="-14.399999999999999" y="622.0" type="line"/>
      <point x="-1.7999999999999996" y="602.0" type="line"/>
      <point x="81.2" y="602.0" type="line"/>
      <point x="81.2" y="3.0" type="line"/>
    </contour>
  </outline>
</glyph>
<glyph name="uMatra-beng" format="2">
  <unicode hex="09C1"/>
  <anchor x="0.0" y="0.0" name="_bottom"/>
  <outline>
    <contour>
      <point x="125.2" y="-233.6" type="curve"/>
      <point x="141.5" y="-225.0" type="line"/>
      <point x="86.9" y="-107.30000000000001"/>
      <point x="18.0" y="-29.0"/>
      <point x="-86.39999999999999" y="-29.0" type="curve" smooth="yes"/>
      <point x="-138.60000000000002" y="-29.0"/>
      <point x="-179.7" y="-56.1"/>
      <point x="-179.7" y="-119.4" type="curve" smooth="yes"/>
      <point x="-179.7" y="-182.89999999999998"/>
      <point x="-137.6" y="-220.0"/>
      <point x="-89.19999999999999" y="-220.0" type="curve" smooth="yes"/>
      <point x="-19.9" y="-220.0"/>
      <point x="15.0" y="-153.3"/>
      <point x="15.0" y="-78.1" type="curve" smooth="yes"/>
      <point x="15.0" y="-46.099999999999994"/>
      <point x="13.3" y="-17.4"/>
      <point x="-1.0" y="42.0" type="curve"/>
      <point x="-17.0" y="30.0" type="line"/>
      <point x="-6.0" y="-19.1"/>
      <point x="-5.0" y="-44.9"/>
      <point x="-5.0" y="-65.9" type="curve" smooth="yes"/>
      <point x="-5.0" y="-142.0"/>
      <point x="-37.2" y="-196.7"/>
      <point x="-87.0" y="-196.7" type="curve" smooth="yes"/>
      <point x="-125.60000000000001" y="-196.7"/>
      <point x="-156.1" y="-168.7"/>
      <point x="-156.1" y="-119.5" type="curve" smooth="yes"/>
      <point x="-156.1" y="-76.5"/>
      <point x="-127.7" y="-52.6"/>
      <point x="-85.7" y="-52.6" type="curve" smooth="yes"/>
      <point x="13.5" y="-52.6"/>
      <point x="71.1" y="-128.6"/>
    </contour>
  </outline>
</glyph>
<glyph name="uuMatra-beng" format="2">
  <unicode hex="09C2"/>
  <anchor x="0.0" y="0.0" name="_bottom"/>
  <outline>
    <contour>
      <point x="131.0" y="-257.6" type="curve"/>
      <point x="146.0" y="-247.0" type="line"/>
      <point x="94.9" y="-179.0"/>
      <point x="55.1" y="-149.1"/>
      <point x="20.0" y="-125.3" type="curve"/>
      <point x="2.8999999999999995" y="-162.3"/>
      <point x="-30.7" y="-202.0"/>
      <point x="-76.10000000000001" y="-202.0" type="curve" smooth="yes"/>
      <point x="-120.60000000000001" y="-202.0"/>
      <point x="-148.4" y="-166.8"/>
      <point x="-148.4" y="-122.8" type="curve" smooth="yes"/>
      <point x="-148.4" y="-80.8"/>
      <point x="-123.8" y="-52.6"/>
      <point x="-78.4" y="-52.6" type="curve" smooth="yes"/>
      <point x="-47.3" y="-52.6"/>
      <point x="-20.3" y="-62.2"/>
      <point x="-1.9000000000000001" y="-73.1" type="curve"/>
      <point x="15.0" y="-66.2" type="line"/>
      <point x="14.3" y="-39.099999999999994"/>
      <point x="11.9" y="-11.1"/>
      <point x="-1.0" y="42.0" type="curve"/>
      <point x="-17.0" y="30.0" type="line"/>
      <point x="-6.0" y="-19.1"/>
      <point x="-5.0" y="-44.199999999999996"/>
      <point x="-5.0" y="-57.5" type="curve"/>
      <point x="1.3999999999999995" y="-52.0" type="line"/>
      <point x="-22.5" y="-37.4"/>
      <point x="-52.0" y="-29.0"/>
      <point x="-82.1" y="-29.0" type="curve" smooth="yes"/>
      <point x="-129.9" y="-29.0"/>
      <point x="-172.39999999999998" y="-55.5"/>
      <point x="-172.39999999999998" y="-121.5" type="curve" smooth="yes"/>
      <point x="-172.39999999999998" y="-189.4"/>
      <point x="-127.60000000000001" y="-226.0"/>
      <point x="-76.4" y="-226.0" type="curve" smooth="yes"/>
      <point x="-31.700000000000003" y="-226.0"/>
      <point x="4.099999999999999" y="-201.1"/>
      <point x="36.0" y="-148.0" type="curve"/>
      <point x="14.399999999999999" y="-150.0" type="line"/>
      <point x="42.300000000000004" y="-165.1"/>
      <point x="89.7" y="-203.0"/>
    </contour>
  </outline>
</glyph>
<glyph name="rVocalicMatra-beng" format="2">
  <unicode hex="09C3"/>
  <anchor x="0.0" y="0.0" name="_bottom.rvocalic"/>
  <outline>
    <contour>
      <point x="38.7" y="-225.70000000000002" type="curve"/>
      <point x="47.099999999999994" y="-212.0" type="line"/>
      <point x="5.5" y="-163.7"/>
      <point x="-49.5" y="-117.7"/>
      <point x="-119.6" y="-80.0" type="curve"/>
      <point x="-118.2" y="-90.0" type="line"/>
      <point x="-82.3" y="-57.0"/>
      <point x="-35.5" y="-27.0"/>
      <point x="0.0" y="-9.0" type="curve"/>
      <point x="0.0" y="-2.0" type="line"/>
      <point x="-10.0" y="15.0" type="line"/>
      <point x="-50.6" y="-8.0"/>
      <point x="-110.1" y="-47.3"/>
      <point x="-147.2" y="-80.0" type="curve"/>
      <point x="-130.6" y="-101.0" type="line"/>
      <point x="-73.0" y="-124.0"/>
      <point x="-14.299999999999999" y="-170.4"/>
    </contour>
  </outline>
</glyph>
<glyph name="rrVocalicMatra-beng" format="2">
  <unicode hex="09C4"/>
  <anchor x="0.0" y="0.0" name="_bottom.rvocalic"/>
  <outline>
    <contour>
      <point x="38.7" y="-221.5" type="curve"/>
      <point x="47.1" y="-207.8" type="line"/>
      <point x="6.700000000000002" y="-162.20000000000002"/>
      <point x="-46.5" y="-117.7"/>
      <point x="-119.6" y="-80.0" type="curve"/>
      <point x="-118.2" y="-90.0" type="line"/>
      <point x="-82.3" y="-57.0"/>
      <point x="-35.5" y="-27.0"/>
      <point x="0.0" y="-9.0" type="curve"/>
      <point x="0.0" y="-2.0" type="line"/>
      <point x="-10.0" y="15.0" type="line"/>
      <point x="-50.6" y="-8.0"/>
      <point x="-110.1" y="-47.3"/>
      <point x="-147.2" y="-80.0" type="curve"/>
      <point x="-130.6" y="-101.0" type="line"/>
      <point x="-70.0" y="-124.0"/>
      <point x="-13.099999999999998" y="-168.89999999999998"/>
    </contour>
    <contour>
      <point x="-2.1999999999999957" y="-214.6" type="curve"/>
      <point x="-12.699999999999996" y="-198.79999999999998" type="line"/>
      <point x="-45.99999999999999" y="-199.39999999999998"/>
      <point x="-87.5" y="-201.0"/>
      <point x="-130.89999999999998" y="-205.29999999999998" type="curve"/>
      <point x="-119.7" y="-223.0" type="line"/>
      <point x="-75.60000000000001" y="-232.8"/>
      <point x="-34.9" y="-252.79999999999998"/>
      <point x="11.199999999999996" y="-285.6" type="curve"/>
      <point x="10.299999999999997" y="-271.9" type="line"/>
      <point x="-28.0" y="-244.6"/>
      <point x="-70.1" y="-226.79999999999998"/>
      <point x="-120.7" y="-205.9" type="curve"/>
      <point x="-113.9" y="-218.6" type="line"/>
      <point x="-76.0" y="-209.4"/>
      <point x="-34.3" y="-210.3"/>
    </contour>
  </outline>
</glyph>
<glyph name="eMatra-beng" format="2">
  <advance width="290.6"/>
  <unicode hex="09C7"/>
  <outline>
    <contour>
      <point x="205.7" y="1.0" type="curve" smooth="yes"/>
      <point x="237.9" y="1.0"/>
      <point x="259.9" y="20.299999999999997"/>
      <point x="259.9" y="54.0" type="curve" smooth="yes"/>
      <point x="259.9" y="85.3"/>
      <point x="239.5" y="105.0"/>
      <point x="212.29999999999998" y="105.0" type="curve" smooth="yes"/>
      <point x="184.29999999999998" y="105.0"/>
      <point x="164.7" y="86.0"/>
      <point x="164.7" y="57.3" type="curve" smooth="yes"/>
      <point x="164.7" y="41.0"/>
      <point x="167.7" y="31.0"/>
      <point x="178.7" y="21.0" type="curve"/>
      <point x="185.20000000000002" y="27.700000000000003" type="line"/>
      <point x="126.5" y="43.7"/>
      <point x="73.1" y="141.7"/>
      <point x="73.1" y="290.0" type="curve" smooth="yes"/>
      <point x="73.1" y="471.0"/>
      <point x="169.4" y="602.0"/>
      <point x="258.4" y="602.0" type="curve" smooth="yes"/>
      <point x="306.8" y="602.0" type="line"/>
      <point x="293.5" y="622.0" type="line"/>
      <point x="-16.2" y="622.0" type="line"/>
      <point x="-3.5999999999999996" y="602.0" type="line"/>
      <point x="200.39999999999998" y="602.0" type="line"/>
      <point x="197.20000000000002" y="608.0" type="line"/>
      <point x="130.3" y="582.0"/>
      <point x="49.8" y="465.3"/>
      <point x="49.8" y="294.0" type="curve" smooth="yes"/>
      <point x="49.8" y="105.0"/>
      <point x="127.2" y="1.0"/>
    </contour>
  </outline>
</glyph>
<glyph name="aiMatra-beng" format="2">
  <advance width="290.6"/>
  <unicode hex="09C8"/>
  <outline>
    <contour>
      <point x="260.7" y="618.0" type="curve"/>
      <point x="279.7" y="618.0" type="line"/>
      <point x="276.2" y="722.8"/>
      <point x="247.8" y="768.3000000000001"/>
      <point x="174.7" y="768.3000000000001" type="curve" smooth="yes"/>
      <point x="141.6" y="768.3000000000001"/>
      <point x="109.6" y="760.2"/>
      <point x="72.0" y="760.2" type="curve" smooth="yes"/>
      <point x="27.6" y="760.2"/>
      <point x="-6.800000000000001" y="780.9"/>
      <point x="-6.800000000000001" y="857.5" type="curve" smooth="yes"/>
      <point x="-6.800000000000001" y="869.9"/>
      <point x="-5.800000000000001" y="885.0"/>
      <point x="-3.8" y="898.0" type="curve"/>
      <point x="-21.1" y="900.0" type="line"/>
      <point x="-23.1" y="888.6"/>
      <point x="-25.099999999999998" y="871.0"/>
      <point x="-25.099999999999998" y="856.0" type="curve" smooth="yes"/>
      <point x="-25.099999999999998" y="764.1999999999999"/>
      <point x="18.799999999999997" y="738.1999999999999"/>
      <point x="72.0" y="738.1999999999999" type="curve" smooth="yes"/>
      <point x="110.6" y="738.1999999999999"/>
      <point x="137.79999999999998" y="746.3000000000001"/>
      <point x="181.4" y="746.3000000000001" type="curve" smooth="yes"/>
      <point x="244.5" y="746.3000000000001"/>
      <point x="257.1" y="693.0"/>
    </contour>
    <component base="eMatra-beng"/>
  </outline>
</glyph>
<glyph name="taKhanda-beng" format="2">
  <advance width="424.3"/>
  <unicode hex="09CE"/>
  <anchor x="234.5" y="602.0" name="top"/>
  <anchor x="205.7" y="602.0" name="topright"/>
  <outline>
    <contour>
      <point x="374.6" y="-12.0" type="line"/>
      <point x="385.5" y="15.0"/>
      <point x="393.4" y="46.6"/>
      <point x="393.4" y="79.0" type="curve" smooth="yes"/>
      <point x="393.4" y="147.29999999999998"/>
      <point x="360.09999999999997" y="190.0"/>
      <point x="241.8" y="227.0" type="curve" smooth="yes"/>
      <point x="130.39999999999998" y="262.0"/>
      <point x="84.8" y="317.29999999999995"/>
      <point x="84.8" y="402.0" type="curve" smooth="yes"/>
      <point x="84.8" y="518.2"/>
      <point x="149.5" y="577.0"/>
      <point x="214.39999999999998" y="577.0" type="curve" smooth="yes"/>
      <point x="272.2" y="577.0"/>
      <point x="292.40000000000003" y="538.0"/>
      <point x="292.40000000000003" y="492.6" type="curve" smooth="yes"/>
      <point x="292.40000000000003" y="439.3"/>
      <point x="272.4" y="404.0"/>
      <point x="236.2" y="404.0" type="curve" smooth="yes"/>
      <point x="198.4" y="404.0"/>
      <point x="161.3" y="438.2"/>
      <point x="143.39999999999998" y="558.2" type="curve"/>
      <point x="123.0" y="552.2" type="line"/>
      <point x="140.1" y="440.3"/>
      <point x="175.1" y="377.0"/>
      <point x="236.5" y="377.0" type="curve" smooth="yes"/>
      <point x="287.70000000000005" y="377.0"/>
      <point x="314.7" y="424.8"/>
      <point x="314.7" y="492.9" type="curve" smooth="yes"/>
      <point x="314.7" y="556.6"/>
      <point x="283.7" y="602.0"/>
      <point x="216.4" y="602.0" type="curve" smooth="yes"/>
      <point x="114.9" y="602.0"/>
      <point x="62.50000000000001" y="507.5"/>
      <point x="62.50000000000001" y="403.0" type="curve" smooth="yes"/>
      <point x="62.50000000000001" y="303.40000000000003"/>
      <point x="112.10000000000001" y="241.7"/>
      <point x="231.89999999999998" y="205.0" type="curve" smooth="yes"/>
      <point x="336.0" y="173.0"/>
      <point x="371.70000000000005" y="141.0"/>
      <point x="371.70000000000005" y="79.0" type="curve" smooth="yes"/>
      <point x="371.70000000000005" y="50.400000000000006"/>
      <point x="363.5" y="17.0"/>
      <point x="354.9" y="-3.0" type="curve"/>
    </contour>
  </outline>
</glyph>
<glyph name="llVocalic-beng" format="2">
  <advance width="534.1"/>
  <unicode hex="09E1"/>
  <anchor x="274.8" y="602.0" name="top"/>
  <anchor x="266.7" y="0.0" name="vedic"/>
  <outline>
    <contour>
      <point x="234.4" y="56.0" type="curve"/>
      <point x="315.8" y="78.4"/>
      <point x="363.3" y="156.8"/>
      <point x="363.3" y="264.3" type="curve" smooth="yes"/>
      <point x="363.3" y="389.9"/>
      <point x="298.20000000000005" y="422.7"/>
      <point x="218.2" y="448.5" type="curve" smooth="yes"/>
      <point x="148.5" y="470.7"/>
      <point x="89.6" y="491.7"/>
      <point x="89.6" y="585.9000000000001" type="curve" smooth="yes"/>
      <point x="89.6" y="628.0"/>
      <point x="100.89999999999999" y="656.0"/>
      <point x="111.19999999999999" y="681.0" type="curve"/>
      <point x="93.5" y="689.0" type="line"/>
      <point x="78.3" y="655.0"/>
      <point x="69.60000000000001" y="619.6999999999999"/>
      <point x="69.60000000000001" y="586.0" type="curve" smooth="yes"/>
      <point x="69.60000000000001" y="477.70000000000005"/>
      <point x="131.1" y="453.0"/>
      <point x="205.8" y="429.6" type="curve" smooth="yes"/>
      <point x="283.6" y="404.8"/>
      <point x="342.70000000000005" y="380.1"/>
      <point x="342.70000000000005" y="259.59999999999997" type="curve" smooth="yes"/>
      <point x="342.70000000000005" y="159.6"/>
      <point x="293.3" y="95.0"/>
      <point x="248.4" y="82.0" type="curve"/>
      <point x="259.29999999999995" y="77.0" type="line"/>
      <point x="266.2" y="201.0"/>
      <point x="238.40000000000003" y="280.0"/>
      <point x="156.5" y="280.0" type="curve" smooth="yes"/>
      <point x="94.7" y="280.0"/>
      <point x="64.0" y="226.7"/>
      <point x="64.0" y="172.4" type="curve" smooth="yes"/>
      <point x="64.0" y="109.0"/>
      <point x="96.2" y="73.0"/>
      <point x="130.4" y="73.0" type="curve" smooth="yes"/>
      <point x="157.29999999999998" y="73.0"/>
      <point x="169.20000000000002" y="91.7"/>
      <point x="169.20000000000002" y="115.0" type="curve" smooth="yes"/>
      <point x="169.20000000000002" y="139.0"/>
      <point x="153.3" y="155.0"/>
      <point x="133.4" y="155.0" type="curve" smooth="yes"/>
      <point x="113.8" y="155.0"/>
      <point x="99.3" y="139.0"/>
      <point x="100.60000000000001" y="113.6" type="curve"/>
      <point x="111.10000000000001" y="112.6" type="line"/>
      <point x="99.5" y="118.6"/>
      <point x="86.0" y="135.0"/>
      <point x="86.0" y="174.0" type="curve" smooth="yes"/>
      <point x="86.0" y="238.0"/>
      <point x="125.79999999999998" y="258.0"/>
      <point x="156.79999999999998" y="258.0" type="curve" smooth="yes"/>
      <point x="221.5" y="258.0"/>
      <point x="238.7" y="192.0"/>
      <point x="238.7" y="111.0" type="curve" smooth="yes"/>
      <point x="238.7" y="87.8"/>
      <point x="237.1" y="71.8"/>
    </contour>
    <contour>
      <point x="376.9" y="-134.7" type="line"/>
      <point x="436.0" y="-117.0"/>
      <point x="501.90000000000003" y="-49.5"/>
      <point x="501.90000000000003" y="76.6" type="curve" smooth="yes"/>
      <point x="501.90000000000003" y="202.6"/>
      <point x="436.40000000000003" y="234.60000000000002"/>
      <point x="354.90000000000003" y="260.4" type="curve"/>
      <point x="350.4" y="239.8" type="line"/>
      <point x="427.0" y="216.39999999999998"/>
      <point x="481.90000000000003" y="188.8"/>
      <point x="481.90000000000003" y="71.60000000000001" type="curve" smooth="yes"/>
      <point x="481.90000000000003" y="-28.4"/>
      <point x="432.8" y="-92.7"/>
      <point x="387.9" y="-105.69999999999999" type="curve"/>
      <point x="398.8" y="-110.7" type="line"/>
      <point x="405.70000000000005" y="13.3"/>
      <point x="377.90000000000003" y="92.3"/>
      <point x="296.0" y="92.3" type="curve" smooth="yes"/>
      <point x="234.2" y="92.3"/>
      <point x="203.5" y="39.0"/>
      <point x="203.5" y="-15.3" type="curve" smooth="yes"/>
      <point x="203.5" y="-78.69999999999999"/>
      <point x="235.7" y="-114.7"/>
      <point x="269.9" y="-114.7" type="curve" smooth="yes"/>
      <point x="296.8" y="-114.7"/>
      <point x="308.7" y="-96.0"/>
      <point x="308.7" y="-72.7" type="curve" smooth="yes"/>
      <point x="308.7" y="-48.7"/>
      <point x="292.8" y="-32.7"/>
      <point x="272.90000000000003" y="-32.7" type="curve" smooth="yes"/>
      <point x="253.29999999999998" y="-32.7"/>
      <point x="238.79999999999998" y="-48.7"/>
      <point x="240.1" y="-74.1" type="curve"/>
      <point x="250.6" y="-75.10000000000001" type="line"/>
      <point x="239.0" y="-69.1"/>
      <point x="225.5" y="-52.7"/>
      <point x="225.5" y="-13.7" type="curve" smooth="yes"/>
      <point x="225.5" y="50.3"/>
      <point x="265.29999999999995" y="70.3"/>
      <point x="296.29999999999995" y="70.3" type="curve" smooth="yes"/>
      <point x="361.0" y="70.3"/>
      <point x="378.2" y="4.3"/>
      <point x="378.2" y="-76.7" type="curve" smooth="yes"/>
      <point x="378.2" y="-99.9"/>
      <point x="376.6" y="-115.9"/>
      <point x="373.90000000000003" y="-131.7" type="curve"/>
    </contour>
  </outline>
</glyph>
